<svg width="103" height="30" viewBox="0 0 103 30" fill="none" xmlns="http://www.w3.org/2000/svg">
<path d="M2.0499 24H0L4.13341 0H6.18331L4.60388 9.08571H4.67109C5.07435 8.33143 5.55602 7.76 6.1161 7.37143C6.67618 6.96 7.26987 6.75429 7.89716 6.75429C8.39004 6.75429 8.8381 6.88 9.24136 7.13143C9.66702 7.36 10.0255 7.68 10.3167 8.09143C10.608 8.48 10.8096 8.93714 10.9216 9.46286C11.056 9.98857 11.0672 10.5371 10.9552 11.1086L9.40939 20.0571C9.31977 20.6057 9.12935 21.1429 8.8381 21.6686C8.54686 22.1714 8.18841 22.6171 7.76274 23.0057C7.35949 23.3943 6.91142 23.7029 6.41855 23.9314C5.92567 24.16 5.4328 24.2743 4.93993 24.2743C4.29023 24.2743 3.74135 24.08 3.29329 23.6914C2.86762 23.28 2.58758 22.6857 2.45316 21.9086H2.38595L2.0499 24ZM2.62119 20.6743C2.55398 21.0857 2.55398 21.4971 2.62119 21.9086C2.6884 22.2971 2.81161 22.6514 2.99084 22.9714C3.17007 23.2686 3.3941 23.5086 3.66294 23.6914C3.93178 23.8743 4.23422 23.9657 4.57027 23.9657C5.15276 23.9657 5.69044 23.7029 6.18331 23.1771C6.67618 22.6514 6.98983 22.0114 7.12425 21.2571L9.10694 9.73714C9.24136 8.96 9.15175 8.32 8.8381 7.81714C8.54686 7.29143 8.11 7.02857 7.52751 7.02857C7.19146 7.02857 6.85541 7.12 6.51936 7.30286C6.18331 7.48571 5.86967 7.73714 5.57842 8.05714C5.28718 8.35429 5.02954 8.70857 4.80551 9.12C4.60388 9.50857 4.46946 9.92 4.40225 10.3543L2.62119 20.6743Z" fill="#F46C9E"/>
<path d="M15.06 6.99429L15.8665 20.64H15.9337L21.3441 6.99429H21.613L12.3044 30H12.0356L14.4551 24H14.0519L12.9093 6.99429H15.06Z" fill="#F46C9E"/>
<path d="M39.5785 24H37.4278L41.3932 1.09714H41.326L33.3616 24H32.5887L31.2445 1.09714H31.1773L27.2119 24H27.0102L31.1437 0.0342853H33.3952L34.4705 19.8514H34.5378L35.0418 18.48L41.4268 0.0342853H43.7119L39.5785 24Z" fill="#F46C9E"/>
<path d="M46.9585 6.99429L47.765 20.64H47.8322L53.2426 6.99429H53.5114L44.2029 30H43.934L46.3536 24H45.9503L44.8077 6.99429H46.9585Z" fill="#F46C9E"/>
<path d="M52.2586 15.6343C52.4826 14.3314 52.8859 13.1314 53.4684 12.0343C54.0733 10.9371 54.8014 10 55.6527 9.22286C56.504 8.44571 57.4674 7.84 58.5427 7.40571C59.6405 6.97143 60.7942 6.75429 62.004 6.75429C63.0122 6.75429 63.8747 6.90286 64.5916 7.2C65.3309 7.47429 65.891 7.87429 66.2719 8.4L66.1038 8.53714C65.7678 8.08 65.2637 7.71429 64.5916 7.44C63.9419 7.16571 63.2138 7.02857 62.4073 7.02857C61.4215 7.02857 60.4918 7.23429 59.6181 7.64571C58.7443 8.05714 57.949 8.65143 57.2321 9.42857C56.5376 10.1829 55.9439 11.0971 55.4511 12.1714C54.9582 13.2457 54.5997 14.4343 54.3757 15.7371C54.1517 16.9943 54.0957 18.1371 54.2077 19.1657C54.3421 20.1714 54.6109 21.04 55.0142 21.7714C55.4399 22.48 55.9999 23.0286 56.6944 23.4171C57.3889 23.8057 58.2067 24 59.1476 24C60.1558 24 61.1415 23.7829 62.1048 23.3486C63.0906 22.9143 63.9083 22.32 64.558 21.5657L64.6924 21.7029C63.9531 22.5257 63.0682 23.1657 62.0376 23.6229C61.0295 24.0571 59.9205 24.2743 58.7107 24.2743C57.5234 24.2743 56.4704 24.0686 55.5519 23.6571C54.6557 23.2229 53.9276 22.6286 53.3676 21.8743C52.8075 21.12 52.4266 20.2171 52.225 19.1657C52.0234 18.0914 52.0346 16.9143 52.2586 15.6343Z" fill="#F46C9E"/>
<path d="M78.2132 21.7029C77.4739 22.5257 76.5889 23.1657 75.5584 23.6229C74.5502 24.0571 73.4413 24.2743 72.2315 24.2743C71.0441 24.2743 69.9912 24.0686 69.0726 23.6571C68.1765 23.2229 67.4484 22.6286 66.8883 21.8743C66.3282 21.12 65.9474 20.2057 65.7457 19.1314C65.5441 18.0571 65.5553 16.8686 65.7793 15.5657C66.0034 14.2857 66.3954 13.1086 66.9555 12.0343C67.5156 10.96 68.1877 10.0343 68.9718 9.25714C69.7783 8.45714 70.6745 7.84 71.6602 7.40571C72.6459 6.97143 73.6765 6.75429 74.7519 6.75429C75.8272 6.75429 76.7682 6.97143 77.5747 7.40571C78.3812 7.81714 79.0309 8.41143 79.5238 9.18857C80.039 9.94286 80.3751 10.8571 80.5319 11.9314C80.7111 13.0057 80.6887 14.1829 80.4647 15.4629H67.93C67.93 15.5086 67.9188 15.5429 67.8964 15.5657C67.8964 15.5657 67.8964 15.5886 67.8964 15.6343C67.6724 16.9143 67.6052 18.08 67.6948 19.1314C67.8068 20.16 68.0645 21.04 68.4677 21.7714C68.8934 22.5029 69.4535 23.0629 70.148 23.4514C70.8425 23.84 71.6714 24.0343 72.6347 24.0343C73.6653 24.0343 74.6622 23.8171 75.6256 23.3829C76.5889 22.9257 77.3954 22.32 78.0451 21.5657L78.2132 21.7029ZM74.8863 6.96C74.1022 6.96 73.3404 7.16572 72.6011 7.57714C71.8618 7.98857 71.1897 8.56 70.5848 9.29143C69.98 10.0229 69.4535 10.9029 69.0054 11.9314C68.5573 12.9371 68.2101 14.0457 67.9637 15.2571H78.3476C78.7957 12.6286 78.706 10.5943 78.0787 9.15429C77.4515 7.69143 76.3873 6.96 74.8863 6.96Z" fill="#F46C9E"/>
<path d="M83.5535 24.2743C82.8142 24.2743 82.2653 23.9543 81.9068 23.3143C81.5708 22.6743 81.4924 21.8286 81.6716 20.7771L84.0239 7.23429H82.2429L82.2765 7.02857H84.0575L84.7296 3.18857L86.8804 2.53714L86.1074 7.02857H89.7368L89.6696 7.23429H86.0738L83.6207 21.4286C83.5087 22.1143 83.5423 22.6743 83.7215 23.1086C83.9007 23.5429 84.192 23.76 84.5952 23.76C84.9089 23.76 85.2673 23.6457 85.6706 23.4171C86.0738 23.1657 86.4771 22.8343 86.8804 22.4229L87.0148 22.5257C86.4771 23.0514 85.8946 23.4743 85.2673 23.7943C84.64 24.1143 84.0687 24.2743 83.5535 24.2743Z" fill="#F46C9E"/>
<path d="M100.562 21.7029C99.8225 22.5257 98.9375 23.1657 97.907 23.6229C96.8988 24.0571 95.7899 24.2743 94.5801 24.2743C93.3927 24.2743 92.3398 24.0686 91.4212 23.6571C90.5251 23.2229 89.797 22.6286 89.2369 21.8743C88.6768 21.12 88.296 20.2057 88.0943 19.1314C87.8927 18.0571 87.9039 16.8686 88.1279 15.5657C88.352 14.2857 88.744 13.1086 89.3041 12.0343C89.8642 10.96 90.5363 10.0343 91.3204 9.25714C92.1269 8.45714 93.0231 7.84 94.0088 7.40571C94.9946 6.97143 96.0251 6.75429 97.1005 6.75429C98.1758 6.75429 99.1168 6.97143 99.9233 7.40571C100.73 7.81714 101.379 8.41143 101.872 9.18857C102.388 9.94286 102.724 10.8571 102.881 11.9314C103.06 13.0057 103.037 14.1829 102.813 15.4629H90.2787C90.2787 15.5086 90.2675 15.5429 90.245 15.5657C90.245 15.5657 90.245 15.5886 90.245 15.6343C90.021 16.9143 89.9538 18.08 90.0434 19.1314C90.1554 20.16 90.4131 21.04 90.8163 21.7714C91.242 22.5029 91.8021 23.0629 92.4966 23.4514C93.1911 23.84 94.02 24.0343 94.9834 24.0343C96.0139 24.0343 97.0108 23.8171 97.9742 23.3829C98.9375 22.9257 99.744 22.32 100.394 21.5657L100.562 21.7029ZM97.2349 6.96C96.4508 6.96 95.6891 7.16572 94.9497 7.57714C94.2104 7.98857 93.5383 8.56 92.9334 9.29143C92.3286 10.0229 91.8021 10.9029 91.354 11.9314C90.9059 12.9371 90.5587 14.0457 90.3123 15.2571H100.696C101.144 12.6286 101.055 10.5943 100.427 9.15429C99.8001 7.69143 98.7359 6.96 97.2349 6.96Z" fill="#F46C9E"/>
</svg>
