<svg width="94" height="26" viewBox="0 0 94 26" fill="none" xmlns="http://www.w3.org/2000/svg">
<path d="M0.164707 21.2196L2.1143 9.87037C2.40561 8.15079 2.70814 6.76367 3.02186 5.70899C3.358 4.63139 3.71655 3.77161 4.0975 3.12963C4.50086 2.48765 4.93784 2.01764 5.40843 1.71958C5.87902 1.39859 6.40563 1.12346 6.98827 0.894181L9.40845 0L9.44207 0.206351L7.02188 1.10053C6.48407 1.30688 6.01348 1.55908 5.61011 1.85714C5.22916 2.13228 4.88182 2.57937 4.56809 3.19841C4.27677 3.81746 3.99666 4.65432 3.72775 5.70899C3.48125 6.76367 3.21234 8.15079 2.92102 9.87037L0.904206 21.5635C0.769752 22.3201 0.724934 22.9735 0.769752 23.5238C0.81457 24.0511 0.915411 24.4868 1.07227 24.8307C1.25155 25.1517 1.46443 25.3924 1.71093 25.5529C1.97984 25.7134 2.25996 25.7937 2.55127 25.7937C2.865 25.7937 3.16752 25.7249 3.45884 25.5873C3.77257 25.4268 4.06389 25.1746 4.3328 24.8307C4.62411 24.4868 4.88182 24.0511 5.10591 23.5238C5.33 22.9735 5.50927 22.3201 5.64373 21.5635L7.02188 13.5847C7.13393 12.8739 7.16754 12.2778 7.12273 11.7963C7.07791 11.3148 6.97707 10.925 6.8202 10.627C6.66334 10.3289 6.45045 10.1111 6.18154 9.97355C5.93504 9.83598 5.67734 9.7672 5.40843 9.7672C4.96025 9.7672 4.45604 9.90476 3.89582 10.1799C3.358 10.455 2.93223 10.8333 2.6185 11.3148L2.65211 11.0053C2.69693 10.7531 2.82018 10.5353 3.02186 10.3519C3.24595 10.1684 3.49245 10.0194 3.76136 9.90476C4.05268 9.79012 4.344 9.70988 4.63532 9.66402C4.94904 9.59524 5.24036 9.56085 5.50927 9.56085C5.89023 9.56085 6.23757 9.64109 6.55129 9.80159C6.88743 9.96208 7.16754 10.2257 7.39163 10.5926C7.61572 10.9365 7.76138 11.3836 7.82861 11.9339C7.91825 12.4841 7.89584 13.149 7.76138 13.9286L6.51768 21.2196C6.36082 22.0679 6.14793 22.7901 5.87902 23.3862C5.61011 23.9824 5.28518 24.4753 4.90423 24.8651C4.54568 25.2549 4.16473 25.5414 3.76136 25.7249C3.358 25.9083 2.94343 26 2.51766 26C2.1143 26 1.73334 25.9083 1.3748 25.7249C1.03866 25.5414 0.747343 25.2549 0.500843 24.8651C0.276752 24.4753 0.119889 23.9824 0.0302523 23.3862C-0.036975 22.7672 0.00784318 22.045 0.164707 21.2196Z" fill="white"/>
<path d="M14.982 8.76984L8.93156 22.9392L8.52819 23.9365H8.46097L8.62904 22.9048L11.0828 8.76984H10.8811L7.92315 25.7937H8.56181L15.419 9.73281L15.8223 8.76984H15.8896L15.6879 9.7672L12.9316 25.7937H13.1333L16.0913 8.76984H14.982Z" fill="white"/>
<path d="M21.2155 8.56349C21.5964 8.56349 21.9326 8.64374 22.2239 8.80423C22.5152 8.96473 22.7505 9.18254 22.9298 9.45767C23.1091 9.73281 23.2323 10.0653 23.2995 10.455C23.3668 10.8219 23.3668 11.2231 23.2995 11.6587L21.3499 22.9048C21.2827 23.3404 21.1483 23.7531 20.9466 24.1429C20.7449 24.5097 20.4984 24.8307 20.2071 25.1058C19.9382 25.381 19.6244 25.5988 19.2659 25.7593C18.9298 25.9198 18.5712 26 18.1903 26C17.8093 26 17.4732 25.9198 17.1819 25.7593C16.8905 25.5988 16.644 25.381 16.4424 25.1058C16.2631 24.8307 16.1398 24.5097 16.0726 24.1429C16.0054 23.7531 16.0054 23.3404 16.0726 22.9048L18.0222 11.6587C18.0894 11.2231 18.2239 10.8219 18.4256 10.455C18.6272 10.0653 18.8737 9.73281 19.1651 9.45767C19.4564 9.18254 19.7701 8.96473 20.1062 8.80423C20.4648 8.64374 20.8345 8.56349 21.2155 8.56349ZM21.1819 8.76984C20.5544 8.76984 20.0502 8.98765 19.6693 9.42328C19.2883 9.85891 19.0194 10.5353 18.8625 11.4524L16.8457 23.1111C16.6889 24.0282 16.7225 24.7046 16.9466 25.1402C17.1707 25.5758 17.5964 25.7937 18.2239 25.7937C18.8513 25.7937 19.3443 25.5758 19.7029 25.1402C20.0838 24.7046 20.3527 24.0282 20.5096 23.1111L22.5264 11.4524C22.6833 10.5353 22.6497 9.85891 22.4256 9.42328C22.2239 8.98765 21.8093 8.76984 21.1819 8.76984Z" fill="white"/>
<path d="M21.3838 25.6905C21.4959 25.7822 21.6303 25.851 21.7872 25.8968C21.944 25.9656 22.1009 26 22.2578 26C22.4819 26 22.706 25.9427 22.9301 25.828C23.1317 25.7363 23.3334 25.5873 23.5351 25.381C23.7368 25.1517 23.916 24.8765 24.0729 24.5556C24.2298 24.2116 24.353 23.7989 24.4427 23.3175L27.5351 8.97619H30.2914L27.4007 25.7937H28.2074L31.1318 8.76984H26.762L23.6359 23.3175C23.5463 23.7531 23.4567 24.1314 23.367 24.4524C23.255 24.7504 23.1429 25.0026 23.0309 25.209C22.8964 25.4153 22.762 25.5644 22.6275 25.6561C22.4931 25.7249 22.3474 25.7593 22.1906 25.7593C22.0785 25.7593 21.9665 25.7478 21.8544 25.7249C21.7424 25.679 21.6303 25.6102 21.5183 25.5185L21.3838 25.6905Z" fill="white"/>
<path d="M36.2497 8.56349C36.6307 8.56349 36.9668 8.64374 37.2581 8.80423C37.5494 8.96473 37.7847 9.18254 37.964 9.45767C38.1433 9.73281 38.2665 10.0653 38.3338 10.455C38.401 10.8219 38.401 11.2231 38.3338 11.6587L36.3842 22.9048C36.3169 23.3404 36.1825 23.7531 35.9808 24.1429C35.7791 24.5097 35.5326 24.8307 35.2413 25.1058C34.9724 25.381 34.6587 25.5988 34.3001 25.7593C33.964 25.9198 33.6054 26 33.2245 26C32.8435 26 32.5074 25.9198 32.2161 25.7593C31.9248 25.5988 31.6783 25.381 31.4766 25.1058C31.2973 24.8307 31.1741 24.5097 31.1068 24.1429C31.0396 23.7531 31.0396 23.3404 31.1068 22.9048L33.0564 11.6587C33.1236 11.2231 33.2581 10.8219 33.4598 10.455C33.6615 10.0653 33.908 9.73281 34.1993 9.45767C34.4906 9.18254 34.8043 8.96473 35.1405 8.80423C35.499 8.64374 35.8688 8.56349 36.2497 8.56349ZM36.2161 8.76984C35.5886 8.76984 35.0844 8.98765 34.7035 9.42328C34.3225 9.85891 34.0536 10.5353 33.8968 11.4524L31.8799 23.1111C31.7231 24.0282 31.7567 24.7046 31.9808 25.1402C32.2049 25.5758 32.6306 25.7937 33.2581 25.7937C33.8855 25.7937 34.3786 25.5758 34.7371 25.1402C35.118 24.7046 35.387 24.0282 35.5438 23.1111L37.5606 11.4524C37.7175 10.5353 37.6839 9.85891 37.4598 9.42328C37.2581 8.98765 36.8435 8.76984 36.2161 8.76984Z" fill="white"/>
<path d="M38.0572 25.7937H38.864L41.7883 8.97619H44.4774L44.511 8.76984H41.0152L38.0572 25.7937Z" fill="white"/>
<path d="M50.1713 8.76984L44.1208 22.9392L43.7174 23.9365H43.6502L43.8183 22.9048L46.2721 8.76984H46.0704L43.1124 25.7937H43.7511L50.6082 9.73281L51.0116 8.76984H51.0788L50.8771 9.7672L48.1208 25.7937H48.3225L51.2805 8.76984H50.1713Z" fill="white"/>
<path d="M55.9342 18.8122H55.9678L55.7997 19.8439L54.7913 25.7937H55.598L58.5224 8.76984H57.7157L56.2031 17.5741C56.1358 18.0097 56.0126 18.4224 55.8333 18.8122C55.6764 19.179 55.4748 19.5115 55.2283 19.8095C55.0042 20.0847 54.7465 20.3139 54.4552 20.4974C54.1638 20.6808 53.8613 20.7725 53.5476 20.7725C53.2115 20.7725 52.9313 20.6235 52.7072 20.3254C52.5056 20.0044 52.4832 19.3854 52.64 18.4683L54.3207 8.76984H53.514L51.8333 18.3651C51.7661 18.8466 51.7661 19.2593 51.8333 19.6032C51.9005 19.9242 52.0126 20.1878 52.1694 20.3942C52.3263 20.6005 52.5168 20.7496 52.7409 20.8413C52.965 20.933 53.189 20.9788 53.4131 20.9788C53.9061 20.9788 54.3767 20.7954 54.8249 20.4286C55.2731 20.0617 55.6428 19.5229 55.9342 18.8122Z" fill="white"/>
<path d="M60.4331 11.6587L58.5172 22.836C58.4275 23.2945 58.4163 23.7187 58.4835 24.1085C58.5508 24.4982 58.674 24.8307 58.8533 25.1058C59.055 25.381 59.3015 25.5988 59.5928 25.7593C59.9065 25.9198 60.2539 26 60.6348 26C61.2847 26 61.8897 25.7937 62.4499 25.381C63.0102 24.9683 63.492 24.3607 63.8953 23.5582L63.7273 23.4894C63.5256 23.8563 63.3127 24.1887 63.0886 24.4868C62.8645 24.7619 62.6292 25.0026 62.3827 25.209C62.1362 25.3924 61.8785 25.5414 61.6096 25.6561C61.3631 25.7478 61.1054 25.7937 60.8365 25.7937C60.5452 25.7937 60.2875 25.7249 60.0634 25.5873C59.8393 25.4497 59.6488 25.2663 59.4919 25.037C59.3575 24.7848 59.2679 24.4868 59.223 24.1429C59.2006 23.7989 59.223 23.4206 59.2903 23.0079L61.2735 11.4524C61.4303 10.5353 61.6992 9.85891 62.0802 9.42328C62.4611 8.98765 62.9654 8.76984 63.5928 8.76984C64.2203 8.76984 64.6348 8.98765 64.8365 9.42328C65.0606 9.85891 65.0942 10.5353 64.9373 11.4524L63.9626 17.0238H59.8953L59.8617 17.2302H64.7357L65.7105 11.6587C65.7777 11.2231 65.7777 10.8219 65.7105 10.455C65.6432 10.0653 65.52 9.73281 65.3407 9.45767C65.1614 9.18254 64.9261 8.96473 64.6348 8.80423C64.3435 8.64374 64.0074 8.56349 63.6264 8.56349C63.2455 8.56349 62.8757 8.64374 62.5172 8.80423C62.181 8.96473 61.8673 9.18254 61.576 9.45767C61.2847 9.73281 61.0382 10.0653 60.8365 10.455C60.6348 10.8219 60.5004 11.2231 60.4331 11.6587Z" fill="white"/>
<path d="M67.8189 11.6587L65.8693 22.9048C65.8021 23.3404 65.8021 23.7531 65.8693 24.1429C65.9366 24.5097 66.0598 24.8307 66.2391 25.1058C66.4408 25.381 66.6873 25.5988 66.9786 25.7593C67.2923 25.9198 67.6397 26 68.0206 26C68.6705 26 69.2755 25.7937 69.8358 25.381C70.4184 24.9453 70.9002 24.3377 71.2811 23.5582L71.0795 23.4894C70.9226 23.8563 70.7321 24.1772 70.508 24.4524C70.2839 24.7275 70.0486 24.9683 69.8021 25.1746C69.578 25.358 69.3316 25.5071 69.0626 25.6217C68.7937 25.7134 68.5248 25.7593 68.2559 25.7593C67.6285 25.7593 67.1691 25.5185 66.8778 25.037C66.5864 24.5326 66.5192 23.8677 66.6761 23.0423L68.6593 11.4868C68.7937 10.7072 69.0851 10.0653 69.5332 9.56085C70.0038 9.05644 70.5416 8.80423 71.1467 8.80423C71.55 8.80423 71.9086 8.91887 72.2223 9.14815C72.536 9.37743 72.7937 9.70988 72.9954 10.1455L73.1635 10.0423C72.9394 9.56085 72.6481 9.20547 72.2896 8.97619C71.931 8.72399 71.5164 8.59789 71.0458 8.59789C70.6425 8.59789 70.2615 8.67813 69.903 8.83862C69.5444 8.97619 69.2195 9.18254 68.9282 9.45767C68.6593 9.73281 68.424 10.0538 68.2223 10.4206C68.0206 10.7875 67.8862 11.2002 67.8189 11.6587Z" fill="white"/>
<path d="M76.8754 25.7937H77.7158L75.699 17.8492C75.6317 17.597 75.5533 17.4021 75.4637 17.2646C75.3964 17.127 75.3068 17.0238 75.1948 16.955C75.0827 16.8633 74.9595 16.806 74.825 16.7831C74.6906 16.7601 74.5337 16.7487 74.3544 16.7487H74.0519V16.955H74.2872C74.4216 16.955 74.5225 16.9894 74.5897 17.0582C74.6794 17.127 74.7578 17.3104 74.825 17.6085L76.8754 25.7937ZM74.9595 16.9894L79.7662 8.76984H79.4973L74.6906 16.9206L74.9595 16.9894ZM75.6653 8.76984H74.8586L71.9006 25.7937H72.7074L75.6653 8.76984Z" fill="white"/>
<path d="M85.9514 8.76984L79.9009 22.9392L79.4976 23.9365H79.4303L79.5984 22.9048L82.0522 8.76984H81.8505L78.8925 25.7937H79.5312L86.3884 9.73281L86.7917 8.76984H86.8589L86.6573 9.7672L83.9009 25.7937H84.1026L87.0606 8.76984H85.9514Z" fill="white"/>
<path d="M88.9243 8.76984L89.6302 17.127L85.6638 25.7937H85.9663L89.1596 18.7778L89.5966 17.7804H89.6638L89.7647 18.7778L90.3361 25.7937H91.1765L90.4033 16.6111L94 8.76984H93.7311L90.8739 14.9947L90.4033 15.9921H90.3361L90.2689 14.9947L89.7647 8.76984H88.9243Z" fill="white"/>
</svg>
