<svg width="213" height="778" viewBox="0 0 213 778" fill="none" xmlns="http://www.w3.org/2000/svg">
<path d="M58.6533 203.233C63.8676 200.31 71.6481 201.228 73.0982 204.45C74.9083 208.475 64.838 212.507 64.5212 219.091C64.0863 228.091 82.1834 233.953 126.782 251.552C158.506 264.071 175.608 271.467 186.152 263.338C191.316 259.358 193.323 252.842 198.075 253.205C203.803 253.643 210.05 263.481 207.717 269.443C204.501 277.655 185.252 277.862 163.211 278.099C136.657 278.384 127.603 274.738 119.752 281.807C113.567 287.377 117.442 291.208 109.381 304.014C103.976 312.599 101.608 311.872 86.0579 328.331C75.0871 339.944 74.0706 342.632 69.1868 344.113C59.0308 347.192 48.1883 340.192 42.0981 335.417C41.1107 328.587 40.9408 319.767 46.1818 315.331C52.8489 309.687 61.991 316.462 72.6834 313.349C87.7716 308.957 101.321 286.226 97.3637 268.913C91.5783 243.604 50.8237 240.57 50.8695 218.907C50.8803 214.21 52.816 206.506 58.6533 203.233ZM108.108 300.356C110.089 296.97 111.156 293.806 111.758 291.413C110.136 294.315 108.349 297.325 106.38 300.417C104.253 303.754 102.12 306.861 100.023 309.744C102.263 307.932 105.451 304.899 108.108 300.356ZM104.616 300.398C105.606 298.704 106.14 297.122 106.44 295.927C105.629 297.377 104.736 298.883 103.751 300.428C102.689 302.097 101.622 303.651 100.572 305.093C101.693 304.185 103.289 302.668 104.616 300.398ZM49.9746 320.791C47.2337 323.696 45.6553 326.587 44.772 328.54C46.4379 326.419 48.2581 324.221 50.2411 321.97C52.0784 319.884 53.8901 317.941 55.6553 316.137C54.0685 317.129 52.0192 318.626 49.9746 320.791ZM52.6969 321.886C50.7066 323.996 49.56 326.095 48.9187 327.515C50.1288 325.974 51.4505 324.378 52.8914 322.742C54.2245 321.228 55.5428 319.817 56.8244 318.507C55.6706 319.226 54.18 320.312 52.6969 321.886ZM55.7128 322.402C52.972 325.306 51.3935 328.197 50.5102 330.15C52.1761 328.03 53.9945 325.831 55.9794 323.58C57.8167 321.494 59.6284 319.551 61.3935 317.748C59.8058 318.741 57.7574 320.237 55.7128 322.402ZM88.7703 312.585C90.6592 310.286 91.8369 308.042 92.573 306.321C91.0111 308.301 89.313 310.344 87.4684 312.427C85.4762 314.674 83.5076 316.75 81.5919 318.66C83.4878 317.567 86.2373 315.67 88.7703 312.585Z" fill="#F28220"/>
<path d="M58.6533 592.334C63.8676 589.41 71.6481 590.329 73.0982 593.551C74.9083 597.575 64.838 601.608 64.5212 608.192C64.0863 617.191 82.1834 623.054 126.782 640.652C158.506 653.171 175.608 660.567 186.152 652.439C191.316 648.459 193.323 641.943 198.075 642.305C203.803 642.743 210.05 652.581 207.717 658.543C204.501 666.755 185.252 666.963 163.211 667.199C136.657 667.485 127.603 663.839 119.752 670.907C113.567 676.478 117.442 680.308 109.381 693.115C103.976 701.699 101.608 700.972 86.0579 717.431C75.0871 729.045 74.0706 731.733 69.1868 733.213C59.0308 736.293 48.1883 729.293 42.0981 724.517C41.1107 717.687 40.9408 708.868 46.1818 704.432C52.8489 698.788 61.991 705.563 72.6834 702.45C87.7716 698.058 101.321 675.327 97.3637 658.013C91.5783 632.704 50.8237 629.67 50.8695 608.007C50.8803 603.311 52.816 595.607 58.6533 592.334ZM108.108 689.457C110.089 686.07 111.156 682.907 111.758 680.514C110.136 683.415 108.349 686.425 106.38 689.517C104.253 692.855 102.12 695.962 100.023 698.845C102.263 697.032 105.451 694 108.108 689.457ZM104.616 689.498C105.606 687.805 106.14 686.222 106.44 685.028C105.629 686.478 104.736 687.984 103.751 689.529C102.689 691.198 101.622 692.752 100.572 694.193C101.693 693.285 103.289 691.768 104.616 689.498ZM49.9746 709.892C47.2337 712.796 45.6553 715.687 44.772 717.64C46.4379 715.52 48.2581 713.322 50.2411 711.07C52.0784 708.984 53.8901 707.041 55.6553 705.238C54.0685 706.229 52.0192 707.727 49.9746 709.892ZM52.6969 710.986C50.7066 713.097 49.56 715.196 48.9187 716.616C50.1288 715.075 51.4505 713.478 52.8914 711.843C54.2245 710.329 55.5428 708.918 56.8244 707.608C55.6706 708.326 54.18 709.412 52.6969 710.986ZM55.7128 711.503C52.972 714.407 51.3935 717.298 50.5102 719.251C52.1761 717.13 53.9945 714.932 55.9794 712.681C57.8167 710.595 59.6284 708.652 61.3935 706.848C59.8058 707.842 57.7574 709.338 55.7128 711.503ZM88.7703 701.686C90.6592 699.386 91.8369 697.142 92.573 695.422C91.0111 697.401 89.313 699.445 87.4684 701.527C85.4762 703.774 83.5076 705.85 81.5919 707.761C83.4878 706.668 86.2373 704.771 88.7703 701.686Z" fill="#F28220"/>
<path d="M175.476 17.1739C170.789 13.2272 162.767 12.6612 160.678 15.631C158.07 19.3408 167.435 25.3359 166.473 32.0338C165.159 41.1885 145.775 43.6282 97.3925 52.8166C62.9768 59.3538 44.2976 63.5297 35.2521 53.3149C30.8214 48.3126 30.0677 41.36 25.2066 40.814C19.3478 40.1572 11.1347 48.8765 12.3256 55.3332C13.9687 64.2277 33.3312 68.1277 55.502 72.5916C82.2133 77.9708 92.0495 76.0314 98.5873 84.6621C103.738 91.4631 99.0855 94.5813 104.717 109.036C108.494 118.725 111.023 118.446 123.492 138.019C132.289 151.829 132.79 154.733 137.425 157.162C147.063 162.213 159.355 157.236 166.424 153.59C168.749 146.895 170.638 138.037 166.219 132.56C160.597 125.593 150.063 130.669 139.891 125.482C125.537 118.162 116.305 92.6503 123.666 75.9572C134.426 51.5547 176.098 56.3103 180.27 34.4652C181.173 29.7291 180.722 21.5919 175.476 17.1739ZM106.712 105.592C105.375 101.799 104.916 98.4054 104.775 95.8784C105.845 99.1139 107.06 102.491 108.443 105.985C109.937 109.757 111.482 113.298 113.034 116.606C111.13 114.349 108.506 110.681 106.712 105.592ZM110.225 106.304C109.556 104.407 109.326 102.709 109.256 101.448C109.791 103.065 110.398 104.754 111.09 106.5C111.836 108.386 112.609 110.158 113.386 111.812C112.433 110.681 111.12 108.847 110.225 106.304ZM161.332 137.337C163.53 140.79 164.558 144.007 165.068 146.145C163.801 143.688 162.395 141.124 160.834 138.474C159.388 136.019 157.941 133.713 156.512 131.557C157.919 132.86 159.693 134.763 161.332 137.337ZM158.375 137.918C159.97 140.427 160.717 142.763 161.087 144.317C160.168 142.532 159.146 140.669 158.012 138.745C156.963 136.963 155.909 135.288 154.872 133.722C155.896 134.667 157.187 136.047 158.375 137.918ZM155.235 137.861C157.432 141.314 158.46 144.53 158.97 146.668C157.704 144.212 156.299 141.646 154.736 138.997C153.291 136.542 151.843 134.236 150.415 132.08C151.822 133.386 153.595 135.286 155.235 137.861ZM123.824 121.627C122.368 118.947 121.617 116.459 121.21 114.584C122.399 116.879 123.713 119.264 125.167 121.717C126.738 124.364 128.318 126.834 129.877 129.127C128.179 127.662 125.776 125.222 123.824 121.627Z" fill="#2E2EED"/>
<path d="M175.476 406.274C170.789 402.328 162.767 401.762 160.678 404.732C158.07 408.441 167.435 414.437 166.473 421.134C165.159 430.289 145.775 432.729 97.3925 441.917C62.9768 448.454 44.2976 452.63 35.2521 442.416C30.8214 437.413 30.0677 430.461 25.2066 429.915C19.3478 429.258 11.1347 437.977 12.3256 444.434C13.9687 453.328 33.3312 457.228 55.502 461.692C82.2133 467.071 92.0495 465.132 98.5873 473.763C103.738 480.564 99.0855 483.682 104.717 498.136C108.494 507.826 111.023 507.547 123.492 527.119C132.289 540.93 132.79 543.834 137.425 546.262C147.063 551.314 159.355 546.337 166.424 542.69C168.749 535.995 170.638 527.138 166.219 521.661C160.597 514.694 150.063 519.77 139.891 514.582C125.537 507.262 116.305 481.751 123.666 465.058C134.426 440.655 176.098 445.411 180.27 423.566C181.173 418.83 180.722 410.693 175.476 406.274ZM106.712 494.693C105.375 490.9 104.916 487.506 104.775 484.979C105.845 488.214 107.06 491.591 108.443 495.086C109.937 498.858 111.482 502.398 113.034 505.707C111.13 503.45 108.506 499.782 106.712 494.693ZM110.225 495.404C109.556 493.508 109.326 491.81 109.256 490.549C109.791 492.165 110.398 493.855 111.09 495.601C111.836 497.487 112.609 499.258 113.386 500.912C112.433 499.782 111.12 497.947 110.225 495.404ZM161.332 526.438C163.53 529.891 164.558 533.108 165.068 535.246C163.801 532.789 162.395 530.224 160.834 527.575C159.388 525.12 157.941 522.814 156.512 520.657C157.919 521.961 159.693 523.864 161.332 526.438ZM158.375 527.019C159.97 529.528 160.717 531.864 161.087 533.418C160.168 531.633 159.146 529.77 158.012 527.845C156.963 526.063 155.909 524.388 154.872 522.822C155.896 523.768 157.187 525.148 158.375 527.019ZM155.235 526.961C157.432 530.414 158.46 533.631 158.97 535.769C157.704 533.312 156.299 530.747 154.736 528.098C153.291 525.643 151.843 523.337 150.415 521.181C151.822 522.486 153.595 524.387 155.235 526.961ZM123.824 510.728C122.368 508.048 121.617 505.56 121.21 503.684C122.399 505.979 123.713 508.365 125.167 510.818C126.738 513.465 128.318 515.935 129.877 518.227C128.179 516.762 125.776 514.323 123.824 510.728Z" fill="#2E2EED"/>
</svg>
