<svg width="193" height="50" viewBox="0 0 193 50" fill="none" xmlns="http://www.w3.org/2000/svg">
<path d="M0.168359 39.9782C0.879209 40.4866 1.49653 40.7407 2.02031 40.7407C2.54409 40.7407 2.97434 40.3776 3.31106 39.6514C3.68519 38.9252 3.89097 37.6362 3.92838 35.7843L4.65793 2.77778H18.4073V40.8497H14.0299V3.10458H8.97915L8.30571 32.9521C8.23089 35.748 7.6884 37.854 6.67824 39.2701C5.7055 40.65 4.48958 41.3399 3.03046 41.3399C2.02031 41.3399 1.01015 40.9949 0 40.305L0.168359 39.9782Z" fill="white"/>
<path d="M30.0411 38.2898H29.9289C29.4051 40.3232 28.4137 41.3399 26.9546 41.3399C26.3185 41.3399 25.7012 41.1765 25.1026 40.8497C24.504 40.5592 23.9802 40.1779 23.5312 39.7059C23.0823 39.1975 22.7082 38.6166 22.4089 37.963C22.147 37.3094 22.016 36.6376 22.016 35.9477V18.9543C22.016 18.228 22.147 17.5381 22.4089 16.8845C22.6707 16.2309 23.0262 15.65 23.4751 15.1416C23.9241 14.6333 24.4292 14.2338 24.9904 13.9434C25.589 13.6166 26.2063 13.4532 26.8423 13.4532C27.5906 13.4532 28.2079 13.7073 28.6943 14.2157C29.1806 14.6877 29.5922 15.5047 29.9289 16.6667H30.0411V13.8889H34.0818V40.8497H30.0411V38.2898ZM30.0411 19.1721C30.0411 18.4822 29.9663 17.8286 29.8167 17.2113C29.7044 16.594 29.5361 16.0494 29.3116 15.5773C29.0871 15.1053 28.8252 14.724 28.5259 14.4336C28.2266 14.1431 27.9086 13.9978 27.5719 13.9978C26.6365 13.9978 26.1689 14.9237 26.1689 16.7756V38.0719C26.1689 39.8511 26.6365 40.7407 27.5719 40.7407C28.2453 40.7407 28.8252 40.2505 29.3116 39.2701C29.798 38.2898 30.0411 37.1097 30.0411 35.7298V19.1721Z" fill="white"/>
<path d="M38.0294 31.5904V16.122C38.0294 13.5802 38.1604 11.4924 38.4223 9.85839C38.6842 8.18809 39.1144 6.82644 39.713 5.77342C40.3116 4.6841 41.0786 3.84895 42.0139 3.26797C42.9492 2.65069 44.1091 2.14234 45.4933 1.74292L51.2175 0L51.2737 0.3268L45.6056 2.01525C44.8573 2.26943 44.2587 2.59622 43.8097 2.99564C43.3608 3.39506 43.0241 4.01235 42.7996 4.8475C42.5751 5.64633 42.4255 6.73566 42.3506 8.11547C42.2758 9.45897 42.2384 11.2019 42.2384 13.3442V16.8845C42.6125 16.3762 43.2298 15.9586 44.0904 15.6318C44.9509 15.305 45.8114 15.1416 46.6719 15.1416C48.3554 15.1416 49.7023 15.8678 50.7125 17.3203C51.7226 18.7364 52.2277 20.915 52.2277 23.8562V31.2092C52.2277 34.4045 51.5543 36.8918 50.2074 38.671C48.8605 40.4503 47.1582 41.3399 45.1005 41.3399C43.0802 41.3399 41.3966 40.4866 40.0497 38.78C38.7029 37.037 38.0294 34.6405 38.0294 31.5904ZM42.2384 17.3747V36.8192C42.2384 38.1627 42.5377 39.1975 43.1363 39.9237C43.7349 40.65 44.4084 41.0131 45.1566 41.0131C45.9049 41.0131 46.5596 40.6681 47.1208 39.9782C47.7194 39.252 48.0187 38.199 48.0187 36.8192V20.4248C48.0187 18.8998 47.7194 17.756 47.1208 16.9935C46.5596 16.2309 45.8862 15.8497 45.1005 15.8497C44.5767 15.8497 44.0342 15.9949 43.473 16.2854C42.9492 16.5396 42.5377 16.9027 42.2384 17.3747Z" fill="white"/>
<path d="M67.0192 13.3987C68.8898 13.3987 70.6109 13.7618 72.1822 14.488C73.7536 15.1779 75.1191 16.1402 76.2789 17.3747C77.4762 18.6093 78.3928 20.0799 79.0288 21.7865C79.7022 23.4931 80.039 25.3268 80.039 27.2876C80.039 29.2847 79.7022 31.1365 79.0288 32.8431C78.3554 34.5497 77.42 36.0385 76.2228 37.3094C75.0256 38.5439 73.6039 39.5243 71.9577 40.2505C70.349 40.9768 68.6092 41.3399 66.7386 41.3399C64.9053 41.3399 63.2218 40.9949 61.6878 40.305C60.1539 39.6151 58.8257 38.671 57.7033 37.4728C56.5809 36.2382 55.7017 34.7676 55.0657 33.061C54.4671 31.3544 54.1678 29.5025 54.1678 27.5054C54.1678 25.472 54.4858 23.602 55.1218 21.8954C55.7578 20.1525 56.6558 18.6638 57.8156 17.4292C58.9754 16.1583 60.3409 15.1779 61.9123 14.488C63.4836 13.7618 65.1859 13.3987 67.0192 13.3987ZM67.1314 13.7255C65.822 13.7255 64.6247 14.0523 63.5398 14.7059C62.4922 15.3232 61.5943 16.2309 60.846 17.4292C60.0978 18.5911 59.5179 20.0254 59.1063 21.732C58.7322 23.4023 58.5451 25.2905 58.5451 27.3965C58.5451 31.6086 59.3121 34.931 60.846 37.3638C62.38 39.7967 64.4751 41.0131 67.1314 41.0131C69.7878 41.0131 71.8642 39.8148 73.3607 37.4183C74.8947 35.0218 75.6616 31.6812 75.6616 27.3965C75.6616 23.1481 74.8947 19.8076 73.3607 17.3747C71.8642 14.9419 69.7878 13.7255 67.1314 13.7255Z" fill="white"/>
<path d="M82.421 13.9434H86.4616V16.5033H86.5738C87.0976 14.4699 88.0891 13.4532 89.5482 13.4532C90.1842 13.4532 90.8015 13.6166 91.4001 13.9434C91.9987 14.2338 92.5225 14.6333 92.9715 15.1416C93.4204 15.6137 93.7759 16.1765 94.0378 16.8301C94.3371 17.4837 94.4867 18.1554 94.4867 18.8453V35.7843C94.4867 36.5105 94.3558 37.2004 94.0939 37.854C93.832 38.5076 93.4766 39.0886 93.0276 39.5969C92.5786 40.1053 92.0549 40.5229 91.4562 40.8497C90.8576 41.1402 90.2403 41.2854 89.6043 41.2854C88.856 41.2854 88.2387 41.0494 87.7523 40.5773C87.3034 40.069 86.9106 39.2338 86.5738 38.0719H86.4616V50H82.421V13.9434ZM86.4616 35.5665C86.4616 36.2564 86.5177 36.91 86.6299 37.5272C86.7796 38.1445 86.9667 38.6892 87.1911 39.1612C87.453 39.6333 87.7336 40.0145 88.0329 40.305C88.3323 40.5955 88.6503 40.7407 88.987 40.7407C89.8849 40.7407 90.3338 39.8148 90.3338 37.963V16.7211C90.3338 14.9056 89.8662 13.9978 88.9309 13.9978C88.2574 13.9978 87.6775 14.5062 87.1911 15.5229C86.7048 16.5033 86.4616 17.6834 86.4616 19.0632V35.5665Z" fill="white"/>
<path d="M105.781 38.2898H105.669C105.145 40.3232 104.153 41.3399 102.694 41.3399C102.058 41.3399 101.441 41.1765 100.842 40.8497C100.244 40.5592 99.7199 40.1779 99.2709 39.7059C98.822 39.1975 98.4478 38.6166 98.1485 37.963C97.8866 37.3094 97.7557 36.6376 97.7557 35.9477V18.9543C97.7557 18.228 97.8866 17.5381 98.1485 16.8845C98.4104 16.2309 98.7658 15.65 99.2148 15.1416C99.6637 14.6333 100.169 14.2338 100.73 13.9434C101.329 13.6166 101.946 13.4532 102.582 13.4532C103.33 13.4532 103.948 13.7073 104.434 14.2157C104.92 14.6877 105.332 15.5047 105.669 16.6667H105.781V13.8889H109.821V40.8497H105.781V38.2898ZM105.781 19.1721C105.781 18.4822 105.706 17.8286 105.556 17.2113C105.444 16.594 105.276 16.0494 105.051 15.5773C104.827 15.1053 104.565 14.724 104.266 14.4336C103.966 14.1431 103.648 13.9978 103.312 13.9978C102.376 13.9978 101.909 14.9237 101.909 16.7756V38.0719C101.909 39.8511 102.376 40.7407 103.312 40.7407C103.985 40.7407 104.565 40.2505 105.051 39.2701C105.538 38.2898 105.781 37.1097 105.781 35.7298V19.1721Z" fill="white"/>
<path d="M124.432 14.2157H120.447V40.8497H116.463V14.2157H112.478V13.8889H124.432V14.2157Z" fill="white"/>
<path d="M137.388 13.3987C139.259 13.3987 140.98 13.7618 142.551 14.488C144.122 15.1779 145.488 16.1402 146.648 17.3747C147.845 18.6093 148.762 20.0799 149.398 21.7865C150.071 23.4931 150.408 25.3268 150.408 27.2876C150.408 29.2847 150.071 31.1365 149.398 32.8431C148.724 34.5497 147.789 36.0385 146.592 37.3094C145.394 38.5439 143.973 39.5243 142.327 40.2505C140.718 40.9768 138.978 41.3399 137.107 41.3399C135.274 41.3399 133.591 40.9949 132.057 40.305C130.523 39.6151 129.195 38.671 128.072 37.4728C126.95 36.2382 126.071 34.7676 125.435 33.061C124.836 31.3544 124.537 29.5025 124.537 27.5054C124.537 25.472 124.855 23.602 125.491 21.8954C126.127 20.1525 127.025 18.6638 128.184 17.4292C129.344 16.1583 130.71 15.1779 132.281 14.488C133.852 13.7618 135.555 13.3987 137.388 13.3987ZM137.5 13.7255C136.191 13.7255 134.994 14.0523 133.909 14.7059C132.861 15.3232 131.963 16.2309 131.215 17.4292C130.467 18.5911 129.887 20.0254 129.475 21.732C129.101 23.4023 128.914 25.2905 128.914 27.3965C128.914 31.6086 129.681 34.931 131.215 37.3638C132.749 39.7967 134.844 41.0131 137.5 41.0131C140.157 41.0131 142.233 39.8148 143.73 37.4183C145.263 35.0218 146.03 31.6812 146.03 27.3965C146.03 23.1481 145.263 19.8076 143.73 17.3747C142.233 14.9419 140.157 13.7255 137.5 13.7255Z" fill="white"/>
<path d="M152.79 13.9434H156.83V16.5033H156.943C157.466 14.4699 158.458 13.4532 159.917 13.4532C160.553 13.4532 161.17 13.6166 161.769 13.9434C162.368 14.2338 162.891 14.6333 163.34 15.1416C163.789 15.6137 164.145 16.1765 164.407 16.8301C164.706 17.4837 164.856 18.1554 164.856 18.8453V35.7843C164.856 36.5105 164.725 37.2004 164.463 37.854C164.201 38.5076 163.845 39.0886 163.396 39.5969C162.947 40.1053 162.424 40.5229 161.825 40.8497C161.226 41.1402 160.609 41.2854 159.973 41.2854C159.225 41.2854 158.608 41.0494 158.121 40.5773C157.672 40.069 157.279 39.2338 156.943 38.0719H156.83V50H152.79V13.9434ZM156.83 35.5665C156.83 36.2564 156.887 36.91 156.999 37.5272C157.148 38.1445 157.335 38.6892 157.56 39.1612C157.822 39.6333 158.102 40.0145 158.402 40.305C158.701 40.5955 159.019 40.7407 159.356 40.7407C160.254 40.7407 160.703 39.8148 160.703 37.963V16.7211C160.703 14.9056 160.235 13.9978 159.3 13.9978C158.626 13.9978 158.046 14.5062 157.56 15.5229C157.074 16.5033 156.83 17.6834 156.83 19.0632V35.5665Z" fill="white"/>
<path d="M179.189 13.8889V40.8497H178.853V14.9237H178.74L169.312 40.8497H168.021V13.8889H168.358V32.4619H168.47L174.924 13.8889H179.189Z" fill="white"/>
<path d="M193 40.8497H188.959V27.5599H188.286C187.874 27.5599 187.556 27.7415 187.332 28.1046C187.145 28.4314 186.995 29.0668 186.883 30.0109L185.592 40.8497H181.552L182.73 31.1547C182.88 30.1017 183.235 29.2484 183.796 28.5948C184.395 27.9049 185.181 27.5418 186.153 27.5054V27.3965C184.844 27.1786 183.834 26.634 183.123 25.7625C182.412 24.8548 182.057 23.7291 182.057 22.3856V19.1176C182.057 17.5563 182.506 16.3036 183.404 15.3595C184.301 14.3791 185.461 13.8889 186.883 13.8889H193V40.8497ZM186.041 23.3115C186.041 24.8366 186.153 25.8715 186.378 26.4161C186.64 26.9608 187.126 27.2331 187.837 27.2331H188.959V14.2157H187.837C187.126 14.2157 186.64 14.5062 186.378 15.0871C186.153 15.6318 186.041 16.6848 186.041 18.2462V23.3115Z" fill="white"/>
</svg>
