<svg width="295" height="140" viewBox="0 0 295 140" fill="none" xmlns="http://www.w3.org/2000/svg">
<path d="M182.048 73.2592C181.512 63.6126 189.547 59.4942 187.639 53.7588C186.913 51.5768 184.647 48.8541 177.493 47.0167C174.803 46.3942 171.357 45.1076 169.832 42.1414C168.081 38.7385 170.394 36.1128 168.797 33.4286C166.027 28.7766 155.361 30.4108 153.267 30.7311C145.171 31.9722 144.058 34.707 136.702 36.9547C122.767 41.2136 116.242 34.5756 110.981 39.6016C106.055 44.3082 107.284 54.4207 109.784 60.3967C112.632 67.2034 116.285 66.3383 118.274 72.2213C121.707 82.3742 112.989 88.4988 116.824 96.9084C119.065 101.821 124.794 105.774 129.454 105.207C133.711 104.688 134.247 100.744 141.05 98.1535C143.603 97.1812 147.518 95.6905 151.195 97.1166C156.245 99.0742 155.278 104.369 159.685 106.867C166.053 110.476 178.546 105.359 182.875 96.7022C185.066 92.322 184.856 87.6589 184.738 85.0848C184.452 78.6975 182.319 78.1224 182.048 73.2592ZM174.545 48.6449C176.202 47.1208 183.624 50.2397 183.765 54.1337C183.808 55.3212 183.169 56.4461 182.362 57.0787C180.51 58.53 177.336 57.7326 175.814 56.0074C175.049 55.1403 174.832 54.1863 174.545 52.928C174.183 51.3393 173.738 49.3877 174.545 48.6449ZM169.623 44.5356C171.438 46.5033 173.126 46.4134 173.193 47.4564C173.27 48.6701 171.054 49.8597 169.444 50.2579C168.632 50.459 166.311 51.034 164.803 49.602C162.971 47.8616 164.035 44.768 164.208 44.2971C164.706 42.9357 165.955 41.0428 167.123 41.1974C168.105 41.3268 167.984 42.7599 169.623 44.5356ZM121.69 80.6127C120.693 79.9659 121.385 77.0997 121.648 76.0102C121.922 74.8762 122.077 74.2335 122.617 73.5614C124.225 71.5603 127.177 71.8706 127.548 71.915C127.789 71.9444 130.769 72.3294 131.046 73.7302C131.243 74.7236 129.719 75.8414 126.663 78.0365C123.834 80.0689 122.404 81.0766 121.69 80.6127ZM125.271 89.8773C124.599 91.0789 121.092 91.1568 119.856 89.47C119.479 88.9546 119.439 88.2845 119.375 86.9656C119.248 84.3177 119.176 82.8179 120.144 82.1984C121.1 81.5859 122.772 82.0205 123.556 82.9685C124.148 83.683 123.86 84.2348 124.229 86.051C124.755 88.6291 125.669 89.1658 125.271 89.8773ZM150.94 49.508C151.337 49.1553 152.24 49.605 152.391 49.6858C153.45 50.2528 153.972 51.5242 154.02 52.5935C154.078 53.9437 153.46 55.7123 152.332 55.9458C151.768 56.062 151.045 55.8023 150.822 55.3232C150.589 54.822 151.06 54.4167 151.296 53.5728C151.846 51.6061 150.339 50.0446 150.94 49.508ZM158.124 57.9257C157.216 58.6796 155.219 60.3411 154.301 59.758C153.769 59.4194 153.779 58.4391 154.219 55.8447C155.239 49.8233 155.75 46.8136 157.709 45.9363C158.992 45.3623 160.704 45.5371 161.698 46.4356C163.28 47.8647 162.581 50.7056 162.28 51.9315C161.494 55.1241 159.322 56.9312 158.124 57.9257ZM161.365 64.0269C161.61 64.5565 162.551 66.5889 161.817 67.2964C160.91 68.1706 158.866 65.9714 155.441 66.1392C152.6 66.2787 151.518 68.5991 149.798 67.8947C148.904 67.5278 148.171 66.5323 148.32 65.7713C148.503 64.8274 149.933 64.796 152.077 63.7248C155.447 62.04 155.565 60.143 157.298 60.3542C159.81 60.6625 161.009 63.2578 161.365 64.0269ZM152.917 59.7115C152.9 61.9885 150.121 63.9279 149.005 63.4044C147.961 62.9142 148.14 60.1572 148.949 58.3491C149.234 57.7104 149.725 56.6159 150.537 56.531C151.618 56.4178 152.929 58.1349 152.917 59.7115ZM150.072 52.2519C149.929 53.1837 149.615 55.2555 148.249 55.7012C147.016 56.1035 145.706 54.925 144.893 54.1943C144.376 53.7294 143.296 52.7582 143.157 51.2665C143.127 50.938 143.064 50.269 143.446 49.6434C143.603 49.3877 143.981 48.8955 145.472 48.4549C147.242 47.9314 148.413 47.5857 149.291 48.2234C150.546 49.135 150.21 51.3423 150.072 52.2519ZM146.511 56.3602C147.499 57.2607 147.413 58.7726 147.248 61.6428C147.151 63.3357 146.979 66.3393 146.001 66.5283C145.223 66.6779 144.79 64.8799 142.372 61.9834C140.229 59.4154 139.115 59.0889 139.254 58.1773C139.533 56.3369 144.538 54.5622 146.511 56.3602ZM140.9 54.925C140.16 55.961 138.679 56.7735 137.687 56.3561C136.852 56.0054 137.085 55.0888 136.02 53.7325C134.855 52.2488 134.065 52.6956 133.283 51.5262C132.161 49.8516 132.846 47.5382 133.342 45.8616C133.74 44.5144 133.988 43.6098 134.711 43.3572C135.832 42.966 137.239 44.4244 138.222 45.4442C138.892 46.1385 140.355 47.6928 141.019 50.274C141.423 51.8405 141.879 53.5546 140.9 54.925ZM134.793 56.1409C134.477 57.7468 129.915 59.1748 128.046 57.3375C127.397 56.6987 126.991 55.585 127.33 54.7057C127.915 53.1888 130.564 52.7572 132.405 53.5091C133.531 53.969 134.991 55.1322 134.793 56.1409ZM128.048 60.0126C129.941 57.6457 136.862 60.5645 137.54 60.8535C138.053 61.0728 141.903 62.7171 141.667 63.937C141.568 64.4494 140.78 64.7213 139.4 65.0346C133.912 66.2827 131.043 66.9174 129.156 65.1174C127.744 63.7712 127.103 61.1951 128.048 60.0126ZM126.708 81.0877C128.098 77.8789 131.464 75.0693 135.066 75.2441C136.371 75.3078 138.808 75.807 139.174 77.2088C139.612 78.8865 136.894 79.7081 134.599 83.5708C132.266 87.4972 132.935 90.2532 131.05 90.8687C129.573 91.3508 127.841 89.9763 127.035 88.998C124.625 86.0712 126.455 81.6698 126.708 81.0877ZM137.072 73.9495C135.158 74.188 133.143 73.1602 132.212 71.5694C132.031 71.2591 131.229 69.8897 131.781 68.8103C132.183 68.022 133.135 67.7219 135.021 67.4581C138.37 66.9891 142.509 66.408 143.066 67.8371C143.385 68.6537 142.385 69.7512 141.122 71.1368C139.757 72.6356 138.749 73.7413 137.072 73.9495ZM143.413 70.199C145.582 68.7558 148.787 68.3687 149.45 69.4511C149.896 70.1777 148.776 70.8822 147.832 73.8787C147.037 76.4054 147.342 77.4655 146.401 78.0568C145.126 78.8582 143.214 77.7606 142.977 77.6201C142.818 77.5262 140.738 76.2517 140.737 74.0657C140.735 71.9817 142.624 70.7245 143.413 70.199ZM149.173 76.3255C149.971 75.6817 151.017 76.7237 154.936 77.8405C159.393 79.1098 160.87 78.5681 162.116 80.1124C163.098 81.3302 163.517 83.3263 162.683 84.5613C161.969 85.6184 160.574 85.767 159.281 85.8862C157.902 86.0136 153.442 86.4249 150.684 83.2363C148.73 80.9755 147.968 77.2967 149.173 76.3255ZM162.115 78.1245C161.166 78.3104 160.476 77.5504 159.375 76.7995C155.065 73.8555 151.27 75.7757 150.287 73.8161C149.442 72.1354 151.238 68.7396 153.896 67.8078C155.93 67.0943 157.763 68.0766 159.753 69.1327C161.542 70.0827 164.097 71.438 164.382 73.8656C164.593 75.6534 163.55 77.8435 162.115 78.1245ZM161.986 62.0511C160.988 61.753 160.587 60.4594 160.514 60.2269C159.81 57.962 161.681 55.5961 162.839 54.1317C163.689 53.0564 164.114 52.5187 164.827 52.1397C167.82 50.5479 172.664 52.7481 172.761 54.5774C172.826 55.8104 170.622 55.7619 166.414 59.284C164.364 61.0011 163.209 62.417 161.986 62.0511ZM164.152 34.8C164.768 33.7601 165.995 32.4897 166.955 32.7646C167.7 32.9778 167.995 34.041 168.146 34.5898C168.743 36.7516 167.609 38.6708 167.551 38.7668C166.565 40.3788 165.641 39.9129 164.538 41.6451C163.654 43.0328 163.737 44.1344 162.892 44.383C162.352 44.5416 161.606 44.3031 161.35 43.8211C160.898 42.9721 162.358 42.107 163.172 39.8553C164.025 37.4893 163.073 36.6242 164.152 34.8ZM154.304 40.1423C154.46 38.7719 154.922 38.7314 155.307 36.9982C155.938 34.1552 154.95 33.1223 155.699 32.1511C157.013 30.4492 162.061 31.0172 163.022 33.2426C163.408 34.137 162.916 35.4104 161.932 37.9593C161.579 38.8749 161.188 39.6471 160.407 41.1914C159.521 42.9418 159.174 43.435 158.707 43.8989C158.09 44.5123 157.166 45.429 156.266 45.2531C154.908 44.9853 154.058 42.3192 154.304 40.1423ZM154.698 45.4735C155.266 46.7438 154.892 48.6196 153.82 49.0886C153.017 49.4392 152.104 48.8783 151.334 48.4043C150.958 48.1739 148.825 46.8065 148.749 44.6427C148.734 44.2233 148.711 43.5583 149.14 43.1773C149.897 42.5032 151.491 43.2389 152.309 43.6169C153.424 44.1313 154.274 44.5245 154.698 45.4735ZM148.116 34.5807C148.577 32.9283 151.502 31.576 152.991 32.4806C154.703 33.5205 153.808 37.1144 153.43 38.6354C153.18 39.642 152.547 42.1828 151.284 42.299C150.233 42.396 149.304 40.7598 149.236 40.6385C148.736 39.735 148.964 39.3105 148.603 37.268C148.253 35.2851 147.949 35.178 148.116 34.5807ZM143.715 35.6156C144.303 35.086 145.247 34.7444 145.96 35.0264C147.281 35.5489 147.35 38.028 147.404 39.9543C147.47 42.3324 147.536 44.671 145.907 46.4882C145.538 46.9005 144.147 48.4508 142.485 48.1486C140.622 47.8091 139.399 45.3219 139.865 43.7028C140.212 42.4991 141.218 42.7316 142.164 41.2924C143.636 39.0559 142.201 36.979 143.715 35.6156ZM132.596 39.1509C133.806 38.3686 134.869 38.2483 136.284 38.026C140.522 37.359 141.384 36.7971 141.791 37.3297C142.311 38.0098 141.527 39.734 140.455 40.7578C137.49 43.5856 131.3 42.0261 131.1 40.7042C131.018 40.1706 131.9 39.6006 132.596 39.1509ZM121.445 40.3525C123.224 38.7365 127.053 39.7603 129.229 41.7866C131.338 43.7493 132.577 47.2856 131.198 49.9446C130.477 51.3322 128.841 52.8714 127.529 52.544C126.004 52.164 126.645 49.6929 124.308 46.9854C122.492 44.8832 120.711 44.7589 120.461 43.0408C120.313 42.0322 120.768 40.967 121.445 40.3525ZM111.623 42.2909C113.35 39.9897 116.76 38.9164 118.09 40.0139C119.468 41.1499 117.51 43.6988 119.161 46.2951C120.144 47.8384 121.196 47.5039 123.18 49.5696C124.401 50.841 126.171 53.2261 125.591 54.0256C125.176 54.5966 123.807 54.0155 117.608 51.8779C112.574 50.1427 111.658 49.8981 110.965 48.7106C109.857 46.8126 110.258 44.1101 111.623 42.2909ZM115.286 62.7697C112.169 62.041 110.777 57.6599 110.43 56.5663C110.092 55.5031 108.954 51.9214 110.242 51.0128C111.613 50.0456 113.832 53.4455 120.388 56.0954C123.853 57.4961 126.162 57.7306 126.495 59.2961C126.745 60.4725 125.783 61.946 124.616 62.4968C123.345 63.0971 122.553 62.2593 120.159 62.1522C117.284 62.0238 116.992 63.1689 115.286 62.7697ZM115.879 64.8496C116.174 63.8612 119.123 63.745 121.328 64.0967C125.142 64.7041 129.518 67.1519 129.219 68.8972C128.945 70.5062 124.65 71.7958 121.797 70.4971C121.295 70.2687 120.68 69.7482 119.449 68.7083C116.935 66.5849 115.678 65.5227 115.879 64.8496ZM131.144 101.628C130.127 102.341 128.857 102.052 127.503 101.722C122.91 100.605 120.368 97.3066 120.032 96.8568C119.742 96.4687 117.193 93.0073 118.164 91.8046C118.631 91.2255 119.576 91.5903 121.899 91.8046C126.846 92.2614 127.542 91.0678 129.37 92.0856C131.525 93.2852 132.442 95.9927 132.451 97.9797C132.454 98.7235 132.463 100.704 131.144 101.628ZM140.01 95.5996C138.462 97.4339 135.436 98.3617 134.173 97.3076C132.963 96.2969 133.698 93.7349 134.829 89.949C135.112 89.0021 138.281 78.3994 141.124 78.7804C141.97 78.8936 142.468 79.9345 142.764 80.5541C143.927 82.9857 142.46 84.6724 141.387 90.2775C140.744 93.6339 141.003 94.4222 140.01 95.5996ZM154.174 94.4828C153.652 95.1013 152.929 94.972 147.616 94.5485C143.849 94.2483 143.35 94.2443 142.939 93.7167C142.001 92.511 143.391 90.9668 144.404 86.1389C145.151 82.5764 144.909 80.9583 145.781 80.6854C146.541 80.4469 147.614 81.6769 149.78 84.1014C151.529 86.0601 152.456 87.1142 153.255 88.8323C153.959 90.3432 155.277 93.1771 154.174 94.4828ZM178.743 93.837C176.586 97.3652 170.764 104.314 165.044 102.735C162.678 102.081 161.163 100.197 159.093 97.6239C157.106 95.1529 155.947 93.7117 156.258 92.1341C157.018 88.2966 165.765 87.3113 166.65 87.2122C167.614 87.1041 169.403 87.1718 172.98 87.3072C178.719 87.5245 179.707 87.8914 180.16 88.6322C181.043 90.0744 179.596 92.4403 178.743 93.837ZM180.727 84.5603C179.894 85.6578 178.229 85.0322 171.846 84.4653C167.447 84.0752 166.324 84.2015 165.421 83.1403C164.035 81.5101 164.705 78.8814 165.043 77.5555C166.029 73.6887 169.425 68.782 173.357 69.1317C175.336 69.3076 176.704 70.7488 177.325 71.4037C178.094 72.2142 178.704 73.1955 180.254 80.0174C181.072 83.6143 181.075 84.1014 180.727 84.5603ZM179.324 67.6501C176.722 69.1145 174.436 65.927 170.854 67.2863C168.323 68.2474 167.681 70.5163 165.772 70.1959C164.784 70.0292 163.825 69.2308 163.474 68.2565C163.398 68.0473 163.109 67.161 163.716 65.7107C164.77 63.1891 168.571 58.8585 174.242 58.6796C175.544 58.6382 180.078 58.4957 181.38 61.3467C182.338 63.4418 181.273 66.5525 179.324 67.6501Z" fill="#F36B9D"/>
<path d="M163.399 121.389C163.165 121.411 162.29 121.506 161.557 122.189C160.232 123.426 160.63 125.416 160.699 125.757C160.809 126.306 161.097 127.743 162.326 128.351C163.666 129.014 165.297 128.286 166.186 127.356C166.272 127.265 167.784 125.63 167.094 123.676C166.525 122.064 164.819 121.256 163.399 121.389Z" fill="#F36B9D"/>
<path d="M164.14 111.913C162.219 111.878 157.114 111.782 153.162 115.358C148.135 119.908 149.245 126.452 149.388 127.184C149.932 129.96 151.272 132.396 153.264 134.226C155.909 136.656 159.822 138.101 164.001 138.191C168.177 138.281 172.026 137.003 174.557 134.688C177.469 132.026 178.115 128.553 178.391 127.071C178.717 125.314 179.484 121.2 176.987 117.498C175.626 115.476 172.143 112.062 164.14 111.913ZM175.723 117.743C175.774 117.822 174.457 118.753 174.241 118.906C173.103 119.71 172.158 120.202 171.769 120.398C171.357 120.605 169.984 121.277 169.939 121.192C169.843 121.016 175.619 117.58 175.723 117.743ZM174.009 115.224C174.078 115.289 173.036 116.521 172.866 116.722C171.966 117.786 171.173 118.501 170.846 118.787C170.499 119.091 169.338 120.086 169.273 120.015C169.136 119.87 173.867 115.093 174.009 115.224ZM172.072 114.498C172.138 114.544 171.408 115.696 171.289 115.884C170.66 116.878 170.08 117.568 169.84 117.846C169.584 118.141 168.728 119.108 168.666 119.056C168.533 118.95 171.938 114.405 172.072 114.498ZM165.97 116.667C166.192 115.526 166.478 114.683 166.599 114.342C166.728 113.979 167.167 112.78 167.243 112.805C167.403 112.855 165.905 118.26 165.748 118.223C165.672 118.204 165.928 116.883 165.97 116.667ZM164.869 112.54C165.035 112.548 164.959 118.157 164.799 118.161C164.72 118.163 164.633 116.82 164.619 116.6C164.543 115.44 164.605 114.553 164.636 114.191C164.669 113.806 164.79 112.536 164.869 112.54ZM155.905 114.898C156.054 114.784 160.009 119.688 159.872 119.807C159.806 119.866 158.768 118.767 158.598 118.587C157.703 117.638 157.12 116.827 156.887 116.492C156.64 116.138 155.834 114.952 155.905 114.898ZM154.215 116.216C154.316 116.084 158.853 119.373 158.764 119.507C158.721 119.573 157.574 118.871 157.386 118.757C156.395 118.152 155.706 117.59 155.429 117.356C155.134 117.109 154.166 116.279 154.215 116.216ZM151.322 121.237C151.355 121.052 157.595 121.977 157.576 122.157C157.567 122.246 156.056 122.142 155.809 122.125C154.505 122.035 153.525 121.833 153.126 121.745C152.703 121.652 151.305 121.325 151.322 121.237ZM152.329 127.645C152.333 127.489 157.532 127.443 157.539 127.592C157.543 127.665 156.301 127.775 156.097 127.792C155.024 127.886 154.199 127.848 153.864 127.827C153.507 127.805 152.327 127.719 152.329 127.645ZM152.252 130.36C152.186 130.184 158.025 127.782 158.1 127.947C158.137 128.028 156.786 128.712 156.565 128.824C155.398 129.416 154.452 129.744 154.063 129.872C153.652 130.008 152.284 130.444 152.252 130.36ZM157.277 129.54C156.354 130.349 155.57 130.869 155.247 131.076C154.906 131.296 153.763 132.012 153.715 131.943C153.614 131.799 158.361 128.252 158.468 128.385C158.521 128.448 157.452 129.386 157.277 129.54ZM161.969 132.408C161.723 133.612 161.413 134.501 161.282 134.862C161.142 135.245 160.665 136.507 160.586 136.482C160.418 136.427 162.053 130.726 162.219 130.767C162.299 130.786 162.015 132.18 161.969 132.408ZM163.01 134.633C162.948 134.906 162.734 135.81 162.678 135.8C162.559 135.778 163.172 131.745 163.288 131.758C163.345 131.764 163.274 132.741 163.262 132.9C163.2 133.742 163.067 134.376 163.01 134.633ZM166.009 131.072C165.002 131.384 164.312 129.684 162.752 129.715C161.686 129.735 161.305 130.541 160.721 130.27C159.961 129.916 160.533 128.517 159.578 127.516C158.728 126.625 157.606 127.033 157.339 126.353C157.03 125.57 158.48 124.942 158.564 123.455C158.647 121.977 157.306 120.983 157.617 120.626C158.001 120.186 159.969 121.782 160.666 121.209C161.363 120.636 160.16 118.422 160.689 118.098C161.048 117.878 161.619 118.892 162.91 119.449C165.118 120.401 167.174 119.042 167.759 119.926C168.123 120.475 167.356 121.046 167.744 121.999C168.126 122.939 169.065 122.857 169.36 123.762C169.595 124.483 169.062 124.726 169.074 125.715C169.094 127.321 170.516 127.986 170.199 128.654C169.877 129.332 168.412 128.659 167.18 129.678C166.416 130.31 166.588 130.892 166.009 131.072ZM172.959 135.063C172.889 135.127 171.757 133.98 171.573 133.792C170.596 132.801 169.956 131.948 169.7 131.596C169.429 131.224 168.542 129.978 168.618 129.919C168.774 129.796 173.101 134.933 172.959 135.063ZM177.405 126.504C177.399 126.599 175.789 126.562 175.525 126.556C174.134 126.525 173.082 126.357 172.654 126.284C172.2 126.205 170.698 125.927 170.711 125.832C170.738 125.634 177.417 126.311 177.405 126.504ZM177.555 123.674C177.576 123.767 176.016 124.176 175.761 124.243C174.414 124.597 173.356 124.725 172.924 124.772C172.465 124.821 170.944 124.968 170.931 124.873C170.903 124.674 177.515 123.485 177.555 123.674Z" fill="#F36B9D"/>
<path d="M179.675 117.548C175.111 108.844 162.354 107.36 154.665 111.669C153.308 112.429 148.082 115.627 146.656 122.078C146.465 122.939 145.362 128.309 148.403 133.103C154.219 142.272 169.115 139.755 170.803 139.47C172.566 139.172 173.567 138.993 174.791 138.304C180.603 135.035 183.46 124.768 179.675 117.548ZM174.973 135.084C172.33 137.502 168.328 138.835 163.997 138.742C163.49 138.731 162.987 138.7 162.49 138.652C158.735 138.283 155.285 136.85 152.855 134.617C150.774 132.705 149.374 130.166 148.808 127.276C148.659 126.515 147.504 119.706 152.75 114.959C156.874 111.226 162.155 111.325 164.143 111.361C170.281 111.475 175.019 113.551 177.484 117.207C180.104 121.09 179.31 125.352 178.971 127.171C178.711 128.574 178.017 132.3 174.973 135.084Z" fill="#F36B9D"/>
<path d="M211.54 107.756C212.427 107.366 212.2 105.205 212.185 105.079C212.13 104.59 211.9 102.572 210.37 102.076C210.01 101.959 209.619 101.94 209.24 101.997C208.677 100.932 208.492 99.9685 208.691 99.1206C208.955 97.9947 209.827 97.3863 210.93 96.6162C211.45 96.2544 211.986 95.8794 212.503 95.4155C213.475 94.5423 214.321 93.3963 214.993 92.0511C216.162 91.7418 217.278 91.1365 218.332 90.24C218.371 90.243 218.408 90.2461 218.445 90.2491C219.498 90.6736 220.556 91.0596 221.615 91.4083C221.67 91.4548 221.726 91.5013 221.781 91.5518C223.772 93.3457 224.707 96.696 224.734 99.0488C224.739 99.538 224.706 100.006 224.674 100.458C224.595 101.569 224.514 102.719 224.975 104.243C225.14 104.789 225.357 105.321 225.623 105.836C224.975 106.208 224.47 106.735 224.274 107.331C223.372 110.065 228.794 114.656 230.676 113.756C231.972 113.136 231.529 109.944 231.502 109.759C231.395 109.036 230.956 106.058 228.667 105.398C228.17 105.255 227.638 105.236 227.12 105.314C226.848 104.821 226.631 104.311 226.473 103.786C226.095 102.541 226.161 101.626 226.236 100.567C226.27 100.083 226.305 99.5824 226.299 99.0286C226.276 96.9406 225.655 94.3018 224.346 92.2189C225.432 92.5079 226.518 92.7565 227.607 92.9657C228.181 95.5398 228.831 97.9907 231.138 100.495C231.722 101.129 232.363 101.712 233.058 102.242C232.51 103.07 232.248 103.981 232.492 104.732C233.514 107.872 243.476 108.527 244.535 106.13C245.129 104.786 242.899 102.535 241.579 101.566C240.797 100.992 238.102 99.0155 235.418 100.209C234.952 100.416 234.502 100.712 234.098 101.064C233.439 100.571 232.835 100.026 232.287 99.4329C230.43 97.4166 229.79 95.4459 229.278 93.2558C231.393 93.5832 233.512 93.7601 235.627 93.7854C236.281 93.7934 236.941 93.7854 237.601 93.7641C237.644 93.8511 237.699 93.9289 237.764 93.9905C238.491 94.6677 240.711 93.6237 240.7 92.9021C240.692 92.4048 239.628 92.0844 239.566 92.0662C239.346 92.0016 238.501 91.756 237.946 92.1835C237.178 92.2148 236.408 92.2269 235.645 92.2178C233.402 92.1916 231.153 91.9874 228.909 91.6084C228.411 89.3779 227.78 86.8745 226.022 84.0882C225.168 82.7349 223.282 79.7465 220.214 77.8232C220.525 77.2764 220.895 76.8873 221.388 76.7479C222.064 76.5569 222.929 76.8307 223.963 77.5624C225.086 78.3578 226.376 79.6767 227.808 81.4928C227.556 81.8355 227.398 82.2124 227.376 82.5833C227.241 84.9048 232.426 87.3566 233.707 86.2611C234.59 85.5071 233.581 83.1089 233.522 82.9694C233.289 82.4277 232.326 80.1952 230.403 80.1588C229.926 80.1497 229.446 80.277 229.014 80.4943C227.491 78.5701 226.101 77.1572 224.866 76.283C223.428 75.2652 222.115 74.9135 220.963 75.24C219.986 75.5159 219.334 76.2041 218.843 77.0794C217.935 76.6569 217.079 76.4063 216.309 76.2607C210.163 75.1025 204.909 79.8384 203.753 80.9299C203.159 81.41 202.349 82.1599 201.583 83.2322C201.583 83.2322 200.997 84.0538 200.577 84.9291C199.735 86.6825 199.658 90.3249 200.888 94.604C200.833 94.6343 200.727 94.703 200.687 94.8213C200.454 95.4903 202.518 97.1589 203.151 96.7557C203.57 96.4888 203.284 95.4125 203.267 95.3509C203.081 94.6757 202.547 93.9077 202.112 93.9754C202.055 93.9845 202.009 94.0057 201.98 94.0229C201.805 93.5428 201.638 93.0173 201.489 92.4493C201.26 91.5801 201.116 90.7716 201.027 90.047C201.152 90.5442 201.409 91.3133 201.968 92.1158C202.491 92.8677 203.075 93.3568 203.481 93.6469C203.477 93.7247 203.477 93.845 203.508 93.9855C203.656 94.6545 204.331 95.0002 204.651 95.1629C205.122 95.4034 205.597 95.6389 205.911 95.4388C206.329 95.172 206.044 94.0956 206.027 94.034C205.96 93.7904 205.685 92.7878 204.872 92.6585C204.719 92.6342 204.561 92.6433 204.408 92.6777C202.689 90.9576 201.94 88.7432 202.445 86.7957C202.459 86.7432 202.473 86.6916 202.488 86.6391C202.648 87.0848 202.826 87.5234 203.027 87.9509C203.656 89.294 204.476 90.528 205.473 91.6347C205.67 92.5675 207.662 93.4549 208.174 93.0122C208.55 92.6878 208.113 91.664 208.088 91.6044C207.987 91.3729 207.57 90.4209 206.747 90.4098C206.664 90.4088 206.583 90.4179 206.501 90.434C205.668 89.481 204.978 88.4279 204.443 87.2859C204.063 86.4733 203.764 85.6183 203.551 84.7401C203.612 84.6703 203.675 84.6016 203.739 84.5339C203.745 84.546 203.75 84.5592 203.756 84.5713C204.289 85.7436 205.478 87.9842 207.46 89.8105C209.201 91.4144 211.128 92.2633 213.071 92.2916C212.596 93.0547 212.055 93.7166 211.46 94.2503C211.014 94.6505 210.518 94.9971 210.038 95.3327C208.825 96.1796 207.57 97.0548 207.17 98.7648C206.888 99.9665 207.105 101.268 207.815 102.648C207.61 102.834 207.452 103.049 207.366 103.283C206.697 105.104 210.249 108.32 211.54 107.756ZM226.028 110.111C225.651 109.565 225.374 109.044 225.17 108.594C225.49 109.067 225.811 109.544 226.132 110.025C226.4 110.428 226.665 110.829 226.93 111.23C226.642 110.924 226.332 110.552 226.028 110.111ZM226.683 110.055C226.998 110.527 227.309 110.997 227.618 111.466C227.282 111.107 226.919 110.671 226.561 110.155C226.12 109.515 225.796 108.905 225.558 108.378C225.932 108.932 226.307 109.491 226.683 110.055ZM235.855 105.241C236.383 105.341 236.872 105.46 237.316 105.588C236.91 105.56 236.449 105.506 235.949 105.405C235.475 105.309 235.049 105.19 234.68 105.064C235.049 105.107 235.442 105.163 235.855 105.241ZM237.097 106.492C236.114 106.294 235.234 106.046 234.469 105.788C235.235 105.875 236.049 105.993 236.904 106.154C237.998 106.36 239.009 106.607 239.93 106.871C239.088 106.816 238.133 106.701 237.097 106.492ZM224.697 84.926C226.157 87.2394 226.768 89.3092 227.23 91.2931C225.603 90.9545 223.978 90.524 222.36 90.0025C221.505 89.3597 220.617 89.0262 219.72 88.8463C219.926 88.6058 220.114 88.3693 220.284 88.1429C220.518 88.3329 220.779 88.4572 221.042 88.4825C222.648 88.6381 224.484 85.0958 223.759 84.1751C223.26 83.5414 221.57 84.1792 221.472 84.2165C221.091 84.3641 219.518 84.9745 219.441 86.3126C219.435 86.4137 219.439 86.5158 219.449 86.6168C219.128 87.0969 218.687 87.6881 218.128 88.2773C218.094 88.3127 218.06 88.3461 218.027 88.3804C217.826 88.2945 217.624 88.2076 217.423 88.1187C217.083 87.9681 216.744 87.8134 216.404 87.6548C216.541 86.8271 216.608 86.0014 216.604 85.208C218.04 84.0215 218.667 82.0871 219.233 80.3407C219.351 79.9769 219.466 79.6232 219.583 79.2876C222.242 81.034 223.928 83.7062 224.697 84.926ZM216.013 77.801C216.794 77.9515 217.523 78.1981 218.202 78.5135C218.041 78.9521 217.893 79.4049 217.747 79.8546C217.374 81.0047 216.993 82.1791 216.4 83.0846C216.092 81.5676 215.448 80.3842 214.523 79.6676C213.239 78.6742 211.315 78.4771 208.957 79.0966C208.918 79.1067 208.879 79.1178 208.839 79.1289C211.306 77.805 213.713 77.3583 216.013 77.801ZM206.979 81.4858C209.791 80.1962 212.29 79.9203 213.566 80.9087C214.355 81.5191 214.869 82.7723 215.006 84.3884C214.955 84.4136 214.904 84.4379 214.85 84.4601C212.441 85.4829 209.158 83.0836 206.979 81.4858ZM215.016 86.065C214.997 86.3531 214.968 86.6441 214.93 86.9372C214.504 86.723 214.079 86.5016 213.655 86.2742C214.113 86.2682 214.568 86.2025 215.016 86.065ZM211.297 87.2869C210.439 86.7755 209.657 86.1247 208.955 85.3414C210.749 86.4784 212.559 87.5042 214.381 88.4148C213.394 88.247 212.373 87.9266 211.297 87.2869ZM207.345 87.4062C206.398 86.256 205.562 84.8634 204.991 83.4859C204.875 83.2049 204.779 82.9482 204.701 82.7137C204.776 82.6672 204.85 82.6228 204.924 82.5773C205.141 82.737 205.358 82.8946 205.575 83.0513C206.799 85.5375 208.454 87.4152 210.499 88.6331C211.8 89.4082 213.03 89.7822 214.187 89.9712C214.1 90.2107 214.007 90.4442 213.909 90.6716C213.805 90.6857 213.701 90.6978 213.596 90.7059C210.856 90.9262 208.684 89.0333 207.345 87.4062Z" fill="#03A63D"/>
<path d="M98.8717 107.108C97.8175 106.411 95.6165 108.193 95.4904 108.298C94.9951 108.706 92.9535 110.389 93.4972 112.417C93.6253 112.894 93.8815 113.337 94.2124 113.713C93.4478 115.084 92.5258 115.971 91.4596 116.353C90.0423 116.861 88.7602 116.337 87.1362 115.673C86.3726 115.361 85.5827 115.039 84.7102 114.8C83.067 114.353 81.216 114.239 79.2691 114.456C78.1031 113.394 76.6495 112.599 74.9236 112.079C74.8994 112.035 74.8762 111.992 74.853 111.948C74.5695 110.493 74.2427 109.061 73.8715 107.651C73.8826 107.557 73.8947 107.463 73.9098 107.367C74.4585 103.912 77.4534 100.512 80.0055 98.8149C80.5361 98.4622 81.0707 98.1671 81.5872 97.881C82.8572 97.1796 84.1715 96.453 85.5081 94.8683C85.9882 94.2993 86.4159 93.6848 86.7902 93.0279C87.6567 93.4746 88.5897 93.6545 89.3806 93.4483C93.0059 92.4993 94.1781 83.2994 91.86 81.8734C90.2642 80.892 87.0908 83.64 86.9082 83.8017C86.194 84.4303 83.2516 87.0236 84.1554 90.002C84.3511 90.6478 84.7082 91.2441 85.1611 91.7575C84.8151 92.4053 84.4116 93.0047 83.9516 93.5514C82.8582 94.8481 81.8131 95.4252 80.6037 96.0932C80.0509 96.3984 79.479 96.7147 78.8788 97.114C76.6152 98.6198 74.1721 101.172 72.8254 104.083C72.3715 102.689 71.8722 101.32 71.3295 99.9781C73.7343 97.5243 75.9504 95.0745 77.051 90.7691C77.3294 89.6796 77.5119 88.5639 77.5977 87.4249C78.8899 87.438 80.0711 87.0813 80.7187 86.2808C83.4241 82.9346 77.0762 71.5466 73.7081 72.0853C71.8187 72.3864 70.9401 76.428 70.8181 78.5615C70.7454 79.8278 70.4963 84.1827 73.704 86.2798C74.2608 86.6436 74.9034 86.9266 75.5732 87.1217C75.5006 88.194 75.3351 89.243 75.0749 90.2628C74.1892 93.7273 72.4905 95.8274 70.462 97.9417C69.3201 95.3908 68.0118 92.942 66.5391 90.6044C66.0831 89.8808 65.608 89.1632 65.1168 88.4547C65.1813 88.3456 65.2277 88.2314 65.2479 88.1151C65.4728 86.8377 62.7584 85.1449 61.9776 85.6684C61.44 86.0292 61.8445 87.4229 61.8687 87.5037C61.9544 87.7907 62.2843 88.8923 63.1447 89.1965C63.7237 90.0162 64.2825 90.852 64.8141 91.6949C66.3756 94.174 67.7465 96.7835 68.9237 99.5132C66.8397 101.64 64.5539 104.107 62.7563 108.011C61.8838 109.907 59.9561 114.093 60.0308 118.821C59.2127 118.867 58.5258 118.737 58.0244 118.295C57.3375 117.69 57.0228 116.546 57.0893 114.894C57.162 113.099 57.6885 110.751 58.6569 107.892C59.2097 107.925 59.7332 107.832 60.1538 107.592C62.7856 106.096 61.788 98.6724 59.6828 98.0438C58.2342 97.6112 56.3288 100.418 56.2198 100.581C55.7931 101.221 54.0369 103.858 55.3604 105.994C55.6882 106.523 56.1684 106.959 56.7121 107.279C55.6892 110.312 55.1314 112.839 55.0517 114.812C54.9589 117.111 55.5067 118.799 56.6788 119.831C57.6734 120.708 58.8869 120.934 60.1922 120.852C60.3748 122.147 60.7066 123.262 61.094 124.21C64.1867 131.771 73.0837 134.173 75.0961 134.667C76.0422 134.978 77.4353 135.334 79.1491 135.413C79.1491 135.413 80.4625 135.474 81.7173 135.314C84.23 134.994 88.2629 132.497 92.0638 128.114C92.1364 128.152 92.2857 128.22 92.4441 128.181C93.3408 127.962 93.6989 124.516 92.8102 124.108C92.2222 123.839 91.2487 124.915 91.1933 124.978C90.587 125.66 90.1281 126.79 90.5093 127.219C90.5598 127.276 90.6153 127.31 90.6556 127.33C90.2541 127.862 89.8002 128.418 89.2848 128.985C88.498 129.852 87.7162 130.583 86.9879 131.195C87.4428 130.705 88.0995 129.878 88.5807 128.696C89.0316 127.588 89.1516 126.601 89.1798 125.951C89.2686 125.9 89.3987 125.814 89.5299 125.681C90.1553 125.044 90.0544 124.059 90.006 123.593C89.9354 122.906 89.8547 122.217 89.4139 122.015C88.8258 121.745 87.8524 122.822 87.7969 122.884C87.578 123.13 86.6782 124.143 87.113 125.126C87.1947 125.311 87.3167 125.478 87.463 125.621C86.8023 128.726 84.915 131.117 82.4305 131.943C82.3639 131.965 82.2963 131.986 82.2287 132.006C82.603 131.514 82.955 131.008 83.2798 130.486C84.3007 128.843 85.0673 127.07 85.5696 125.193C86.4492 124.317 86.0054 121.503 85.1591 121.254C84.5387 121.072 83.7297 122.277 83.6833 122.348C83.5028 122.623 82.7573 123.755 83.3282 124.665C83.3857 124.756 83.4533 124.84 83.529 124.918C83.0791 126.507 82.4164 128.01 81.5489 129.406C80.9315 130.4 80.2093 131.332 79.4003 132.188C79.2812 132.171 79.1622 132.152 79.0422 132.129C79.0523 132.114 79.0613 132.099 79.0714 132.084C79.9742 130.669 81.5781 127.777 82.1672 124.308C82.6847 121.262 82.2459 118.548 80.9002 116.398C82.0704 116.377 83.1769 116.502 84.1826 116.776C84.9351 116.981 85.6665 117.279 86.3726 117.568C88.157 118.298 90.003 119.053 92.1556 118.28C93.6677 117.736 94.9346 116.576 95.9383 114.82C96.2873 114.913 96.6343 114.933 96.9511 114.861C99.4083 114.298 100.404 108.121 98.8717 107.108ZM91.1731 89.5513C90.8432 90.3517 90.471 91.0248 90.124 91.5665C90.4145 90.8803 90.7081 90.19 91.0066 89.4977C91.2558 88.9186 91.506 88.3425 91.7571 87.7695C91.625 88.3021 91.4394 88.9055 91.1731 89.5513ZM90.6465 88.8731C90.9391 88.194 91.2316 87.5189 91.5251 86.8488C91.3708 87.4714 91.1539 88.1788 90.8422 88.9358C90.4559 89.8737 90.0191 90.662 89.6126 91.2967C89.9525 90.4922 90.2975 89.6847 90.6465 88.8731ZM78.8868 82.2291C78.6205 81.5793 78.4047 80.9587 78.2292 80.3807C78.4874 80.8456 78.7547 81.3903 78.9988 82.0108C79.2308 82.599 79.4003 83.1498 79.5274 83.644C79.3105 83.2085 79.0946 82.7365 78.8868 82.2291ZM79.373 79.9804C79.8532 81.1983 80.2052 82.3393 80.4665 83.3621C80.0176 82.4606 79.5697 81.4833 79.14 80.4322C78.5893 79.086 78.1424 77.8015 77.7783 76.6049C78.3139 77.568 78.8667 78.6949 79.373 79.9804ZM64.6063 108.866C66.0982 105.626 67.9261 103.487 69.765 101.574C70.5487 103.598 71.2306 105.684 71.8076 107.829C71.7128 109.223 71.9771 110.433 72.4159 111.543C72.0073 111.488 71.616 111.45 71.2478 111.424C71.2891 111.033 71.2397 110.658 71.0824 110.352C70.115 108.482 64.9423 108.978 64.45 110.426C64.1111 111.423 66.0065 112.823 66.1174 112.904C66.5491 113.218 68.3316 114.511 69.8467 113.646C69.9617 113.58 70.0696 113.505 70.1725 113.422C70.924 113.433 71.8833 113.498 72.9233 113.694C72.9858 113.706 73.0453 113.719 73.1069 113.731C73.1553 114.013 73.2027 114.295 73.2481 114.578C73.3247 115.058 73.3964 115.54 73.4639 116.025C72.4623 116.462 71.5131 116.972 70.6486 117.54C68.3346 116.808 65.7765 117.492 63.4685 118.108C62.9873 118.236 62.5193 118.362 62.0704 118.47C62.0956 114.317 63.8195 110.575 64.6063 108.866ZM62.9813 123.44C62.5919 122.477 62.3448 121.503 62.2076 120.536C62.8007 120.402 63.4009 120.242 63.9951 120.083C65.5162 119.677 67.0686 119.262 68.4788 119.27C67.0404 120.683 66.2032 122.229 66.0771 123.751C65.9026 125.863 67.0515 128.114 69.3998 130.259C69.4391 130.295 69.4785 130.33 69.5178 130.365C66.3232 128.598 64.1282 126.275 62.9813 123.44ZM73.4105 130.733C70.0081 128.563 67.9361 126.019 68.1096 123.919C68.2176 122.622 69.2213 121.169 70.8897 119.874C70.9532 119.911 71.0158 119.952 71.0773 119.993C73.9037 121.909 73.6102 127.21 73.4105 130.733ZM72.7145 118.674C73.0423 118.49 73.3812 118.315 73.7282 118.151C73.7958 118.769 73.8553 119.392 73.9088 120.018C73.5769 119.52 73.1825 119.067 72.7145 118.674ZM76.6848 121.885C76.7352 123.189 76.5789 124.507 76.2198 125.833C76.1895 123.06 76.0261 120.348 75.7295 117.705C76.248 118.906 76.6223 120.253 76.6848 121.885ZM79.6182 126.134C79.0331 127.988 78.1051 129.891 77.0046 131.494C76.7806 131.821 76.5668 132.108 76.367 132.359C76.2642 132.311 76.1623 132.261 76.0604 132.212C76.0816 131.861 76.0997 131.511 76.1169 131.163C77.9649 128.059 78.8425 124.912 78.7224 121.807C78.6468 119.83 78.1828 118.216 77.5684 116.815C77.8912 116.741 78.212 116.677 78.5308 116.622C78.6195 116.727 78.7063 116.832 78.79 116.941C80.9739 119.789 80.4453 123.512 79.6182 126.134Z" fill="#F18322"/>
<path d="M128.045 -2.73482C127.347 -3.43014 126.073 -3.62217 125.702 -3.17041C125.238 -2.60546 126.658 -1.52103 126.419 -0.452775C126.094 1.0066 122.966 1.15517 115.124 2.02735C109.544 2.64789 106.508 3.0855 105.193 1.32495C104.549 0.462872 104.517 -0.668043 103.747 -0.816609C102.82 -0.996504 101.397 0.306221 101.506 1.36134C101.655 2.81566 104.699 3.68886 108.183 4.68738C112.38 5.89106 113.976 5.70207 114.911 7.17661C115.647 8.33784 114.864 8.78253 115.581 11.1828C116.061 12.7928 116.468 12.7796 118.211 16.0915C119.441 18.4292 119.484 18.9032 120.194 19.3529C121.668 20.2888 123.695 19.6409 124.87 19.1427C125.326 18.0926 125.74 16.6888 125.104 15.7499C124.295 14.5553 122.548 15.2416 120.989 14.2774C118.79 12.9161 117.639 8.68752 119.027 6.08915C121.056 2.29113 127.65 3.58274 128.594 0.113187C128.796 -0.639745 128.827 -1.95662 128.045 -2.73482ZM115.942 10.6532C115.776 10.0246 115.746 9.47179 115.756 9.06247C115.886 9.59711 116.038 10.157 116.214 10.7381C116.405 11.3647 116.606 11.956 116.812 12.5078C116.536 12.1207 116.164 11.4961 115.942 10.6532ZM116.494 10.8119C116.411 10.4976 116.396 10.2217 116.401 10.0165C116.465 10.2843 116.541 10.5643 116.63 10.8544C116.726 11.1677 116.826 11.4628 116.929 11.7397C116.791 11.5456 116.604 11.2333 116.494 10.8119ZM124.262 16.4584C124.568 17.0426 124.692 17.5742 124.746 17.9259C124.574 17.5135 124.383 17.083 124.167 16.6353C123.967 16.2219 123.765 15.8318 123.565 15.4659C123.773 15.6943 124.033 16.0228 124.262 16.4584ZM123.783 16.515C124.005 16.9395 124.095 17.3255 124.135 17.5802C124.011 17.2811 123.871 16.9678 123.714 16.6433C123.569 16.3432 123.422 16.0592 123.276 15.7934C123.427 15.9601 123.616 16.1987 123.783 16.515ZM123.281 16.4665C123.588 17.0506 123.712 17.5822 123.765 17.9339C123.594 17.5216 123.402 17.0911 123.186 16.6433C122.987 16.23 122.785 15.8399 122.584 15.474C122.793 15.7014 123.052 16.0309 123.281 16.4665ZM118.471 13.4537C118.272 13.003 118.184 12.5927 118.143 12.2854C118.303 12.6705 118.483 13.0717 118.684 13.4851C118.901 13.9318 119.123 14.3502 119.343 14.7393C119.09 14.4816 118.737 14.0581 118.471 13.4537Z" fill="#2E2EED"/>
<path d="M209.691 133.628C210.638 133.359 211.429 132.34 211.217 131.794C210.953 131.112 209.314 131.822 208.502 131.09C207.392 130.091 208.794 127.286 211.876 120.006C214.069 114.827 215.175 111.96 217.351 111.673C218.416 111.533 219.416 112.059 219.922 111.459C220.533 110.737 220.097 108.855 219.125 108.434C217.787 107.852 215.537 110.083 212.962 112.639C209.859 115.716 209.242 117.203 207.501 117.298C206.13 117.373 206.127 116.471 203.688 115.921C202.052 115.552 201.864 115.915 198.129 115.816C195.493 115.745 195.059 115.551 194.32 115.95C192.784 116.78 192.355 118.868 192.213 120.139C192.903 121.052 193.921 122.102 195.05 122.005C196.486 121.883 196.744 120.021 198.346 119.131C200.608 117.877 204.85 118.942 206.431 121.427C208.742 125.06 204.388 130.189 206.944 132.713C207.501 133.258 208.631 133.93 209.691 133.628ZM203.971 116.496C204.599 116.659 205.095 116.904 205.446 117.113C204.917 116.965 204.356 116.823 203.764 116.692C203.126 116.552 202.512 116.439 201.932 116.348C202.404 116.296 203.129 116.277 203.971 116.496ZM203.563 116.9C203.877 116.982 204.125 117.104 204.301 117.209C204.036 117.134 203.755 117.063 203.459 116.999C203.14 116.929 202.834 116.873 202.543 116.827C202.779 116.801 203.142 116.791 203.563 116.9ZM194.846 120.922C194.188 120.904 193.665 120.752 193.332 120.627C193.775 120.679 194.244 120.722 194.739 120.753C195.196 120.781 195.634 120.796 196.051 120.799C195.75 120.87 195.337 120.936 194.846 120.922ZM195.032 120.476C194.553 120.463 194.173 120.352 193.932 120.262C194.254 120.3 194.594 120.332 194.954 120.353C195.286 120.373 195.605 120.385 195.907 120.387C195.688 120.437 195.388 120.485 195.032 120.476ZM195.319 120.062C194.661 120.044 194.138 119.892 193.806 119.766C194.248 119.818 194.717 119.862 195.212 119.892C195.669 119.92 196.108 119.935 196.524 119.939C196.224 120.01 195.81 120.075 195.319 120.062ZM200.296 117.334C200.786 117.381 201.186 117.505 201.473 117.62C201.06 117.571 200.623 117.532 200.164 117.506C199.67 117.476 199.197 117.465 198.751 117.467C199.099 117.372 199.64 117.271 200.296 117.334Z" fill="#F28220"/>
<path d="M111.589 108.146C112.29 107.847 113.259 108.075 113.397 108.507C113.568 109.047 112.238 109.417 112.102 110.253C111.919 111.395 114.121 112.401 119.504 115.283C123.333 117.332 125.389 118.521 126.838 117.635C127.547 117.201 127.894 116.398 128.49 116.512C129.207 116.649 129.856 117.993 129.476 118.721C128.951 119.723 126.516 119.474 123.728 119.19C120.368 118.847 119.276 118.253 118.183 119.042C117.321 119.665 117.756 120.209 116.554 121.728C115.748 122.745 115.458 122.619 113.258 124.497C111.706 125.822 111.538 126.15 110.9 126.27C109.572 126.517 108.303 125.47 107.601 124.774C107.574 123.888 107.679 122.761 108.405 122.269C109.329 121.645 110.387 122.639 111.783 122.395C113.753 122.05 115.79 119.344 115.538 117.078C115.17 113.766 110.064 112.798 110.379 110.035C110.449 109.435 110.804 108.48 111.589 108.146ZM116.446 121.242C116.745 120.838 116.925 120.449 117.035 120.153C116.789 120.5 116.52 120.859 116.226 121.224C115.909 121.62 115.596 121.985 115.289 122.324C115.599 122.125 116.044 121.783 116.446 121.242ZM116.004 121.197C116.153 120.995 116.243 120.801 116.299 120.652C116.176 120.826 116.04 121.005 115.894 121.188C115.736 121.386 115.578 121.569 115.426 121.738C115.58 121.639 115.803 121.468 116.004 121.197ZM108.807 123.019C108.419 123.351 108.178 123.697 108.038 123.934C108.279 123.687 108.541 123.433 108.823 123.174C109.085 122.934 109.341 122.712 109.591 122.507C109.377 122.61 109.096 122.772 108.807 123.019ZM109.135 123.197C108.853 123.438 108.678 123.689 108.577 123.861C108.751 123.682 108.942 123.497 109.147 123.309C109.337 123.136 109.524 122.974 109.705 122.825C109.549 122.9 109.346 123.017 109.135 123.197ZM109.509 123.306C109.121 123.638 108.881 123.985 108.74 124.221C108.981 123.974 109.243 123.72 109.525 123.461C109.787 123.221 110.044 122.999 110.293 122.794C110.079 122.898 109.798 123.06 109.509 123.306ZM113.827 122.526C114.099 122.259 114.28 121.991 114.397 121.781C114.171 122.012 113.927 122.248 113.665 122.488C113.381 122.746 113.102 122.983 112.833 123.199C113.088 123.086 113.462 122.884 113.827 122.526Z" fill="#2E2EED"/>
<path d="M215.609 33.9221C215.349 34.6306 214.527 35.1753 214.123 34.9813C213.62 34.7387 214.255 33.5279 213.746 32.8639C213.05 31.9574 210.833 32.8639 205.11 34.7933C201.04 36.1657 198.793 36.8439 198.447 38.4902C198.277 39.2967 198.619 40.0911 198.133 40.4438C197.548 40.8683 196.142 40.4246 195.877 39.6565C195.512 38.5994 197.342 37.0106 199.437 35.1915C201.962 32.9994 203.13 32.6153 203.304 31.2904C203.441 30.2464 202.755 30.1918 202.479 28.2938C202.293 27.0214 202.581 26.8991 202.723 24.038C202.824 22.0187 202.701 21.6761 203.048 21.1344C203.77 20.0085 205.384 19.8023 206.36 19.769C207.015 20.3501 207.754 21.191 207.615 22.047C207.438 23.1375 206.005 23.2254 205.234 24.3988C204.147 26.0542 204.71 29.36 206.51 30.7143C209.139 32.6942 213.299 29.6673 215.071 31.7684C215.455 32.2252 215.901 33.1287 215.609 33.9221ZM202.901 28.5444C202.989 29.0336 203.145 29.4277 203.285 29.7077C203.203 29.2943 203.127 28.8577 203.063 28.3969C202.993 27.9007 202.943 27.4256 202.908 26.9749C202.841 27.3347 202.784 27.8885 202.901 28.5444ZM203.233 28.2564C203.277 28.501 203.355 28.6981 203.425 28.8385C203.383 28.6324 203.346 28.4131 203.314 28.1836C203.28 27.935 203.254 27.6975 203.236 27.4732C203.203 27.651 203.174 27.9279 203.233 28.2564ZM206.804 21.8277C206.829 21.3234 206.744 20.914 206.668 20.6533C206.682 20.9939 206.687 21.3557 206.682 21.7357C206.677 22.0874 206.662 22.4229 206.641 22.7413C206.711 22.5159 206.786 22.2046 206.804 21.8277ZM206.454 21.9439C206.472 21.577 206.41 21.2809 206.355 21.0909C206.365 21.3385 206.369 21.6013 206.365 21.8772C206.361 22.1329 206.351 22.3765 206.335 22.6079C206.386 22.4442 206.44 22.2168 206.454 21.9439ZM206.121 22.139C206.146 21.6346 206.061 21.2253 205.985 20.9646C205.999 21.3052 206.004 21.667 205.999 22.047C205.994 22.3987 205.979 22.7342 205.958 23.0526C206.029 22.8272 206.103 22.5159 206.121 22.139ZM203.754 25.7844C203.761 26.1613 203.832 26.4746 203.902 26.701C203.89 26.3817 203.885 26.0451 203.891 25.6934C203.898 25.3134 203.917 24.9516 203.944 24.611C203.853 24.8717 203.745 25.279 203.754 25.7844Z" fill="#F18322"/>
<path d="M92.79 39.4122C90.6949 36.9584 85.7713 38.0721 82.9035 38.721C77.3101 39.9863 75.7294 42.2431 72.442 41.6003C69.9969 41.1223 68.2568 39.3617 67.1543 37.9145C63.9748 34.9048 58.0304 30.3578 50.2552 30.1972C46.3988 30.1173 39.5496 31.0653 38.8747 34.1134C38.4763 35.9103 40.2486 38.3298 42.3236 39.0656C44.9826 40.0085 46.3171 37.5425 49.2212 37.7982C53.5406 38.1793 53.6172 43.9046 60.0277 47.934C60.6904 48.3504 64.5982 50.7416 69.7992 50.8134C73.7231 50.8669 74.0792 49.542 80.0306 48.2797C87.8876 46.6131 91.2497 48.0796 93.021 45.5155C94.2506 43.7358 94.0801 40.9242 92.79 39.4122Z" fill="#F36B9D"/>
<path d="M40.2138 47.0143C42.2071 46.6808 42.8093 48.1655 46.4215 49.0872C49.1612 49.7865 53.6067 50.1554 54.2391 48.7415C55.0058 47.0265 50.522 41.8762 45.7326 41.7155C42.8123 41.6175 42.2212 43.4558 38.9499 43.3285C35.2792 43.185 34.5912 40.813 31.3623 40.6796C27.7097 40.529 23.4257 43.3507 23.3147 46.0926C23.1705 49.6794 30.1438 53.7695 34.2361 52.1969C37.1917 51.062 37.2341 47.5126 40.2138 47.0143Z" fill="#F36B9D"/>
<path d="M67.443 57.5816C67.7153 57.5624 71.0502 57.3088 71.2469 56.1657C71.3336 55.6614 70.7909 55.0884 69.6168 54.3142C67.5267 52.9367 63.6976 50.4131 58.422 51.156C54.8188 51.6643 54.7149 53.1075 51.9006 52.8983C48.3519 52.6335 46.5745 50.1928 45.3792 51.0468C44.4441 51.7148 44.5268 53.9251 45.4881 55.2935C45.9562 55.9596 46.8842 56.7842 49.8357 57.145C55.2899 57.8111 56.2411 55.4987 60.5958 56.1647C63.4585 56.6044 64.32 57.7979 67.443 57.5816Z" fill="#F36B9D"/>
<path d="M77.7546 51.2338C75.9974 52.6831 74.5237 55.4432 75.3599 57.0471C75.4134 57.1502 75.7291 57.7555 76.3727 57.9698C77.5226 58.3538 78.3568 57.0349 80.1483 56.2163C82.8093 55.0005 84.162 56.4498 85.7659 55.2016C87.0167 54.2274 87.7016 52.1727 87.055 50.9569C85.9525 48.882 80.7243 48.785 77.7546 51.2338Z" fill="#F36B9D"/>
<path d="M55.4803 59.8435C52.0799 58.0435 46.9778 59.1936 46.3141 61.4484C45.9257 62.7693 47.0091 64.6441 48.4304 65.3455C50.2521 66.2449 51.2871 64.5521 54.1367 65.206C56.0553 65.6466 57.1377 66.7695 58.1877 66.1611C58.7748 65.8215 58.9624 65.1646 58.9947 65.0534C59.492 63.3141 57.4937 60.9087 55.4803 59.8435Z" fill="#F36B9D"/>
<path d="M31.7089 36.9321C33.1837 38.0529 36.224 39.955 37.0501 39.1464C37.496 38.7109 37.1258 37.6567 36.7737 36.6552C36.4257 35.6627 35.9133 34.2034 34.5636 33.4262C32.5895 32.2882 29.5906 33.0502 29.3142 34.164C29.1165 34.9624 30.329 35.8841 31.7089 36.9321Z" fill="#F36B9D"/>
<path d="M37.7976 53.1672C37.5494 53.2329 35.1789 53.8756 35.1719 54.8236C35.1628 56.1577 39.8362 58.1638 41.2979 56.6751C42.0211 55.9384 42.005 54.2981 41.201 53.4603C40.2901 52.5113 38.6964 52.9307 37.7976 53.1672Z" fill="#F36B9D"/>
<path d="M68.6312 60.4428C67.7324 60.2063 66.1386 59.7869 65.2277 60.7349C64.4228 61.5727 64.4076 63.213 65.1309 63.9498C66.5925 65.4395 71.266 63.4323 71.2569 62.0983C71.2498 61.1513 68.8793 60.5075 68.6312 60.4428Z" fill="#F36B9D"/>
<path d="M29.4608 74.7334H29.145L11.6185 40.3622H0V96.9494H7.60174V49.2802H7.91646L24.5372 81.8362H34.0686L50.65 49.2802H51.0051V96.9494H58.5664V40.3622H46.948L29.4608 74.7334Z" fill="white"/>
<path d="M89.6025 89.1756H89.3664L74.0449 57.3311H66.6016L85.7431 97.7388L85.1923 99.1992C83.9576 102.329 82.7895 104.539 81.687 105.829C80.5572 107.17 78.9292 107.841 76.8028 107.841C74.9376 107.841 73.3237 107.578 71.9579 107.052V113.129L72.5883 113.287C73.6909 113.707 75.3058 113.918 77.4332 113.918C81.2926 113.918 84.1937 112.814 86.1375 110.604C88.0803 108.394 90.2067 104.592 92.5177 99.2002L110.753 57.3321H103.23L89.6025 89.1756Z" fill="white"/>
<path d="M136.905 63.0129C139.084 63.0129 141.073 63.3424 142.871 63.9993C144.67 64.6572 146.068 65.4597 147.066 66.4067C147.933 67.2486 148.694 68.2349 149.35 69.3659C149.981 70.4705 150.427 71.5893 150.69 72.7202H157.858C157.858 69.7216 156.295 66.4198 153.171 62.8158C151.676 61.0796 149.469 59.5939 146.554 58.3569C143.719 57.1471 140.502 56.5417 136.905 56.5417C130.576 56.5417 125.39 58.4104 121.347 62.1448C117.251 65.8801 115.203 70.8525 115.203 77.0609C115.203 83.2693 117.251 88.2549 121.347 92.0165C125.416 95.7791 130.602 97.6589 136.905 97.6589C140.502 97.6589 143.719 97.0536 146.554 95.8438C149.416 94.6341 151.621 93.1353 153.171 91.3454C156.296 87.7415 157.858 84.4659 157.858 81.5199H150.69L150.454 82.5457C150.007 84.1506 148.878 85.8869 147.067 87.7546C146.095 88.7551 144.71 89.5839 142.912 90.2408C141.113 90.8987 139.111 91.2272 136.906 91.2272C132.495 91.2272 128.963 89.885 126.311 87.2018C123.633 84.5448 122.293 81.1642 122.293 77.0609C122.293 72.9567 123.633 69.5902 126.311 66.9585C128.935 64.3288 132.467 63.0129 136.905 63.0129Z" fill="white"/>
<path d="M188.422 56.5417C182.12 56.5417 176.934 58.4226 172.865 62.1842C168.768 65.9468 166.721 70.9314 166.721 77.1398C166.721 83.4007 168.782 88.4004 172.904 92.1347C176.973 95.8701 182.278 97.7378 188.817 97.7378C191.967 97.7378 194.75 97.3163 197.166 96.4745C199.713 95.6336 201.643 94.6988 202.956 93.6729C204.321 92.6209 205.516 91.4243 206.54 90.0821C207.485 88.8188 208.129 87.886 208.47 87.2806C208.653 86.8602 208.825 86.4519 208.982 86.0567H200.829L200.513 86.6095C199.83 87.4514 198.623 88.3994 196.89 89.4505C194.788 90.6875 192.098 91.305 188.816 91.305C184.351 91.305 180.793 90.0558 178.142 87.5565C175.463 85.0835 174.125 82.7155 174.125 80.4537H209.848L210.084 77.1388C210.084 70.9303 208.048 65.9458 203.979 62.1832C199.857 58.4226 194.67 56.5417 188.422 56.5417ZM174.046 74.1412C174.046 71.7207 175.345 69.2608 177.946 66.7614C180.519 64.2621 184.011 63.0129 188.422 63.0129C192.781 63.0129 196.273 64.2631 198.899 66.7614C201.472 69.2608 202.758 71.7207 202.758 74.1412H174.046Z" fill="white"/>
<path d="M295.001 77.1398C295.001 70.9314 292.965 65.9468 288.896 62.1842C284.773 58.4226 279.587 56.5417 273.338 56.5417C267.036 56.5417 261.85 58.4226 257.781 62.1842C253.684 65.9468 251.637 70.9314 251.637 77.1398C251.637 83.4007 253.698 88.4004 257.82 92.1347C261.889 95.8701 267.194 97.7378 273.733 97.7378C276.883 97.7378 279.666 97.3163 282.082 96.4745C284.629 95.6336 286.559 94.6988 287.872 93.6729C289.237 92.6209 290.432 91.4243 291.456 90.0821C292.401 88.8188 293.045 87.886 293.386 87.2806C293.569 86.8602 293.741 86.4519 293.898 86.0567H285.745L285.429 86.6095C284.746 87.4514 283.539 88.3994 281.806 89.4505C279.704 90.6875 277.014 91.305 273.732 91.305C269.267 91.305 265.709 90.0558 263.058 87.5565C260.379 85.0835 259.041 82.7155 259.041 80.4537H294.764L295.001 77.1398ZM258.963 74.1412C258.963 71.7207 260.262 69.2608 262.863 66.7614C265.436 64.2621 268.928 63.0129 273.339 63.0129C277.698 63.0129 281.19 64.2631 283.816 66.7614C286.389 69.2608 287.675 71.7207 287.675 74.1412H258.963Z" fill="white"/>
<path d="M238.926 27.3977C227.693 19.5692 225.492 9.21309 221.623 10.2753C220.39 10.6138 219.5 12.6826 217.721 16.8212C215.19 22.7083 215.852 24.2141 213.99 27.1753C210.675 32.4469 205.968 31.8304 205.735 34.3924C205.411 37.9569 214.225 42.4594 223.978 44.1704V54.6154H223.988V57.33H217.371V63.6436H223.988V82.4669C223.988 87.5444 225.34 91.3586 228.045 93.9104C230.697 96.4623 234.348 97.7378 238.995 97.7378C242.093 97.763 244.692 97.2375 246.793 96.1591V89.8466L246.084 90.3206C245.533 90.6632 244.66 90.9785 243.465 91.2676C242.27 91.5576 241.044 91.7012 239.783 91.7012C233.875 91.7012 230.921 88.3337 230.921 81.5997V63.6446H245.573V57.3311H230.921V54.6154H230.991V44.8627C235.133 44.9344 239.698 44.3321 243.937 41.6721C245.736 40.5422 249.314 38.2965 249.241 35.495C249.159 32.3387 244.522 31.2978 238.926 27.3977Z" fill="white"/>
</svg>
