<svg width="414" height="312" viewBox="0 0 414 312" fill="none" xmlns="http://www.w3.org/2000/svg">
<path d="M103.657 76.0406L103.657 76.0406C115.034 80.0404 123.567 76.8309 132.505 72.8146C133.197 72.504 133.89 72.1884 134.588 71.8711C142.904 68.0892 151.774 64.0547 163.577 65.0865C182.642 66.7533 192.331 80.14 204.15 97.2044C204.462 97.6554 204.776 98.1092 205.092 98.5654C216.743 115.404 230.792 135.706 257.861 152.561C263.602 156.134 297.528 176.701 342.658 177.316C359.657 177.548 368.908 174.823 380.391 170.676C381.732 170.192 383.103 169.688 384.519 169.168C395.275 165.217 408.685 160.292 431.609 155.477C459.509 149.616 480.917 148.243 497.502 147.179C501.269 146.938 504.787 146.712 508.076 146.453C525.871 145.054 536.813 142.691 544.376 131.845C549.655 124.275 551.942 114.49 551.51 104.968C551.079 95.4441 547.929 86.2395 542.402 79.8245C533.439 69.4236 518.371 66.5295 502.291 66.984C486.233 67.438 469.324 71.2259 456.833 74.0246C435.971 78.7008 421.545 84.9468 409.576 90.1286C407.611 90.9795 405.712 91.8016 403.862 92.5835C390.736 98.1295 380.026 101.659 365.568 98.8585C344.121 94.7029 328.884 79.4221 319.263 66.9221C291.609 41.0013 239.995 1.9179 172.528 0.539016C155.779 0.197772 132.529 2.06558 112.748 7.29298C102.856 9.90695 93.8585 13.3541 86.9788 17.7664C80.0964 22.1805 75.388 27.5239 73.9586 33.9163M103.657 76.0406L73.9586 33.9163M103.657 76.0406C94.7385 72.9075 86.4462 66.1777 80.8157 58.3026C75.1781 50.4176 72.2689 41.4733 73.9586 33.9163M103.657 76.0406L73.4707 33.8072L73.9586 33.9163" stroke="#F46C9E"/>
<path d="M8.04757 90.9207L8.06802 90.4211L8.04761 90.9207C21.5091 91.4707 29.8313 96.4823 38.5147 101.711C38.8058 101.887 39.0973 102.062 39.3894 102.238C48.4126 107.663 57.9854 113.141 74.0916 113.766C88.4488 114.325 96.9403 110.598 104.988 106.866C105.235 106.752 105.482 106.637 105.729 106.523C113.477 102.923 120.941 99.4566 133.133 99.863C153.817 100.552 173.887 111.921 187.969 124.996C195.007 131.53 200.525 138.468 203.866 144.674C205.536 147.777 206.654 150.681 207.152 153.25C207.65 155.821 207.521 158.019 206.744 159.742C205.464 162.581 202.203 164.612 197.469 165.923C192.757 167.228 186.71 167.784 180.059 167.771C166.764 167.746 151.168 165.449 139.279 162.444C124.96 158.822 116.106 154.195 109.028 150.497C108.366 150.151 107.72 149.813 107.087 149.485C99.6577 145.64 93.8848 143.091 85.0391 144.556L85.1208 145.049L85.039 144.556C71.8437 146.742 65.1641 155.642 58.6169 165.049C58.3087 165.492 58.0008 165.936 57.6925 166.381C51.4303 175.41 45.0092 184.669 32.9026 189.272L32.9024 189.272C15.292 195.977 -8.62238 190.625 -28.0329 179.67C-37.7254 174.2 -46.2556 167.353 -52.2786 159.967C-58.306 152.575 -61.7882 144.688 -61.4813 137.123C-61.0103 125.538 -51.6125 113.666 -38.2431 104.821C-24.896 95.9913 -7.72619 90.275 8.04757 90.9207Z" stroke="#F46C9E"/>
<path d="M340.785 208.42L340.785 208.42C322.595 196.541 289.402 174.879 243.68 181.267L243.611 180.772L243.68 181.267C229.013 183.315 221.056 187.13 214.173 190.431C213.734 190.642 213.299 190.85 212.867 191.056C209.258 192.776 205.83 194.319 201.757 195.314C197.68 196.31 192.977 196.752 186.808 196.297L186.808 196.297C171.254 195.148 159.586 189.272 150.553 184.643C150.416 184.573 150.281 184.504 150.146 184.434C145.79 182.202 142.095 180.308 138.857 179.38C135.542 178.43 132.799 178.52 130.367 180.241L340.785 208.42ZM340.785 208.42C345.889 211.752 349.583 214.628 351.903 217.193C354.229 219.763 355.097 221.934 354.758 223.881C354.372 226.107 352.419 227.992 349.454 229.568C346.511 231.132 342.696 232.323 338.829 233.219C331.101 235.01 323.283 235.596 322.105 235.677C308.596 236.605 299.993 234.513 291.649 231.714C289.964 231.149 288.286 230.554 286.579 229.948C279.822 227.55 272.6 224.987 262.604 223.473C244.261 220.694 232.794 223.899 220.6 227.307C220.118 227.442 219.635 227.577 219.151 227.711C206.439 231.251 192.572 234.783 168.927 231.923C143.32 228.825 135.396 221.758 131.433 216.165L131.433 216.165M340.785 208.42L131.433 216.165M131.433 216.165C127.313 210.354 125.067 202.738 124.861 195.864M131.433 216.165L124.861 195.864M124.861 195.864C124.655 188.958 126.506 182.974 130.367 180.241L124.861 195.864Z" stroke="#F46C9E"/>
<path d="M432.54 223.945L432.54 223.945C426.583 226.641 421.817 229.974 417.692 232.857C416.385 233.771 415.142 234.64 413.946 235.429C408.94 238.733 404.804 240.618 400.038 239.044C394.643 237.258 391.97 232.212 391.505 231.328C387.971 224.62 389.281 215.399 393.469 206.206C397.646 197.035 404.631 188.023 412.22 181.822C425.04 171.351 442.763 166.307 458.484 166.114C466.342 166.017 473.674 167.133 479.624 169.371C485.579 171.611 490.102 174.955 492.424 179.283C495.15 184.363 495.096 191.262 492.972 197.979C490.851 204.687 486.692 211.125 481.339 215.251L481.339 215.251C474.549 220.489 468.318 220.104 460.767 219.637L460.676 219.632C453.073 219.162 444.236 218.65 432.54 223.945Z" stroke="#F46C9E"/>
<path d="M138.705 269.663L138.705 269.663C140.102 264.959 143.854 260.779 149.232 257.395C154.606 254.014 161.562 251.455 169.278 249.979C184.717 247.027 203.101 248.426 217.782 256.121C226.474 260.677 235.144 268.108 241.096 276.257C247.063 284.426 250.218 293.198 248.121 300.475L248.121 300.476C247.844 301.436 246.252 306.913 241.328 309.735L241.328 309.735C236.979 312.23 232.543 311.211 226.969 308.975C225.637 308.441 224.242 307.838 222.775 307.204C218.15 305.204 212.806 302.894 206.426 301.443L206.316 301.931L206.426 301.443C193.897 298.595 185.344 300.862 177.991 302.842L177.903 302.866C170.6 304.832 164.573 306.454 156.86 302.681C150.782 299.706 145.402 294.23 141.963 288.083C138.52 281.928 137.066 275.182 138.705 269.663Z" stroke="#F46C9E"/>
<path d="M57.2396 76.8468L57.2396 76.8469C55.6278 78.4089 52.8486 78.734 49.188 78.0322C45.5584 77.3362 41.2212 75.6595 36.6777 73.4489C27.5967 69.0306 17.8001 62.5335 11.3964 57.7124C5.37976 53.1824 -0.227351 48.96 -4.12073 45.0153C-6.06624 43.0441 -7.55937 41.166 -8.46143 39.378C-9.36072 37.5955 -9.65817 35.9332 -9.26628 34.3618C-8.71178 32.1476 -6.76273 30.0262 -3.75694 28.2411C-0.765217 26.4643 3.20108 25.0659 7.64446 24.2655C16.5382 22.6635 27.2335 23.4757 35.6954 28.3099L35.6955 28.31C47.2573 34.912 51.6676 47.308 54.7097 55.8902L54.7097 55.8904C56.2461 60.2196 57.8013 64.6105 58.4958 68.3848C59.1976 72.1988 58.9769 75.1637 57.2396 76.8468Z" stroke="#F46C9E"/>
<path d="M64.221 198.589L64.2206 198.589C63.1483 198.868 57.4831 200.386 52.0873 202.847C49.3871 204.078 46.7823 205.532 44.8568 207.167C42.9201 208.812 41.755 210.565 41.7423 212.389L64.221 198.589ZM64.221 198.589C68.141 197.566 73.5122 196.169 78.8833 196.033C84.2533 195.898 89.5368 197.026 93.3609 200.969L93.7198 200.621M64.221 198.589L93.7198 200.621M93.7198 200.621L93.3609 200.969C96.7572 204.471 98.5123 209.682 98.6329 214.823C98.7536 219.969 97.2351 224.943 94.2131 227.994M93.7198 200.621L94.2131 227.994M94.2131 227.994C91.166 231.07 86.3964 232.385 80.8556 232.389M94.2131 227.994L80.8556 232.389M80.8556 232.389C75.3257 232.394 69.1082 231.091 63.2705 229.025M80.8556 232.389L63.2705 229.025M63.2705 229.025C57.433 226.959 52.0064 224.141 48.0546 221.139M63.2705 229.025L48.0546 221.139M48.0546 221.139C46.0783 219.639 44.4856 218.103 43.3934 216.606M48.0546 221.139L43.3934 216.606M43.3934 216.606C42.2985 215.105 41.7337 213.68 41.7423 212.389L43.3934 216.606Z" stroke="#F46C9E"/>
<path d="M354.829 275.133V275.133C354.816 273.308 353.651 271.555 351.715 269.91C349.789 268.275 347.184 266.821 344.484 265.589C339.089 263.129 333.425 261.609 332.35 261.327C328.433 260.304 323.062 258.907 317.69 258.772C312.319 258.637 307.035 259.767 303.211 263.712M354.829 275.133L302.358 290.737C299.336 287.686 297.819 282.712 297.94 277.566C298.062 272.425 299.817 267.215 303.211 263.712M354.829 275.133C354.838 276.423 354.274 277.848 353.179 279.349M354.829 275.133L353.179 279.349M303.211 263.712L302.851 263.364M303.211 263.712L302.851 263.364M302.851 263.364C310.776 255.188 324.655 258.801 332.476 260.843L302.851 263.364ZM353.179 279.349C352.088 280.846 350.495 282.381 348.519 283.882M353.179 279.349L348.519 283.882M348.519 283.882C344.567 286.883 339.141 289.7 333.303 291.766M348.519 283.882L333.303 291.766M333.303 291.766C327.465 293.831 321.247 295.134 315.716 295.13M333.303 291.766L315.716 295.13M315.716 295.13C310.175 295.126 305.405 293.812 302.358 290.737L315.716 295.13Z" stroke="#F46C9E"/>
</svg>
