<svg width="1549" height="786" viewBox="0 0 1549 786" fill="none" xmlns="http://www.w3.org/2000/svg">
<path d="M417.486 192.472L417.486 192.472C394.826 184.512 373.794 167.433 359.518 147.467C345.236 127.49 337.776 104.713 342.103 85.362C345.769 68.9697 357.824 55.3495 375.268 44.1617C392.71 32.9756 415.483 24.2577 440.467 17.6554C490.434 4.45132 549.135 -0.263082 591.426 0.598548C761.883 4.08227 892.235 102.839 962.004 168.247C986.227 199.729 1024.52 238.117 1078.35 248.548C1114.58 255.567 1141.41 246.742 1174.48 232.77C1179.14 230.801 1183.92 228.73 1188.88 226.585C1219.06 213.516 1255.51 197.737 1308.19 185.928L1308.19 185.927C1339.68 178.872 1382.39 169.303 1422.97 168.156C1463.57 167.008 1501.88 174.298 1524.71 200.8C1538.79 217.133 1546.77 240.52 1547.87 264.668C1548.96 288.813 1543.16 313.662 1529.74 332.913C1510.45 360.583 1482.51 366.548 1437.64 370.076C1429.33 370.729 1420.45 371.298 1410.95 371.908C1369.13 374.59 1315.2 378.049 1244.9 392.817C1187.15 404.947 1153.38 417.352 1126.26 427.312C1122.69 428.624 1119.23 429.894 1115.85 431.116C1086.83 441.594 1063.41 448.491 1020.43 447.907C906.409 446.351 820.711 394.398 806.198 385.365C737.8 342.778 702.298 291.469 672.914 249.004C672.115 247.849 671.32 246.7 670.529 245.557C640.69 202.477 616.443 169.057 568.774 164.889C539.217 162.305 517.019 172.399 496.038 181.94C494.284 182.737 492.538 183.531 490.797 184.313C468.227 194.455 446.469 202.662 417.486 192.472Z" stroke="#F46C9E"/>
<path d="M176.673 228.517L176.693 228.018L176.673 228.517C210.816 229.912 231.947 242.638 253.842 255.824C254.584 256.27 255.326 256.717 256.07 257.164C278.793 270.826 302.798 284.559 343.217 286.128C379.242 287.529 400.524 278.191 420.781 268.798C421.409 268.506 422.035 268.215 422.662 267.924C442.211 258.844 461.171 250.036 492.101 251.067C544.504 252.812 595.283 281.603 630.875 314.648C648.667 331.168 662.64 348.729 671.113 364.468C675.35 372.337 678.203 379.736 679.478 386.311C680.753 392.888 680.441 398.604 678.396 403.14C675.025 410.618 666.514 415.825 654.515 419.148C642.539 422.464 627.212 423.867 610.409 423.835C576.809 423.771 537.419 417.97 507.386 410.378C471.19 401.223 448.795 389.52 430.938 380.188C429.269 379.316 427.64 378.464 426.042 377.638C407.338 367.957 392.969 361.631 370.918 365.282L371 365.775L370.918 365.282C337.988 370.738 321.303 392.915 304.789 416.645C304.003 417.774 303.218 418.906 302.432 420.04C286.662 442.781 270.346 466.31 239.59 478.006L239.59 478.006C194.877 495.029 134.32 481.419 85.2822 453.742C60.7759 439.912 39.1856 422.588 23.9252 403.874C8.66044 385.155 -0.236364 365.088 0.547882 345.756C1.75055 316.175 25.7014 286.049 59.4889 263.696C93.2541 241.359 136.707 226.881 176.673 228.517Z" stroke="#F46C9E"/>
<path d="M770.745 456.354L770.675 455.859L770.745 456.354C886.346 440.203 970.263 494.983 1016.14 524.944C1029.03 533.356 1038.41 540.651 1044.32 547.192C1050.25 553.74 1052.62 559.444 1051.71 564.7C1050.67 570.676 1045.47 575.581 1037.94 579.582C1030.43 583.572 1020.74 586.593 1010.96 588.858C991.415 593.388 971.651 594.869 968.67 595.075C934.478 597.424 912.682 592.124 891.573 585.044C887.306 583.613 883.064 582.107 878.751 580.577C861.719 574.533 843.586 568.099 818.458 564.292C772.363 557.31 743.579 565.354 712.843 573.944C711.631 574.283 710.417 574.622 709.198 574.962C677.095 583.902 642.018 592.833 582.251 585.604C517.549 577.776 497.331 559.889 487.17 545.551L487.17 545.551C476.685 530.762 470.982 511.406 470.459 493.941C469.936 476.443 474.61 461.017 484.665 453.899C491.057 449.376 498.24 449.187 506.724 451.618C514.963 453.979 524.339 458.785 535.28 464.393C535.637 464.576 535.995 464.76 536.354 464.944C559.128 476.613 588.432 491.365 627.489 494.25C642.978 495.392 654.757 494.282 664.95 491.792C675.14 489.302 683.726 485.439 692.819 481.106C693.908 480.587 695.005 480.061 696.113 479.53C713.49 471.197 733.64 461.534 770.745 456.354Z" stroke="#F46C9E"/>
<path d="M1370.63 543.41L1370.63 543.41C1353.28 556.792 1337.31 555.806 1318.31 554.632L1318.01 554.614C1298.86 553.432 1276.74 552.153 1247.42 565.424L1247.62 565.88L1247.42 565.424C1232.47 572.192 1220.53 580.538 1210.13 587.804C1206.83 590.116 1203.68 592.319 1200.63 594.327C1187.99 602.669 1177.29 607.619 1164.9 603.529C1150.99 598.924 1144.13 585.94 1142.95 583.704C1133.87 566.472 1137.29 542.937 1147.88 519.682C1158.47 496.451 1176.15 473.631 1195.38 457.919C1227.87 431.382 1272.74 418.623 1312.52 418.135C1332.4 417.891 1350.99 420.715 1366.1 426.398C1381.22 432.083 1392.81 440.611 1398.79 451.745C1405.79 464.801 1405.61 482.43 1400.22 499.48C1394.83 516.522 1384.27 532.895 1370.63 543.41Z" stroke="#F46C9E"/>
<path d="M705.891 645.196L706.124 644.753L705.892 645.196C727.914 656.738 749.865 675.556 764.943 696.199C780.036 716.862 788.162 739.236 782.775 757.93L783.255 758.069L782.775 757.93C782.076 760.359 777.994 774.449 765.293 781.729L765.541 782.163L765.292 781.729C753.99 788.213 742.495 785.505 728.421 779.86C725.032 778.501 721.496 776.972 717.784 775.368C706.13 770.329 692.745 764.542 676.733 760.902C645.325 753.763 623.907 759.438 605.392 764.422L605.102 764.5C586.726 769.447 571.282 773.606 551.575 763.965C536.086 756.384 522.414 742.456 513.678 726.841C504.938 711.218 501.183 693.989 505.397 679.801L504.918 679.659L505.397 679.801C508.991 667.699 518.614 657.028 532.268 648.438C545.917 639.85 563.552 633.37 583.08 629.635C622.144 622.164 668.685 625.695 705.891 645.196Z" stroke="#F46C9E"/>
<path d="M295.032 140.688L295.032 140.688C298.901 151.588 302.847 162.722 304.611 172.312C306.383 181.942 305.912 189.794 301.225 194.335L301.572 194.694L301.224 194.335C296.876 198.55 289.528 199.305 280.248 197.525C270.999 195.752 259.992 191.491 248.51 185.904C225.553 174.735 200.806 158.321 184.633 146.145L184.627 146.14C169.473 134.731 155.284 124.047 145.419 114.053C140.487 109.056 136.66 104.255 134.335 99.6451C132.012 95.0412 131.201 90.6589 132.246 86.4681C133.717 80.5977 138.835 75.1092 146.489 70.5637C154.129 66.0266 164.222 62.4742 175.494 60.4438C198.046 56.3816 225.21 58.4288 246.744 70.7309L246.744 70.7309C276.178 87.5387 287.373 119.08 295.032 140.688Z" stroke="#F46C9E"/>
<path d="M318.102 500.052L318.102 500.052C315.386 500.758 301.049 504.601 287.381 510.833C280.544 513.95 273.903 517.653 268.97 521.841C264.026 526.039 260.882 530.651 260.848 535.585L318.102 500.052ZM318.102 500.052C327.977 497.476 341.604 493.927 355.249 493.583C368.894 493.239 382.47 496.101 392.324 506.262L392.683 505.914M318.102 500.052L392.683 505.914M392.683 505.914L392.324 506.262C401.053 515.263 405.525 528.604 405.833 541.708C406.14 554.818 402.278 567.591 394.467 575.477C386.578 583.44 374.308 586.774 360.243 586.785M392.683 505.914L360.243 586.785M360.243 586.785C346.188 586.796 330.422 583.487 315.643 578.256M360.243 586.785L315.643 578.256M315.643 578.256C300.865 573.026 287.107 565.887 277.067 558.261M315.643 578.256L277.067 558.261M277.067 558.261C272.046 554.448 267.969 550.524 265.158 546.67M277.067 558.261L265.158 546.67M265.158 546.67C262.344 542.813 260.825 539.063 260.848 535.585L265.158 546.67Z" stroke="#F46C9E"/>
<path d="M906.918 699.931C907.227 686.826 911.699 673.485 920.422 664.484C930.275 654.317 943.855 651.451 957.501 651.794C971.147 652.137 984.774 655.686 994.643 658.261C997.359 658.974 1011.7 662.82 1025.36 669.054C1032.2 672.172 1038.84 675.875 1043.78 680.063C1048.72 684.261 1051.86 688.874 1051.9 693.807C1051.92 697.285 1050.4 701.035 1047.59 704.892C1044.78 708.746 1040.7 712.669 1035.68 716.482C1025.64 724.106 1011.89 731.245 997.107 736.474C982.328 741.703 966.56 745.012 952.504 745.002C938.438 744.992 926.167 741.659 918.278 733.699C910.467 725.813 906.608 713.041 906.918 699.931Z" stroke="#F46C9E"/>
</svg>
