<svg width="578" height="504" viewBox="0 0 578 504" fill="none" xmlns="http://www.w3.org/2000/svg">
<path d="M559.764 12.6019C543.718 -1.0154 516.254 -2.96816 509.102 7.27847C500.172 20.0783 532.237 40.7632 528.941 63.8726C524.442 95.4589 458.079 103.877 292.434 135.579C174.607 158.134 110.655 172.542 79.6868 137.299C64.5175 120.039 61.9372 96.0506 45.2946 94.1668C25.2358 91.9006 -2.88285 121.985 1.19435 144.262C6.81984 174.95 73.1104 188.407 149.015 203.808C240.466 222.368 274.141 215.677 296.525 245.455C314.158 268.92 298.23 279.679 317.512 329.55C330.44 362.983 339.099 362.02 381.79 429.551C411.908 477.199 413.624 487.22 429.492 495.599C462.488 513.028 504.573 495.856 528.774 483.275C536.735 460.175 543.201 429.614 528.072 410.718C508.826 386.678 472.759 404.193 437.934 386.294C388.791 361.038 357.184 273.017 382.385 215.421C419.223 131.225 561.893 147.633 576.177 72.2618C579.271 55.9209 577.727 27.8454 559.764 12.6019ZM324.342 317.67C319.763 304.582 318.191 292.873 317.709 284.154C321.372 295.318 325.534 306.968 330.268 319.025C335.383 332.039 340.673 344.256 345.987 355.671C339.466 347.885 330.484 335.228 324.342 317.67ZM336.368 320.125C334.078 313.581 333.292 307.723 333.052 303.371C334.883 308.949 336.961 314.778 339.331 320.803C341.885 327.311 344.531 333.422 347.191 339.129C343.929 335.229 339.434 328.898 336.368 320.125ZM511.342 427.199C518.865 439.113 522.385 450.212 524.131 457.589C519.796 449.112 514.979 440.264 509.637 431.121C504.687 422.651 499.73 414.695 494.841 407.254C499.656 411.752 505.73 418.317 511.342 427.199ZM501.218 429.204C506.679 437.86 509.237 445.919 510.504 451.282C507.355 445.123 503.858 438.696 499.975 432.055C496.384 425.907 492.775 420.127 489.226 414.724C492.729 417.986 497.149 422.748 501.218 429.204ZM490.465 429.005C497.988 440.919 501.508 452.018 503.254 459.394C498.919 450.918 494.109 442.067 488.76 432.927C483.81 424.456 478.853 416.5 473.964 409.06C478.781 413.564 484.853 420.122 490.465 429.005ZM382.926 372.995C377.94 363.747 375.372 355.164 373.979 348.693C378.049 356.611 382.547 364.842 387.525 373.305C392.902 382.438 398.312 390.96 403.65 398.871C397.835 393.816 389.611 385.4 382.926 372.995Z" fill="#2E2EED"/>
</svg>
