<svg width="571" height="492" viewBox="0 0 571 492" fill="none" xmlns="http://www.w3.org/2000/svg">
<path d="M58.8096 6.80645C76.6616 -3.20279 103.299 -0.0584073 108.264 10.9727C114.461 24.7516 79.984 38.556 78.8991 61.0987C77.4102 91.909 139.369 111.98 292.059 172.231C400.67 215.093 459.222 240.414 495.321 212.586C513.002 198.959 519.871 176.651 536.142 177.891C555.752 179.39 577.14 213.073 569.152 233.484C558.14 261.599 492.239 262.31 416.781 263.119C325.868 264.097 294.871 251.614 267.991 275.815C246.814 294.886 260.081 308.001 232.483 351.845C213.98 381.236 205.871 378.746 152.634 435.097C115.073 474.858 111.593 484.061 94.8726 489.129C60.1019 499.672 22.9809 475.707 2.13027 459.356C-1.2502 435.974 -1.83205 405.779 16.1114 390.59C38.9372 371.268 70.2367 394.463 106.844 383.806C158.501 368.769 204.89 290.945 191.341 231.67C171.533 145.02 32.0038 134.633 32.1604 60.4669C32.1976 44.388 38.8247 18.0109 58.8096 6.80645ZM228.127 339.321C234.909 327.728 238.561 316.896 240.622 308.705C235.068 318.638 228.949 328.943 222.208 339.529C214.926 350.955 207.624 361.592 200.445 371.464C208.113 365.258 219.029 354.875 228.127 339.321ZM216.169 339.463C219.56 333.667 221.387 328.248 222.415 324.159C219.639 329.122 216.582 334.279 213.209 339.568C209.571 345.282 205.919 350.604 202.326 355.538C206.163 352.429 211.626 347.236 216.169 339.463ZM29.0967 409.285C19.7129 419.228 14.309 429.126 11.285 435.812C16.9882 428.553 23.22 421.028 30.0092 413.319C36.2995 406.177 42.5021 399.525 48.5454 393.351C43.1128 396.745 36.0966 401.873 29.0967 409.285ZM38.4168 413.031C31.603 420.256 27.6774 427.443 25.4818 432.304C29.6245 427.029 34.1496 421.563 39.0827 415.965C43.6471 410.78 48.1605 405.949 52.548 401.465C48.5978 403.925 43.4946 407.642 38.4168 413.031ZM48.7425 414.799C39.3587 424.742 33.9546 434.64 30.9306 441.326C36.6338 434.067 42.8595 426.539 49.655 418.833C55.9453 411.691 62.1479 405.039 68.1912 398.864C62.7555 402.265 55.7423 407.387 48.7425 414.799ZM161.92 381.19C168.387 373.317 172.419 365.634 174.939 359.744C169.592 366.521 163.778 373.518 157.462 380.647C150.642 388.34 143.902 395.448 137.343 401.988C143.834 398.247 153.248 391.752 161.92 381.19Z" fill="#F28220"/>
</svg>
