<svg width="1549" height="786" viewBox="0 0 1549 786" fill="none" xmlns="http://www.w3.org/2000/svg">
<path fill-rule="evenodd" clip-rule="evenodd" d="M805.934 385.79C820.471 394.838 906.265 446.849 1020.42 448.407C1068.5 449.06 1092.17 440.365 1126.43 427.781C1153.54 417.823 1187.29 405.429 1245 393.306C1315.27 378.546 1369.15 375.09 1410.97 372.408C1471.81 368.506 1507.11 366.241 1530.15 333.199C1557.15 294.483 1553.41 233.346 1525.09 200.474C1479.12 147.117 1371.06 171.328 1308.1 185.435L1308.08 185.44C1255.35 197.26 1218.86 213.058 1188.68 226.127C1148.59 243.485 1119.61 256.031 1078.45 248.057C1024.78 237.658 986.573 199.367 962.375 167.91C892.584 102.474 762.103 3.58668 591.436 0.0986524C506.784 -1.62605 356.437 18.9675 341.615 85.2528C332.875 124.342 371.778 176.945 417.32 192.944C448.743 203.992 471.744 193.535 496.235 182.4C517.225 172.856 539.31 162.815 568.73 165.387C617.393 169.642 641.522 204.514 672.51 249.299C701.895 291.766 737.447 343.147 805.934 385.79ZM961.632 168.584C891.886 103.204 761.662 4.57786 591.416 1.09844C549.161 0.237538 490.507 4.94913 440.595 18.1388C415.637 24.7342 392.919 33.4355 375.538 44.5826C358.152 55.7332 346.216 69.2578 342.591 85.4711C338.307 104.629 345.686 127.26 359.925 147.176C374.15 167.071 395.103 184.079 417.652 192.001L417.652 192.001C446.441 202.123 468.042 193.99 490.592 183.857C492.335 183.074 494.083 182.279 495.841 181.48C516.814 171.942 539.125 161.795 568.817 164.391C616.754 168.582 641.123 202.224 670.94 245.273C671.729 246.412 672.521 247.558 673.319 248.71C702.701 291.173 738.153 342.409 806.463 384.941C820.951 393.959 906.555 445.853 1020.43 447.407C1063.34 447.99 1086.7 441.111 1115.68 430.645C1119.06 429.424 1122.52 428.155 1126.09 426.842C1153.21 416.881 1187.01 404.465 1244.8 392.327C1315.14 377.551 1369.1 374.09 1410.92 371.408C1420.42 370.799 1429.3 370.23 1437.6 369.578C1482.47 366.049 1510.18 360.088 1529.33 332.627C1542.68 313.483 1548.46 288.748 1547.37 264.69C1546.28 240.629 1538.32 217.357 1524.33 201.126C1501.65 174.804 1463.55 167.509 1422.98 168.655C1382.46 169.801 1339.79 179.359 1308.3 186.416C1255.66 198.214 1219.26 213.974 1189.08 227.042C1184.12 229.188 1179.34 231.26 1174.67 233.231C1141.59 247.212 1114.64 256.087 1078.26 249.039C1024.26 238.576 985.882 200.092 961.632 168.584Z" fill="#F46C9E"/>
<path fill-rule="evenodd" clip-rule="evenodd" d="M678.729 403.29L677.94 402.935C679.929 398.524 680.25 392.922 678.987 386.406C677.725 379.895 674.894 372.545 670.673 364.705C662.232 349.025 648.297 331.506 630.534 315.015C594.995 282.019 544.326 253.307 492.084 251.567C461.274 250.54 442.406 259.305 422.863 268.382C422.24 268.672 421.616 268.961 420.991 269.251C400.709 278.656 379.341 288.033 343.197 286.627C302.649 285.053 278.556 271.267 255.812 257.593C255.073 257.149 254.335 256.704 253.599 256.261C231.702 243.075 210.666 230.407 176.652 229.017L176.693 228.018C210.966 229.418 232.192 242.202 254.086 255.387C277.472 269.471 301.618 284.013 343.236 285.628C380.263 287.068 401.647 277.135 422.461 267.466C442.016 258.383 461.068 249.533 492.118 250.568C597.246 254.068 695.67 366.046 678.851 403.346C664.989 434.094 567.395 426.063 507.264 410.862C471.01 401.693 448.57 389.966 430.708 380.632C409.507 369.553 394.753 361.843 371 365.775C336.73 371.453 320.166 395.342 302.826 420.35C287.069 443.073 270.672 466.721 239.768 478.473C149.941 512.672 -3.11581 423.733 0.0482947 345.735C2.47324 286.091 96.5144 224.736 176.693 228.018L176.652 229.017C136.81 227.386 93.4595 241.822 59.7648 264.113C26.0254 286.434 2.24033 316.436 1.04747 345.776C0.269999 364.941 9.09083 384.891 24.3127 403.558C39.5258 422.214 61.0639 439.5 85.528 453.307C134.507 480.95 194.899 494.486 239.412 477.539L239.412 477.539C270.019 465.899 286.254 442.49 302.038 419.73C302.819 418.604 303.598 417.481 304.378 416.36C320.89 392.634 337.68 370.283 370.837 364.789C393.056 361.11 407.549 367.503 426.272 377.194C427.87 378.021 429.5 378.872 431.168 379.744C449.02 389.073 471.371 400.753 507.509 409.893C537.508 417.476 576.857 423.271 610.41 423.335C627.191 423.367 642.467 421.965 654.382 418.666C666.341 415.354 674.663 410.202 677.94 402.935L678.729 403.29Z" fill="#F46C9E"/>
<path fill-rule="evenodd" clip-rule="evenodd" d="M770.676 455.86L770.814 456.85C733.786 462.019 713.692 471.655 696.329 479.981C695.221 480.513 694.124 481.039 693.034 481.558C683.937 485.893 675.312 489.775 665.069 492.277C654.818 494.781 642.986 495.894 627.452 494.749L627.526 493.751C660.265 496.166 676.292 488.481 695.898 479.079C713.288 470.74 733.494 461.05 770.675 455.859C886.476 439.68 970.532 494.562 1016.41 524.526L1015.87 525.363C969.993 495.404 886.217 440.726 770.814 456.85L770.676 455.86ZM968.704 595.573C927.499 598.405 904.231 590.149 878.569 581.043C861.541 575.001 843.459 568.585 818.383 564.786C772.395 557.82 743.698 565.84 712.971 574.428C679.825 583.691 644.316 593.614 582.191 586.1C517.405 578.262 497.033 560.333 486.762 545.84C465.664 516.082 463.849 468.022 484.376 453.491C497.286 444.355 513.284 452.556 535.478 463.933C558.405 475.685 587.945 490.828 627.526 493.751L627.452 494.749C588.286 491.856 558.904 477.06 536.126 465.389C535.777 465.21 535.429 465.032 535.083 464.854C524.115 459.232 514.777 454.446 506.587 452.099C498.183 449.691 491.176 449.905 484.954 454.307C475.109 461.277 470.437 476.481 470.959 493.926C471.479 511.305 477.157 530.563 487.578 545.262L487.578 545.262C497.63 559.446 517.693 577.289 582.311 585.108C641.986 592.325 676.991 583.411 709.064 574.48C710.285 574.14 711.501 573.8 712.715 573.461C743.461 564.868 772.331 556.799 818.533 563.797C843.712 567.612 861.898 574.065 878.934 580.111C883.242 581.64 887.476 583.143 891.732 584.57C912.797 591.635 934.526 596.92 968.635 594.576C971.61 594.371 991.341 592.892 1010.85 588.371C1020.61 586.11 1030.25 583.1 1037.71 579.141C1045.2 575.158 1050.22 570.352 1051.22 564.615C1052.09 559.585 1049.84 554.033 1043.95 547.528C1038.08 541.035 1028.74 533.768 1015.87 525.363L1016.41 524.526C1042.2 541.361 1054.11 553.82 1052.2 564.786C1047.88 589.64 974.682 595.161 968.704 595.573Z" fill="#F46C9E"/>
<path fill-rule="evenodd" clip-rule="evenodd" d="M1370.32 543.014L1370.32 543.014C1383.87 532.571 1394.38 516.289 1399.75 499.33C1405.11 482.353 1405.27 464.876 1398.35 451.981C1392.45 440.992 1380.98 432.526 1365.93 426.866C1350.89 421.209 1332.36 418.392 1312.52 418.635C1272.83 419.122 1228.08 431.856 1195.7 458.306C1176.53 473.97 1158.89 496.728 1148.34 519.89C1137.77 543.097 1134.42 566.447 1143.39 583.471C1144.57 585.703 1151.35 598.517 1165.06 603.054C1177.2 607.065 1187.73 602.245 1200.36 593.91C1203.38 591.913 1206.52 589.718 1209.82 587.411C1220.22 580.141 1232.21 571.758 1247.21 564.969L1247.61 565.846L1247.21 564.969C1276.64 551.645 1298.88 552.932 1318.04 554.115L1318.29 554.131C1337.32 555.306 1353.12 556.282 1370.32 543.014ZM1164.75 604.003C1150.62 599.331 1143.69 586.177 1142.51 583.938C1124.13 549.057 1156.49 489.053 1195.06 457.532C1260.25 404.285 1375.02 406.396 1399.23 451.508C1413.41 477.945 1398.4 522.633 1370.93 543.806C1353.43 557.303 1337.3 556.307 1318.32 555.134C1299.11 553.948 1277 552.582 1247.62 565.88C1232.72 572.627 1220.83 580.935 1210.45 588.196C1193.43 600.093 1180.42 609.182 1164.75 604.003Z" fill="#F46C9E"/>
<path fill-rule="evenodd" clip-rule="evenodd" d="M505.877 679.944L505.877 679.944C501.715 693.955 505.411 711.04 514.114 726.597C522.808 742.137 536.411 755.986 551.795 763.516C571.333 773.074 586.615 768.959 605.016 764.005L605.262 763.939C623.795 758.95 645.312 753.247 676.844 760.414C692.906 764.066 706.35 769.879 718.011 774.92C721.714 776.521 725.237 778.045 728.607 779.396C742.67 785.036 753.962 787.653 765.044 781.296L765.044 781.296C777.558 774.123 781.596 760.216 782.294 757.792L782.294 757.792C787.617 739.323 779.603 717.116 764.539 696.494C749.506 675.913 727.614 657.145 705.659 645.639L706.112 644.775L705.659 645.639C668.573 626.201 622.152 622.671 583.174 630.126C563.692 633.852 546.119 640.314 532.534 648.861C518.94 657.414 509.424 667.999 505.877 679.944ZM783.255 758.069C794.161 720.228 750.304 667.908 706.124 644.753C631.469 605.625 519.481 630.621 504.918 679.659C496.385 708.387 520.168 749.149 551.355 764.414C571.231 774.137 586.837 769.936 605.19 764.994C623.764 759.994 645.15 754.236 676.622 761.389C692.584 765.019 705.909 770.779 717.558 775.815C736.645 784.067 751.231 790.372 765.541 782.163C778.431 774.775 782.555 760.501 783.255 758.069Z" fill="#F46C9E"/>
<path fill-rule="evenodd" clip-rule="evenodd" d="M300.877 193.976L300.877 193.976C305.363 189.63 305.89 182.025 304.119 172.403C302.363 162.86 298.433 151.766 294.561 140.855L294.561 140.855C286.894 119.225 275.747 87.8682 246.496 71.1651L246.496 71.165C225.09 58.9362 198.053 56.8884 175.583 60.9359C164.355 62.9584 154.322 66.4937 146.744 70.9936C139.139 75.5102 134.154 80.9075 132.732 86.5894C131.724 90.6303 132.495 94.8876 134.781 99.4199C137.073 103.963 140.86 108.722 145.775 113.701C155.609 123.666 169.767 134.326 184.934 145.745C201.091 157.909 225.81 174.303 248.729 185.455C260.195 191.033 271.156 195.273 280.342 197.034C289.59 198.807 296.715 198.01 300.877 193.976ZM131.761 86.3468C137.83 62.1108 203.667 45.5459 246.992 70.2967C276.606 87.207 287.85 118.928 295.501 140.512L295.504 140.521C303.232 162.298 311.35 185.221 301.572 194.694C283.431 212.276 216.712 170.922 184.332 146.544L184.3 146.52C154.021 123.723 127.432 103.704 131.761 86.3468Z" fill="#F46C9E"/>
<path d="M1043.13 680.826C1047.99 684.956 1050.87 689.318 1050.9 693.814C1050.92 696.998 1049.53 700.541 1046.78 704.303C1044.05 708.053 1040.05 711.91 1035.08 715.685C1025.14 723.235 1011.48 730.329 996.773 735.531C982.069 740.734 966.417 744.012 952.505 744.002C938.561 743.992 926.608 740.683 918.989 732.995C911.428 725.362 907.612 712.89 907.917 699.954C908.222 687.035 912.633 673.958 921.14 665.18C930.717 655.298 943.965 652.454 957.476 652.794C970.99 653.133 984.509 656.65 994.39 659.229C997.098 659.94 1011.37 663.768 1024.95 669.964C1031.75 673.065 1038.3 676.723 1043.13 680.826Z" stroke="#F36B9D"/>
<path d="M279.154 554.846C273.744 559.463 270.535 564.348 270.5 569.396C270.475 572.969 272.031 576.938 275.083 581.145C278.127 585.339 282.572 589.649 288.099 593.867C299.15 602.302 314.336 610.226 330.677 616.038C347.019 621.849 364.417 625.511 379.883 625.5C395.383 625.489 408.681 621.793 417.163 613.192C425.578 604.654 429.82 590.708 429.481 576.252C429.142 561.813 424.237 547.194 414.772 537.379C404.115 526.327 389.378 523.151 374.358 523.53C359.336 523.909 344.309 527.838 333.33 530.718C330.321 531.511 314.465 535.788 299.365 542.709C291.807 546.173 284.528 550.26 279.154 554.846Z" stroke="#F36B9D"/>
</svg>
