<svg width="449" height="959" viewBox="0 0 449 959" fill="none" xmlns="http://www.w3.org/2000/svg">
<path d="M443.093 608.96C430.145 594.771 390.846 612.599 388.567 613.653C379.697 617.765 343.126 634.742 343.465 666.506C343.55 673.984 345.663 681.429 349.138 688.187C332.633 705.409 315.642 714.91 298.417 716.512C275.529 718.626 258.545 706.117 237.047 690.275C226.936 682.823 216.478 675.117 204.468 668.344C181.859 655.603 154.912 646.954 125.299 642.797C112.076 622.857 93.5984 605.729 70.0345 591.608C69.8487 590.884 69.6629 590.16 69.4923 589.428C70.8192 567.039 71.3988 544.804 71.2579 522.769C71.7679 521.443 72.3204 520.103 72.9 518.757C94.1039 470.186 151.299 431.648 195.464 416.388C204.646 413.21 213.668 410.898 222.388 408.663C243.838 403.157 266.014 397.478 291.799 379.287C301.05 372.757 309.703 365.358 317.733 357.138C328.853 366.953 341.965 373.101 354.454 373.051C411.665 372.795 463.872 242.386 434.992 212.765C415.109 192.368 357.764 220.692 354.439 222.36C341.498 228.884 288.154 255.813 290.227 302.854C290.676 313.055 293.688 323.143 298.443 332.359C290.873 340.543 282.638 347.818 273.75 354.084C252.667 368.966 235.034 373.49 214.607 378.72C205.279 381.12 195.624 383.59 185.231 387.174C146.05 400.716 100.238 428.912 69.2799 466.508C67.8555 444.363 65.6562 422.43 62.7031 400.726C107.565 373.82 149.636 346.267 182.231 287.319C190.475 272.398 197.407 256.735 202.989 240.371C222.054 245.43 240.866 244.653 253.483 235.353C306.178 196.512 255.439 5.72314 203.588 0.921306C174.509 -1.7717 146.185 54.1404 136.304 84.936C130.432 103.218 110.246 166.105 149.748 208.913C156.599 216.34 165.033 222.918 174.215 228.295C169.08 243.726 162.665 258.486 154.937 272.453C128.7 319.895 95.6209 344.26 57.6076 367.611C50.382 325.923 40.3194 285.108 27.395 245.313C23.4031 232.997 19.0758 220.685 14.5061 208.465C15.8835 207.117 16.993 205.612 17.7377 203.976C25.895 186.11 -7.82174 151.069 -21.3558 155.807C-30.6742 159.065 -29.9739 181.026 -29.9275 182.289C-29.7478 186.816 -29.0334 204.196 -17.4701 211.903C-12.0064 226.088 -6.90953 240.447 -2.24768 254.798C11.4531 297.011 21.8345 340.423 28.9037 384.855C-9.98553 408.162 -53.1382 435.72 -94.5146 486.151C-114.61 510.642 -158.981 564.741 -175.797 634.296C-188.065 631.9 -197.742 627.393 -203.491 619.034C-211.371 607.58 -211.68 589.626 -204.433 565.68C-196.556 539.648 -179.872 507.214 -154.712 468.958C-146.67 471.53 -138.569 472.137 -131.435 470.212C-86.846 458.188 -73.4725 345.648 -102.22 328.497C-122.01 316.691 -160.825 350.652 -163.062 352.636C-171.786 360.412 -207.773 392.438 -196.279 428.714C-193.436 437.712 -187.988 445.891 -181.169 452.646C-207.794 493.235 -225.612 528.163 -234.276 556.792C-244.359 590.115 -242.663 616.925 -229.235 636.47C-217.842 653.045 -200.76 660.945 -181.142 664.663C-183.358 684.323 -182.664 701.928 -180.522 717.271C-163.44 839.711 -40.9363 908.416 -13.0528 923.241C-0.244069 931.354 19.0161 941.825 44.0567 949.44C44.0567 949.44 63.2436 955.27 82.4101 957.648C120.779 962.413 189.904 941.009 262.723 891.09C263.649 891.938 265.603 893.483 268.09 893.516C282.182 893.682 300.54 844.527 288.929 835.213C281.251 829.044 262.778 841.143 261.719 841.856C250.17 849.564 239.091 864.401 243.1 872.125C243.635 873.142 244.325 873.854 244.839 874.304C236.9 880.582 228.06 887.013 218.296 893.387C203.367 903.12 189.035 910.898 175.953 917.117C184.53 911.653 197.392 902.007 208.979 886.495C219.837 871.96 225.35 857.953 228.236 848.537C229.731 848.126 231.999 847.363 234.435 845.902C246.103 838.927 248.34 824.111 249.394 817.102C250.949 806.76 252.372 796.385 246.612 791.751C238.934 785.583 220.461 797.682 219.402 798.395C215.235 801.177 198.09 812.618 200.783 828.664C201.29 831.678 202.465 834.595 204.083 837.241C182.542 880.249 145.57 908.18 105.684 910.92C104.611 910.991 103.529 911.048 102.465 911.083C109.863 905.306 116.984 899.204 123.77 892.76C145.101 872.541 163.155 849.432 177.689 823.817C194.018 814.288 198.129 771.388 186.533 764.554C178.037 759.556 161.512 774.168 160.57 775.026C156.85 778.369 141.542 792.155 146.542 807.638C147.042 809.183 147.725 810.672 148.553 812.096C135.873 833.675 120.386 853.224 102.258 870.403C89.3596 882.632 75.1424 893.593 59.9434 903.078C58.2467 902.378 56.5592 901.641 54.8721 900.854C55.0726 900.676 55.2732 900.497 55.4769 900.306C74.1977 882.972 108.87 846.628 130.742 798.01C149.935 755.324 153.743 713.892 141.98 677.317C159.374 681.427 175.266 687.414 189.095 695.213C199.443 701.052 209.125 708.178 218.49 715.082C242.115 732.5 266.552 750.507 301.315 747.28C325.736 745.008 348.887 732.773 370.384 710.821C375.196 713.502 380.25 715.095 385.202 715.245C423.776 716.334 461.905 629.569 443.093 608.96ZM395.76 322.691C387.849 333.189 379.788 341.632 372.605 348.268C379.504 339.3 386.459 330.307 393.488 321.283C399.377 313.73 405.253 306.225 411.126 298.783C407.17 306.074 402.144 314.218 395.76 322.691ZM390.536 310.764C397.43 301.909 404.318 293.129 411.206 284.401C406.564 292.948 400.675 302.493 393.197 312.412C383.932 324.71 374.493 334.602 366.065 342.376C374.145 331.87 382.298 321.332 390.536 310.764ZM241.791 169.111C240.323 158.574 239.485 148.683 239.069 139.55C241.132 147.34 243.014 156.323 244.283 166.337C245.48 175.834 245.917 184.538 245.901 192.259C244.342 185.057 242.932 177.331 241.791 169.111ZM257.505 137.988C259.985 157.644 260.876 175.682 260.862 191.651C257.642 176.748 254.719 160.746 252.344 143.722C249.301 121.918 247.555 101.415 246.708 82.5075C250.972 98.6465 254.884 117.237 257.505 137.988ZM-70.3776 505.665C-36.0267 463.8 -0.895278 439.357 33.5563 418.24C37.4795 450.865 39.6498 484.001 40.0587 517.583C33.3771 537.651 32.6868 556.384 34.9841 574.308C29.1581 571.969 23.4994 569.928 18.1562 568.159C20.2555 562.578 20.9382 556.904 19.7648 551.842C12.5441 520.778 -65.8455 508.581 -78.6083 527.943C-87.3925 541.27 -64.6822 568.937 -63.3447 570.529C-58.1386 576.757 -36.6937 602.404 -10.9984 595.451C-9.06111 594.923 -7.15601 594.22 -5.31956 593.386C5.75097 596.383 19.6852 600.94 34.3274 607.733C35.2011 608.134 36.0414 608.565 36.9 608.975C36.5584 613.28 36.1864 617.603 35.7782 621.917C35.0941 629.238 34.3283 636.576 33.4928 643.934C17.0321 646.561 1.04971 650.471 -13.8794 655.531C-45.3263 636.083 -85.7468 636.465 -122.224 636.817C-129.83 636.884 -137.218 636.957 -144.279 636.857C-128.156 576.101 -88.4849 527.739 -70.3776 505.665ZM-149.647 713.118C-151.754 697.541 -151.718 682.331 -150.08 667.644C-140.787 667.916 -131.326 667.836 -121.925 667.74C-97.8799 667.517 -73.3575 667.288 -52.5273 672.732C-79.158 688.027 -97.394 707.515 -105.017 729.334C-115.617 759.628 -107.143 796.935 -80.5329 837.227C-80.09 837.901 -79.632 838.567 -79.1859 839.23C-119.752 801.283 -143.424 758.982 -149.647 713.118ZM-23.0194 859.277C-65.1148 814.659 -86.1249 769.576 -75.5993 739.468C-69.0901 720.863 -48.7305 703.359 -19.1429 690.656C-18.3442 691.446 -17.5668 692.27 -16.8198 693.111C17.7107 731.819 -6.72632 808.409 -23.0194 859.277ZM12.3749 679.938C17.923 678.478 23.5938 677.189 29.3481 676.075C28.0046 685.399 26.525 694.751 24.9364 704.127C21.9237 695.584 17.8114 687.463 12.3749 679.938ZM58.9376 741.946C54.7326 761.24 47.4309 779.976 37.0997 798.042C47.1581 757.307 55.0265 716.934 60.6615 677.09C63.7613 696.636 64.1948 717.788 58.9376 741.946ZM86.2196 815.248C70.5414 840.213 49.594 864.616 27.2525 883.965C22.6949 887.911 18.458 891.314 14.5505 894.239C13.2159 893.133 11.8933 892.03 10.5739 890.915C12.2166 885.856 13.808 880.797 15.3842 875.746C54.479 837.221 79.3781 794.405 89.382 748.46C95.7535 719.197 95.0145 693.805 91.2407 670.947C96.2982 671.086 101.282 671.359 106.196 671.755C107.118 673.611 107.997 675.482 108.816 677.389C130.306 727.382 108.391 779.947 86.2196 815.248Z" fill="#05A63E"/>
</svg>
