<svg width="683" height="959" viewBox="0 0 683 959" fill="none" xmlns="http://www.w3.org/2000/svg">
<path d="M671.872 530.163C655.776 519.614 622.177 546.574 620.233 548.157C612.671 554.329 581.501 579.793 589.785 610.476C591.741 617.698 595.653 624.389 600.711 630.078C589.038 650.83 574.96 664.223 558.677 670.024C537.037 677.716 517.453 669.789 492.661 659.747C481.001 655.022 468.941 650.137 455.611 646.538C430.52 639.774 402.252 638.042 372.527 641.319C354.724 625.267 332.536 613.234 306.175 605.368C305.814 604.713 305.452 604.057 305.104 603.389C300.781 581.376 295.772 559.696 290.116 538.387C290.278 536.978 290.478 535.543 290.702 534.096C299.074 481.82 344.82 430.385 383.777 404.711C391.875 399.368 400.035 394.903 407.921 390.587C427.318 379.964 447.376 368.994 467.795 345.014C475.12 336.407 481.648 327.106 487.367 317.163C500.597 323.928 514.837 326.649 526.921 323.52C582.273 309.162 600.176 169.969 564.782 148.401C540.414 133.548 491.964 175.126 489.161 177.562C478.26 187.073 433.336 226.314 447.127 271.368C450.117 281.138 455.561 290.166 462.475 297.92C457.193 307.715 451.039 316.792 444 325.053C427.306 344.668 411.359 353.399 392.884 363.503C384.45 368.128 375.717 372.902 366.547 378.937C331.988 401.718 294.676 440.328 274.108 484.38C267.181 463.281 259.556 442.579 251.259 422.284C287.974 385.158 321.822 348.094 338.629 282.956C342.877 266.47 345.667 249.589 346.976 232.361C366.709 232.559 384.736 227.167 394.628 215.047C435.939 164.428 339.002 -7.85877 287.575 0.278836C258.734 4.84233 245.304 65.9857 243.448 98.2517C242.339 117.408 238.54 183.301 287.525 215.023C296.022 220.526 305.839 224.817 316.079 227.761C314.97 243.974 312.454 259.854 308.467 275.288C294.938 327.712 269 359.471 238.029 391.465C220.587 352.867 200.617 315.815 178.13 280.457C171.178 269.512 163.903 258.654 156.415 247.944C157.412 246.299 158.11 244.568 158.421 242.799C161.847 223.482 120.411 197.857 108.489 205.784C100.279 211.238 106.458 232.337 106.819 233.549C108.127 237.89 113.173 254.548 126.304 259.161C135.149 271.553 143.683 284.205 151.793 296.955C175.638 334.465 196.568 373.953 214.545 415.247C182.714 447.414 147.819 484.751 120.374 543.804C107.043 572.484 77.6173 635.828 78.7509 707.348C66.2679 708.053 55.7656 706.074 48.1038 699.396C37.6016 690.244 32.8052 672.93 33.8268 647.948C34.9355 620.79 42.9711 585.259 57.7589 541.999C66.1931 542.506 74.1913 541.096 80.6197 537.472C120.797 514.828 105.561 402.522 73.4189 392.999C51.2931 386.444 22.2033 428.913 20.5339 431.387C14.0307 441.07 -12.8042 480.967 7.41542 513.27C12.4236 521.284 19.749 527.863 28.0462 532.723C12.4236 578.605 3.91468 616.832 2.69377 646.699C1.27354 681.463 9.63298 707.014 27.5354 722.634C42.7219 735.879 61.2472 739.317 81.1803 738.08C83.9585 757.67 89.0414 774.551 94.959 788.885C142.176 903.269 278.044 939.604 308.766 947.086C323.205 951.785 344.484 957.177 370.646 958.377C370.646 958.377 390.691 959.292 409.852 956.868C448.211 952.02 509.804 914.239 567.834 847.926C568.943 848.519 571.223 849.533 573.64 848.952C587.331 845.638 592.8 793.498 579.221 787.339C570.239 783.258 555.376 799.533 554.529 800.485C545.272 810.799 538.258 827.903 544.076 834.396C544.849 835.249 545.696 835.769 546.306 836.078C540.189 844.117 533.238 852.526 525.377 861.109C513.354 874.218 501.42 885.287 490.307 894.538C497.246 887.13 507.287 874.614 514.625 856.731C521.502 839.974 523.334 825.046 523.77 815.214C525.115 814.448 527.121 813.149 529.114 811.133C538.669 801.499 537.125 786.597 536.39 779.547C535.306 769.147 534.085 758.746 527.345 755.679C518.363 751.598 503.5 767.873 502.653 768.825C499.314 772.548 485.573 787.858 492.2 802.736C493.446 805.531 495.315 808.066 497.545 810.23C487.454 857.201 458.638 893.375 420.691 905.866C419.669 906.2 418.635 906.521 417.613 906.818C423.332 899.398 428.701 891.73 433.66 883.815C449.257 858.97 460.955 832.133 468.617 803.738C482.047 790.48 475.282 747.912 462.338 744.153C452.858 741.407 440.512 759.636 439.814 760.7C437.048 764.855 425.674 781.984 434.395 795.749C435.267 797.121 436.301 798.395 437.459 799.57C430.582 823.599 420.479 846.355 407.223 867.466C397.792 882.492 386.767 896.615 374.421 909.551C372.602 909.292 370.783 908.995 368.952 908.649C369.101 908.426 369.251 908.203 369.4 907.968C383.191 886.561 407.672 842.806 416.679 790.319C424.578 744.239 417.887 703.168 397.331 670.642C415.209 670.333 432.102 672.213 447.451 676.356C458.937 679.46 470.1 683.974 480.901 688.352C508.147 699.396 536.327 710.811 569.192 699.111C592.277 690.887 611.637 673.326 626.961 646.761C632.293 648.171 637.587 648.468 642.421 647.392C680.057 638.933 695.256 545.486 671.872 530.163ZM554.317 264.553C549.284 276.673 543.59 286.839 538.296 295.038C542.731 284.65 547.216 274.224 551.763 263.749C555.575 254.981 559.387 246.262 563.212 237.605C561.206 245.644 558.378 254.771 554.317 264.553ZM546.269 254.288C550.729 244.011 555.202 233.808 559.686 223.655C557.332 233.079 554.018 243.776 549.259 255.228C543.366 269.426 536.701 281.335 530.484 290.945C535.68 278.775 540.937 266.557 546.269 254.288ZM366.709 153.768C362.648 143.924 359.359 134.549 356.668 125.806C360.617 132.843 364.691 141.079 368.429 150.466C371.967 159.37 374.57 167.693 376.489 175.176C373.175 168.584 369.874 161.448 366.709 153.768ZM374.134 119.746C381.46 138.173 386.842 155.425 390.828 170.896C383.976 157.255 377.137 142.477 370.571 126.573C362.162 106.204 355.335 86.7749 349.779 68.6694C357.951 83.2503 366.398 100.292 374.134 119.746ZM148.641 556.753C171.427 507.729 199.334 475.389 227.414 446.437C239.387 477.071 249.789 508.632 258.597 541.059C257.152 562.145 261.176 580.461 267.891 597.255C261.662 596.427 255.67 595.845 250.051 595.45C250.686 589.526 249.926 583.862 247.522 579.249C232.746 550.94 153.762 558.459 146.249 580.362C141.079 595.437 170.007 616.635 171.701 617.847C178.304 622.596 205.5 642.148 228.648 629.076C230.392 628.087 232.061 626.936 233.631 625.675C245.105 625.848 259.743 626.825 275.628 629.793C276.574 629.966 277.496 630.177 278.431 630.362C279.178 634.616 279.901 638.896 280.586 643.175C281.757 650.434 282.853 657.731 283.887 665.065C268.601 671.669 254.1 679.398 240.907 687.981C205.575 676.9 166.519 687.239 131.275 696.576C123.924 698.518 116.786 700.41 109.921 702.055C110.32 639.229 136.632 582.6 148.641 556.753ZM123.825 777.247C117.882 762.679 114.107 747.937 112.014 733.307C121.084 731.278 130.228 728.867 139.31 726.455C162.545 720.309 186.24 714.039 207.78 714.175C185.817 735.557 173.034 758.931 171.116 781.947C168.437 813.903 185.991 847.95 221.858 880.414C222.456 880.958 223.066 881.49 223.664 882.022C174.866 855.272 141.341 820.137 123.825 777.247ZM283.09 887.587C231.139 854.752 199.496 816.266 202.149 784.507C203.794 764.88 219.13 742.904 244.607 723.302C245.578 723.87 246.538 724.476 247.472 725.107C290.615 754.083 286.13 834.297 283.09 887.587ZM272.451 705.147C277.459 702.364 282.629 699.717 287.924 697.219C288.958 706.581 289.867 716.005 290.677 725.478C285.619 717.947 279.602 711.095 272.451 705.147ZM333.085 753.725C333.845 773.451 331.465 793.399 325.983 813.446C325.523 771.509 323.031 730.462 318.509 690.479C326.407 708.646 332.125 729.028 333.085 753.725ZM377.872 817.997C368.939 846.046 354.762 874.849 337.968 899.101C334.542 904.048 331.291 908.389 328.238 912.186C326.669 911.443 325.111 910.701 323.554 909.947C323.878 904.642 324.152 899.348 324.414 894.068C352.632 847.109 366.024 799.496 364.205 752.525C363.047 722.609 355.97 698.196 346.589 676.986C351.523 675.873 356.419 674.909 361.277 674.08C362.635 675.651 363.956 677.246 365.227 678.891C398.565 722.015 390.504 778.336 377.872 817.997Z" fill="#05A63E"/>
</svg>
