<svg width="690" height="959" viewBox="0 0 690 959" fill="none" xmlns="http://www.w3.org/2000/svg">
<path d="M684.093 608.927C671.145 594.739 631.846 612.567 629.567 613.621C620.697 617.733 584.126 634.71 584.465 666.473C584.55 673.952 586.663 681.397 590.138 688.155C573.633 705.377 556.642 714.878 539.417 716.48C516.529 718.594 499.545 706.085 478.047 690.243C467.936 682.791 457.478 675.085 445.468 668.311C422.859 655.57 395.912 646.922 366.299 642.765C353.076 622.825 334.598 605.697 311.034 591.576C310.849 590.852 310.663 590.128 310.492 589.395C311.819 567.006 312.399 544.772 312.258 522.737C312.768 521.411 313.32 520.071 313.9 518.725C335.104 470.154 392.299 431.616 436.464 416.356C445.646 413.178 454.668 410.866 463.388 408.63C484.838 403.125 507.014 397.446 532.799 379.255C542.05 372.724 550.703 365.326 558.733 357.105C569.853 366.921 582.965 373.069 595.454 373.018C652.665 372.763 704.872 242.354 675.992 212.733C656.109 192.336 598.764 220.66 595.439 222.328C582.498 228.851 529.154 255.781 531.227 302.822C531.676 313.023 534.688 323.11 539.443 332.327C531.873 340.511 523.638 347.786 514.75 354.052C493.667 368.933 476.034 373.458 455.607 378.688C446.279 381.088 436.624 383.558 426.231 387.142C387.05 400.684 341.238 428.88 310.28 466.476C308.856 444.331 306.656 422.398 303.703 400.694C348.565 373.788 390.636 346.235 423.231 287.286C431.475 272.366 438.407 256.703 443.989 240.339C463.054 245.398 481.866 244.621 494.483 235.321C547.178 196.48 496.439 5.69092 444.588 0.889079C415.509 -1.80392 387.185 54.1082 377.304 84.9037C371.432 103.186 351.246 166.073 390.748 208.881C397.599 216.307 406.033 222.886 415.215 228.262C410.08 243.693 403.665 258.454 395.937 272.42C369.7 319.863 336.621 344.228 298.608 367.579C291.382 325.89 281.319 285.076 268.395 245.281C264.403 232.965 260.076 220.653 255.506 208.433C256.884 207.085 257.993 205.58 258.738 203.944C266.895 186.078 233.178 151.037 219.644 155.775C210.326 159.033 211.026 180.993 211.072 182.256C211.252 186.784 211.967 204.164 223.53 211.871C228.994 226.055 234.09 240.415 238.752 254.766C252.453 296.979 262.835 340.39 269.904 384.822C231.014 408.129 187.862 435.687 146.485 486.118C126.39 510.61 82.0195 564.709 65.2026 634.264C52.9347 631.868 43.2577 627.361 37.5093 619.002C29.629 607.547 29.3202 589.594 36.5674 565.648C44.4443 539.616 61.1278 507.182 86.2879 468.926C94.3304 471.497 102.431 472.104 109.565 470.18C154.154 458.156 167.528 345.616 138.78 328.465C118.99 316.659 80.175 350.62 77.9384 352.604C69.2137 360.38 33.2273 392.406 44.7207 428.682C47.5643 437.68 53.0117 445.859 59.831 452.613C33.2057 493.203 15.3883 528.131 6.72432 556.76C-3.35945 590.082 -1.66256 616.893 11.7654 636.438C23.1575 653.013 40.2402 660.912 59.8575 664.631C57.6415 684.291 58.3363 701.896 60.4778 717.239C77.5603 839.679 200.064 908.384 227.947 923.209C240.756 931.322 260.016 941.793 285.057 949.408C285.057 949.408 304.244 955.238 323.41 957.616C361.779 962.381 430.904 940.976 503.723 891.057C504.649 891.906 506.603 893.45 509.09 893.483C523.182 893.65 541.54 844.495 529.929 835.18C522.251 829.012 503.778 841.111 502.719 841.824C491.17 849.532 480.091 864.369 484.1 872.093C484.635 873.11 485.325 873.822 485.839 874.272C477.9 880.549 469.06 886.981 459.296 893.355C444.367 903.088 430.035 910.866 416.953 917.085C425.53 911.621 438.392 901.975 449.979 886.463C460.837 871.927 466.35 857.92 469.236 848.505C470.731 848.094 472.999 847.331 475.435 845.87C487.103 838.895 489.34 824.079 490.394 817.07C491.949 806.728 493.372 796.352 487.612 791.719C479.934 785.551 461.461 797.649 460.402 798.363C456.235 801.145 439.09 812.586 441.783 828.631C442.29 831.646 443.465 834.563 445.083 837.209C423.542 880.217 386.57 908.148 346.684 910.888C345.611 910.959 344.529 911.016 343.465 911.051C350.863 905.274 357.984 899.171 364.77 892.728C386.101 872.509 404.155 849.399 418.689 823.785C435.018 814.256 439.129 771.356 427.533 764.521C419.037 759.524 402.512 774.136 401.57 774.994C397.85 778.337 382.542 792.122 387.542 807.606C388.042 809.151 388.725 810.64 389.553 812.063C376.873 833.643 361.386 853.192 343.258 870.371C330.36 882.6 316.142 893.56 300.943 903.045C299.247 902.345 297.559 901.609 295.872 900.822C296.073 900.643 296.273 900.465 296.477 900.274C315.198 882.94 349.87 846.595 371.742 797.978C390.935 755.292 394.743 713.859 382.98 677.285C400.374 681.394 416.266 687.382 430.095 695.18C440.443 701.02 450.125 708.146 459.49 715.05C483.115 732.467 507.552 750.475 542.315 747.248C566.736 744.976 589.887 732.74 611.384 710.789C616.196 713.47 621.25 715.063 626.202 715.213C664.776 716.302 702.905 629.537 684.093 608.927ZM636.76 322.659C628.849 333.157 620.788 341.6 613.605 348.236C620.504 339.267 627.459 330.275 634.488 321.25C640.377 313.698 646.253 306.193 652.126 298.751C648.17 306.042 643.144 314.185 636.76 322.659ZM631.536 310.731C638.43 301.877 645.318 293.097 652.206 284.369C647.564 292.916 641.675 302.46 634.197 312.379C624.932 324.678 615.493 334.57 607.065 342.344C615.145 331.838 623.298 321.3 631.536 310.731ZM482.791 169.079C481.323 158.542 480.485 148.651 480.069 139.518C482.132 147.308 484.014 156.291 485.283 166.305C486.48 175.802 486.917 184.506 486.901 192.227C485.342 185.025 483.932 177.298 482.791 169.079ZM498.505 137.956C500.985 157.611 501.876 175.65 501.862 191.619C498.642 176.716 495.719 160.714 493.344 143.69C490.301 121.886 488.555 101.383 487.708 82.4752C491.972 98.6142 495.884 117.205 498.505 137.956ZM170.622 505.632C204.973 463.767 240.105 439.325 274.556 418.208C278.479 450.833 280.65 483.969 281.059 517.551C274.377 537.618 273.687 556.352 275.984 574.276C270.158 571.937 264.499 569.896 259.156 568.127C261.256 562.545 261.938 556.871 260.765 551.81C253.544 520.746 175.155 508.548 162.392 527.91C153.607 541.238 176.318 568.905 177.655 570.496C182.861 576.725 204.306 602.372 230.002 595.419C231.939 594.891 233.844 594.188 235.68 593.354C246.751 596.351 260.685 600.908 275.327 607.701C276.201 608.102 277.041 608.533 277.9 608.943C277.558 613.248 277.186 617.571 276.778 621.885C276.094 629.205 275.328 636.544 274.493 643.902C258.032 646.529 242.05 650.439 227.121 655.499C195.674 636.051 155.253 636.433 118.776 636.784C111.17 636.852 103.782 636.924 96.7207 636.824C112.844 576.069 152.515 527.707 170.622 505.632ZM91.3526 713.086C89.2459 697.509 89.2822 682.299 90.9196 667.612C100.213 667.884 109.674 667.804 119.075 667.708C143.12 667.485 167.643 667.255 188.473 672.7C161.842 687.995 143.606 707.482 135.983 729.302C125.383 759.596 133.857 796.903 160.467 837.195C160.91 837.869 161.368 838.535 161.814 839.197C121.248 801.251 97.5757 758.95 91.3526 713.086ZM217.981 859.245C175.885 814.627 154.875 769.544 165.401 739.436C171.91 720.831 192.27 703.326 221.857 690.623C222.656 691.414 223.433 692.238 224.18 693.079C258.711 731.787 234.274 808.377 217.981 859.245ZM253.375 679.906C258.923 678.445 264.594 677.157 270.348 676.043C269.005 685.366 267.525 694.719 265.936 704.094C262.924 695.552 258.811 687.431 253.375 679.906ZM299.938 741.914C295.733 761.208 288.431 779.943 278.1 798.01C288.158 757.275 296.026 716.902 301.661 677.058C304.761 696.603 305.195 717.755 299.938 741.914ZM327.22 815.216C311.541 840.181 290.594 864.584 268.252 883.932C263.695 887.879 259.458 891.282 255.55 894.206C254.216 893.101 252.893 891.998 251.574 890.883C253.217 885.824 254.808 880.764 256.384 875.714C295.479 837.189 320.378 794.373 330.382 748.428C336.753 719.165 336.014 693.773 332.241 670.915C337.298 671.053 342.282 671.327 347.196 671.722C348.118 673.579 348.997 675.45 349.816 677.356C371.306 727.35 349.391 779.914 327.22 815.216Z" fill="#05A63E"/>
</svg>
