<svg width="683" height="960" viewBox="0 0 683 960" fill="none" xmlns="http://www.w3.org/2000/svg">
<path d="M671.872 530.895C655.776 520.345 622.177 547.306 620.233 548.889C612.671 555.06 581.501 580.524 589.785 611.207C591.741 618.43 595.653 625.12 600.711 630.809C589.038 651.561 574.96 664.955 558.677 670.755C537.037 678.448 517.453 670.52 492.661 660.478C481.001 655.754 468.941 650.869 455.611 647.27C430.52 640.505 402.252 638.774 372.527 642.051C354.724 625.998 332.536 613.965 306.175 606.1C305.814 605.444 305.452 604.789 305.104 604.121C300.781 582.107 295.772 560.428 290.116 539.119C290.278 537.709 290.478 536.274 290.702 534.827C299.074 482.551 344.82 431.116 383.777 405.442C391.875 400.099 400.035 395.635 407.921 391.319C427.318 380.695 447.376 369.726 467.795 345.746C475.12 337.138 481.648 327.838 487.367 317.895C500.597 324.66 514.837 327.38 526.921 324.251C582.273 309.893 600.176 170.7 564.782 149.132C540.414 134.279 491.964 175.858 489.161 178.294C478.26 187.804 433.336 227.045 447.127 272.099C450.117 281.869 455.561 290.897 462.475 298.651C457.193 308.446 451.039 317.524 444 325.785C427.306 345.399 411.359 354.131 392.884 364.234C384.45 368.86 375.717 373.634 366.547 379.669C331.988 402.449 294.676 441.059 274.108 485.111C267.181 464.013 259.556 443.31 251.259 423.016C287.974 385.889 321.822 348.825 338.629 283.687C342.877 267.202 345.667 250.32 346.976 233.093C366.709 233.291 384.736 227.899 394.628 215.779C435.939 165.16 339.002 -7.12733 287.575 1.01028C258.734 5.57377 245.304 66.7171 243.448 98.9831C242.339 118.14 238.54 184.032 287.525 215.754C296.022 221.257 305.839 225.549 316.079 228.492C314.97 244.706 312.454 260.585 308.467 276.019C294.938 328.444 269 360.203 238.029 392.197C220.587 353.599 200.617 316.547 178.13 281.189C171.178 270.244 163.903 259.385 156.415 248.676C157.412 247.031 158.11 245.299 158.421 243.531C161.847 224.213 120.411 198.588 108.489 206.516C100.279 211.97 106.458 233.068 106.819 234.28C108.127 238.621 113.173 255.28 126.304 259.893C135.149 272.284 143.683 284.936 151.793 297.687C175.638 335.196 196.568 374.685 214.545 415.979C182.714 448.146 147.819 485.482 120.374 544.536C107.043 573.215 77.6173 636.56 78.7509 708.079C66.2679 708.784 55.7656 706.805 48.1038 700.127C37.6016 690.975 32.8052 673.661 33.8268 648.68C34.9355 621.521 42.9711 585.99 57.7589 542.73C66.1931 543.237 74.1913 541.827 80.6197 538.204C120.797 515.559 105.561 403.253 73.4189 393.73C51.2931 387.176 22.2033 429.645 20.5339 432.118C14.0307 441.801 -12.8042 481.698 7.41542 514.001C12.4236 522.015 19.749 528.594 28.0462 533.455C12.4236 579.337 3.91468 617.564 2.69377 647.431C1.27354 682.195 9.63298 707.745 27.5354 723.365C42.7219 736.61 61.2472 740.048 81.1803 738.812C83.9585 758.401 89.0414 775.283 94.959 789.616C142.176 904 278.044 940.335 308.766 947.817C323.205 952.517 344.484 957.909 370.646 959.108C370.646 959.108 390.691 960.024 409.852 957.6C448.211 952.752 509.804 914.97 567.834 848.657C568.943 849.251 571.223 850.265 573.64 849.684C587.331 846.369 592.8 794.229 579.221 788.07C570.239 783.989 555.376 800.264 554.529 801.217C545.272 811.531 538.258 828.635 544.076 835.127C544.849 835.981 545.696 836.5 546.306 836.809C540.189 844.848 533.238 853.258 525.377 861.84C513.354 874.95 501.42 886.018 490.307 895.269C497.246 887.861 507.287 875.345 514.625 857.463C521.502 840.705 523.334 825.778 523.77 815.946C525.115 815.179 527.121 813.881 529.114 811.865C538.669 802.231 537.125 787.328 536.39 780.279C535.306 769.878 534.085 759.477 527.345 756.41C518.363 752.329 503.5 768.604 502.653 769.557C499.314 773.279 485.573 788.59 492.2 803.467C493.446 806.262 495.315 808.798 497.545 810.962C487.454 857.932 458.638 894.106 420.691 906.597C419.669 906.931 418.635 907.253 417.613 907.55C423.332 900.129 428.701 892.462 433.66 884.547C449.257 859.701 460.955 832.864 468.617 804.469C482.047 791.211 475.282 748.644 462.338 744.884C452.858 742.139 440.512 760.368 439.814 761.431C437.048 765.587 425.674 782.715 434.395 796.48C435.267 797.853 436.301 799.126 437.459 800.301C430.582 824.331 420.479 847.086 407.223 868.197C397.792 883.223 386.767 897.347 374.421 910.283C372.602 910.023 370.783 909.726 368.952 909.38C369.101 909.157 369.251 908.935 369.4 908.7C383.191 887.292 407.672 843.537 416.679 791.051C424.578 744.971 417.887 703.899 397.331 671.373C415.209 671.064 432.102 672.944 447.451 677.087C458.937 680.191 470.1 684.705 480.901 689.083C508.147 700.127 536.327 711.542 569.192 699.843C592.277 691.619 611.637 674.057 626.961 647.492C632.293 648.902 637.587 649.199 642.421 648.123C680.057 639.664 695.256 546.218 671.872 530.895ZM554.317 265.285C549.284 277.404 543.59 287.57 538.296 295.77C542.731 285.381 547.216 274.956 551.763 264.481C555.575 255.712 559.387 246.994 563.212 238.337C561.206 246.375 558.378 255.502 554.317 265.285ZM546.269 255.02C550.729 244.743 555.202 234.54 559.686 224.386C557.332 233.81 554.018 244.508 549.259 255.96C543.366 270.157 536.701 282.067 530.484 291.676C535.68 279.507 540.937 267.288 546.269 255.02ZM366.709 154.499C362.648 144.655 359.359 135.281 356.668 126.537C360.617 133.574 364.691 141.811 368.429 151.197C371.967 160.102 374.57 168.425 376.489 175.907C373.175 169.315 369.874 162.179 366.709 154.499ZM374.134 120.477C381.46 138.904 386.842 156.157 390.828 171.628C383.976 157.987 377.137 143.208 370.571 127.304C362.162 106.935 355.335 87.5064 349.779 69.4008C357.951 83.9817 366.398 101.024 374.134 120.477ZM148.641 557.484C171.427 508.461 199.334 476.12 227.414 447.169C239.387 477.802 249.789 509.363 258.597 541.79C257.152 562.876 261.176 581.192 267.891 597.987C261.662 597.158 255.67 596.577 250.051 596.181C250.686 590.257 249.926 584.593 247.522 579.98C232.746 551.672 153.762 559.191 146.249 581.093C141.079 596.169 170.007 617.366 171.701 618.578C178.304 623.327 205.5 642.88 228.648 629.807C230.392 628.818 232.061 627.668 233.631 626.406C245.105 626.58 259.743 627.557 275.628 630.525C276.574 630.698 277.496 630.908 278.431 631.094C279.178 635.348 279.901 639.627 280.586 643.906C281.757 651.166 282.853 658.462 283.887 665.796C268.601 672.4 254.1 680.129 240.907 688.712C205.575 677.631 166.519 687.97 131.275 697.308C123.924 699.249 116.786 701.141 109.921 702.786C110.32 639.961 136.632 583.332 148.641 557.484ZM123.825 777.979C117.882 763.41 114.107 748.668 112.014 734.038C121.084 732.01 130.228 729.598 139.31 727.187C162.545 721.04 186.24 714.77 207.78 714.906C185.817 736.289 173.034 759.663 171.116 782.678C168.437 814.635 185.991 848.682 221.858 881.146C222.456 881.69 223.066 882.222 223.664 882.753C174.866 856.003 141.341 820.868 123.825 777.979ZM283.09 888.319C231.139 855.484 199.496 816.997 202.149 785.238C203.794 765.611 219.13 743.635 244.607 724.033C245.578 724.602 246.538 725.208 247.472 725.839C290.615 754.815 286.13 835.028 283.09 888.319ZM272.451 705.878C277.459 703.095 282.629 700.449 287.924 697.951C288.958 707.313 289.867 716.736 290.677 726.21C285.619 718.678 279.602 711.827 272.451 705.878ZM333.085 754.456C333.845 774.182 331.465 794.13 325.983 814.177C325.523 772.24 323.031 731.194 318.509 691.21C326.407 709.378 332.125 729.759 333.085 754.456ZM377.872 818.729C368.939 846.777 354.762 875.58 337.968 899.833C334.542 904.779 331.291 909.12 328.238 912.917C326.669 912.175 325.111 911.433 323.554 910.678C323.878 905.373 324.152 900.08 324.414 894.799C352.632 847.841 366.024 800.227 364.205 753.257C363.047 723.34 355.97 698.928 346.589 677.718C351.523 676.605 356.419 675.64 361.277 674.812C362.635 676.382 363.956 677.978 365.227 679.622C398.565 722.747 390.504 779.067 377.872 818.729Z" fill="#F46C9E"/>
</svg>
