<svg width="504" height="682" viewBox="0 0 504 682" fill="none" xmlns="http://www.w3.org/2000/svg">
<path d="M43.8521 456.995C50.9385 445.78 79.397 455.564 81.0497 456.146C87.4835 458.418 114.011 467.801 117.409 490.687C118.205 496.076 117.635 501.598 116.07 506.731C129.134 517.846 141.643 523.366 153.407 523.184C169.038 522.931 179.029 512.612 191.675 499.544C197.623 493.397 203.775 487.041 211.077 481.235C224.824 470.312 241.955 461.999 261.391 456.712C268.006 441.336 278.474 427.577 292.706 415.588C292.748 415.052 292.79 414.517 292.821 413.976C289.373 397.966 286.445 382.009 284.024 366.139C283.53 365.225 283.006 364.303 282.462 363.379C262.66 330.067 219.804 306.765 188.367 299.206C181.83 297.631 175.5 296.667 169.382 295.734C154.331 293.434 138.772 291.066 119.358 279.973C112.392 275.99 105.73 271.337 99.3924 266.043C93.0356 273.969 84.9218 279.41 76.5188 280.342C38.0223 284.593 -11.9682 194.786 4.06842 171.229C15.1086 155.008 56.8989 170.947 59.3253 171.89C68.7713 175.582 107.713 190.827 111.689 224.843C112.552 232.22 111.679 239.713 109.534 246.714C115.558 252.018 121.925 256.615 128.616 260.436C144.491 269.511 156.864 271.4 171.195 273.581C177.741 274.585 184.515 275.614 191.912 277.388C219.802 284.097 253.824 300.838 278.931 325.496C277.361 309.448 276.336 293.492 275.844 277.643C242.608 261.757 211.175 245.188 182.529 205.29C175.283 195.192 168.834 184.456 163.212 173.112C150.971 178.231 138.234 179.13 128.688 173.415C88.8239 149.546 101.158 8.30385 135.474 0.828404C154.718 -3.36393 180.145 34.6798 190.304 56.0772C196.34 68.7794 217.092 112.474 195.419 146.345C191.66 152.221 186.74 157.609 181.18 162.19C186.395 172.897 192.394 183.023 199.184 192.476C222.241 224.586 247.264 239.556 275.489 253.415C275.588 222.852 277.694 192.698 281.841 163.057C283.119 153.883 284.623 144.687 286.301 135.538C285.221 134.675 284.303 133.678 283.615 132.558C276.091 120.332 294.761 92.5001 304.402 94.8608C311.039 96.4831 313.075 112.342 313.188 113.255C313.584 116.527 315.088 129.091 308.193 135.534C306.139 146.166 304.351 156.895 302.855 167.585C298.462 199.027 296.438 231.075 296.757 263.6C325.566 277.359 357.727 293.847 391.305 326.934C407.613 343.003 443.622 378.498 462.87 427.252C470.845 424.577 476.837 420.583 479.748 414.122C483.739 405.267 481.897 392.322 474.29 375.65C466.022 357.526 451.102 335.476 429.817 309.895C424.703 312.369 419.326 313.434 414.31 312.602C382.956 307.405 361.116 227.447 378.488 212.875C390.446 202.844 420.421 224.277 422.152 225.532C428.905 230.451 456.758 250.71 453.172 277.709C452.287 284.405 449.558 290.714 445.744 296.104C468.28 323.251 484.247 347.008 493.341 366.94C503.925 390.14 505.845 409.567 499.048 424.675C493.28 437.487 482.696 444.496 469.931 448.693C473.665 462.67 475.208 475.394 475.52 486.603C478.012 576.046 403.488 634.989 386.432 647.82C378.746 654.652 366.991 663.681 351.024 671.102C351.024 671.102 338.789 676.785 326.173 679.983C300.919 686.386 251.998 676.34 197.337 646.059C196.812 646.741 195.674 648.004 194.006 648.221C184.55 649.433 166.594 615.48 173.338 607.876C177.796 602.842 191.598 610.117 192.392 610.548C201.037 615.2 210.18 625.019 208.366 630.889C208.123 631.662 207.74 632.228 207.446 632.592C213.5 636.495 220.178 640.438 227.471 644.269C238.62 650.116 249.145 654.602 258.65 658.064C252.259 654.797 242.511 648.852 232.949 638.586C223.988 628.967 218.682 619.313 215.668 612.761C214.615 612.581 213.003 612.207 211.199 611.345C202.557 607.23 199.361 596.74 197.853 591.777C195.626 584.455 193.485 577.098 196.829 573.317C201.287 568.283 215.089 575.558 215.883 575.989C219.002 577.669 231.836 584.573 231.857 596.33C231.861 598.539 231.404 600.729 230.618 602.759C250.011 632.041 278.059 649.277 305.19 648.157C305.919 648.125 306.653 648.082 307.373 648.025C301.739 644.441 296.254 640.601 290.956 636.489C274.305 623.592 259.528 608.359 246.832 591.052C234.764 585.46 227.103 554.903 234.12 549.086C239.261 544.83 252.04 554.066 252.772 554.61C255.655 556.728 267.521 565.462 265.927 576.993C265.767 578.144 265.478 579.268 265.084 580.357C276.073 594.905 288.718 607.774 302.868 618.732C312.936 626.533 323.747 633.319 335.049 638.967C336.11 638.332 337.161 637.671 338.205 636.974C338.05 636.861 337.895 636.748 337.736 636.626C323.17 625.602 295.708 602.133 275.451 568.839C257.673 539.606 250.383 510.083 254.117 482.848C242.891 487.155 232.889 492.696 224.481 499.38C218.189 504.385 212.493 510.264 206.984 515.959C193.088 530.326 178.714 545.18 154.971 545.552C138.292 545.81 121.328 538.799 104.368 524.667C101.439 526.97 98.223 528.508 94.9108 529C69.099 532.774 33.5563 473.286 43.8521 456.995ZM42.9963 247.301C49.514 254.243 55.8979 259.694 61.4848 263.913C55.8228 257.994 50.1194 252.061 44.3634 246.111C39.5415 241.132 34.7335 236.186 29.935 231.285C33.4276 236.226 37.7362 241.697 42.9963 247.301ZM45.1472 238.312C39.5007 232.474 33.8672 226.689 28.2397 220.941C32.3361 226.733 37.3857 233.145 43.5463 239.704C51.1793 247.837 58.6553 254.224 65.21 259.166C58.5776 252.231 51.8926 245.279 45.1472 238.312ZM128.988 124.835C128.772 117.138 128.206 109.954 127.443 103.349C126.946 109.115 126.705 115.726 126.995 123.031C127.275 129.959 127.975 136.257 128.867 141.813C129.093 136.508 129.159 130.839 128.988 124.835ZM114.869 103.654C115.446 117.992 116.905 131.043 118.738 142.535C119.202 131.56 119.34 119.817 118.994 107.38C118.551 91.4525 117.384 76.5614 115.795 62.888C114.77 74.8336 114.262 88.5163 114.869 103.654ZM377.304 342.85C349.428 315.383 323.016 300.515 297.441 287.988C298.527 311.772 300.851 335.788 304.41 359.988C311.193 373.913 313.796 387.342 314.298 400.419C317.948 398.284 321.52 396.377 324.91 394.689C322.862 390.835 321.755 386.805 321.966 383.071C323.275 360.155 374.589 345.3 385.381 358.245C392.809 367.156 380.698 388.828 379.98 390.077C377.191 394.963 365.699 415.083 347.629 412.071C346.266 411.841 344.905 411.484 343.575 411.025C336.474 414.041 327.625 418.4 318.555 424.424C318.014 424.781 317.498 425.156 316.967 425.518C317.688 428.59 318.432 431.672 319.199 434.745C320.495 439.96 321.847 445.182 323.249 450.413C334.617 451.028 345.809 452.603 356.425 455.087C375.349 438.653 402.57 435.794 427.136 433.219C432.258 432.679 437.234 432.158 441.97 431.539C424.194 389.063 391.999 357.333 377.304 342.85ZM454.286 486.007C453.924 474.633 452.163 463.69 449.386 453.246C443.168 454.163 436.798 454.838 430.466 455.498C414.273 457.201 397.759 458.937 384.375 464.47C404.026 473.413 418.513 486.025 426.129 501.138C436.714 522.118 435.276 549.625 421.984 580.685C421.763 581.205 421.531 581.719 421.307 582.231C444.251 551.776 455.338 519.497 454.286 486.007ZM385.831 601.013C409.041 565.639 418.021 531.564 407.506 510.711C401.006 497.826 385.318 486.807 363.974 479.958C363.527 480.589 363.099 481.242 362.692 481.905C343.894 512.44 369.069 565.666 385.831 601.013ZM341.559 474.688C337.662 474.067 333.702 473.579 329.705 473.224C331.673 479.829 333.736 486.445 335.874 493.07C336.925 486.688 338.762 480.525 341.559 474.688ZM317.33 522.924C322.36 536.484 329.409 549.402 338.418 561.603C327.004 533.066 317.105 504.62 308.767 476.382C308.914 490.688 311.037 505.945 317.33 522.924ZM307.355 577.794C320.747 594.546 337.617 610.484 354.848 622.677C358.363 625.164 361.6 627.285 364.561 629.087C365.332 628.187 366.096 627.291 366.855 626.387C365.173 622.873 363.526 619.355 361.889 615.842C331.205 591.147 309.575 562.263 297.604 529.972C289.979 509.406 287.577 491.074 287.505 474.331C284.12 474.823 280.8 475.406 277.542 476.071C277.134 477.479 276.756 478.894 276.423 480.329C267.682 517.975 288.418 554.106 307.355 577.794Z" fill="#05A63E"/>
</svg>
