<svg width="90" height="25" viewBox="0 0 90 25" fill="none" xmlns="http://www.w3.org/2000/svg">
<path d="M6.95714 4.38076L0.993877 17.9513L0.596326 18.9065H0.530068L0.695714 17.9183L3.11415 4.38076H2.91537L0 20.6851H0.629456L7.38782 5.30303L7.78537 4.38076H7.85163L7.65286 5.33597L4.93626 20.6851H5.13503L8.05041 4.38076H6.95714Z" fill="white"/>
<path d="M9.95353 7.14756L8.03203 17.9183C7.96577 18.3355 7.96577 18.7308 8.03203 19.1041C8.09829 19.4554 8.21976 19.7628 8.39645 20.0264C8.59523 20.2899 8.83818 20.4985 9.1253 20.6522C9.4345 20.8059 9.77684 20.8827 10.1523 20.8827C10.7928 20.8827 11.3891 20.6851 11.9413 20.2899C12.5155 19.8726 12.9904 19.2907 13.3658 18.5441L13.1671 18.4783C13.0125 18.8296 12.8247 19.137 12.6039 19.4005C12.383 19.664 12.1511 19.8946 11.9082 20.0922C11.6873 20.2679 11.4443 20.4106 11.1793 20.5204C10.9143 20.6083 10.6492 20.6522 10.3842 20.6522C9.76579 20.6522 9.31303 20.4216 9.02591 19.9605C8.73879 19.4774 8.67253 18.8406 8.82713 18.0501L10.7818 6.98287C10.9143 6.23628 11.2014 5.62143 11.6431 5.13834C12.1069 4.65525 12.637 4.4137 13.2333 4.4137C13.6309 4.4137 13.9843 4.5235 14.2935 4.74308C14.6027 4.96267 14.8567 5.28107 15.0554 5.69829L15.2211 5.59947C15.0002 5.13834 14.7131 4.79798 14.3597 4.57839C14.0063 4.33685 13.5977 4.21607 13.1339 4.21607C12.7364 4.21607 12.3609 4.29293 12.0075 4.44664C11.6542 4.57839 11.3339 4.77602 11.0468 5.03953C10.7818 5.30303 10.5499 5.61045 10.3511 5.96179C10.1523 6.31313 10.0198 6.70839 9.95353 7.14756Z" fill="white"/>
<path d="M16.5858 7.14756L14.6644 17.9183C14.5981 18.3355 14.5981 18.7308 14.6644 19.1041C14.7306 19.4554 14.8521 19.7628 15.0288 20.0264C15.2275 20.2899 15.4705 20.4985 15.7576 20.6522C16.0668 20.8059 16.4092 20.8827 16.7846 20.8827C17.4251 20.8827 18.0214 20.6851 18.5736 20.2899C19.1478 19.8726 19.6227 19.2907 19.9982 18.5441L19.7994 18.4783C19.6448 18.8296 19.457 19.137 19.2362 19.4005C19.0153 19.664 18.7834 19.8946 18.5405 20.0922C18.3196 20.2679 18.0767 20.4106 17.8116 20.5204C17.5466 20.6083 17.2816 20.6522 17.0165 20.6522C16.3981 20.6522 15.9453 20.4216 15.6582 19.9605C15.3711 19.4774 15.3048 18.8406 15.4595 18.0501L17.4141 6.98287C17.5466 6.23628 17.8337 5.62143 18.2754 5.13834C18.7392 4.65525 19.2693 4.4137 19.8656 4.4137C20.2632 4.4137 20.6166 4.5235 20.9258 4.74308C21.235 4.96267 21.489 5.28107 21.6877 5.69829L21.8534 5.59947C21.6325 5.13834 21.3454 4.79798 20.992 4.57839C20.6387 4.33685 20.2301 4.21607 19.7663 4.21607C19.3687 4.21607 18.9932 4.29293 18.6399 4.44664C18.2865 4.57839 17.9662 4.77602 17.6791 5.03953C17.4141 5.30303 17.1822 5.61045 16.9834 5.96179C16.7846 6.31313 16.6521 6.70839 16.5858 7.14756Z" fill="white"/>
<path d="M19.6402 20.5863C19.7506 20.6741 19.8832 20.74 20.0378 20.7839C20.1924 20.8498 20.347 20.8827 20.5016 20.8827C20.7224 20.8827 20.9433 20.8278 21.1642 20.718C21.3629 20.6302 21.5617 20.4875 21.7605 20.2899C21.9593 20.0703 22.1359 19.8068 22.2905 19.4993C22.4452 19.17 22.5666 18.7747 22.655 18.3136L25.7029 4.57839H28.4195L25.5703 20.6851H26.3654L29.2477 4.38076H24.9409L21.8599 18.3136C21.7715 18.7308 21.6832 19.0931 21.5948 19.4005C21.4844 19.686 21.374 19.9275 21.2635 20.1252C21.131 20.3228 20.9985 20.4655 20.866 20.5534C20.7335 20.6192 20.5899 20.6522 20.4353 20.6522C20.3249 20.6522 20.2144 20.6412 20.104 20.6192C19.9936 20.5753 19.8832 20.5094 19.7727 20.4216L19.6402 20.5863Z" fill="white"/>
<path d="M31.1446 7.14756L29.2562 17.8524C29.1679 18.2916 29.1568 18.6978 29.2231 19.0711C29.2894 19.4444 29.4108 19.7628 29.5875 20.0264C29.7863 20.2899 30.0292 20.4985 30.3164 20.6522C30.6256 20.8059 30.9679 20.8827 31.3434 20.8827C31.9839 20.8827 32.5802 20.6851 33.1324 20.2899C33.6845 19.8946 34.1594 19.3127 34.5569 18.5441L34.3913 18.4783C34.1925 18.8296 33.9827 19.148 33.7618 19.4335C33.5409 19.697 33.309 19.9275 33.0661 20.1252C32.8231 20.3008 32.5692 20.4436 32.3041 20.5534C32.0612 20.6412 31.8072 20.6851 31.5421 20.6851C31.255 20.6851 31.001 20.6192 30.7802 20.4875C30.5593 20.3557 30.3716 20.1801 30.217 19.9605C30.0845 19.7189 29.9961 19.4335 29.9519 19.1041C29.9299 18.7747 29.9519 18.4124 30.0182 18.0171L31.9728 6.94993C32.1274 6.07158 32.3925 5.4238 32.7679 5.00659C33.1434 4.58937 33.6403 4.38076 34.2587 4.38076C34.8772 4.38076 35.2858 4.58937 35.4845 5.00659C35.7054 5.4238 35.7385 6.07158 35.5839 6.94993L34.6232 12.2859H30.6145L30.5814 12.4835H35.3851L36.3459 7.14756C36.4121 6.73035 36.4121 6.34607 36.3459 5.99473C36.2796 5.62143 36.1582 5.30303 35.9815 5.03953C35.8048 4.77602 35.5729 4.56741 35.2858 4.4137C34.9986 4.25999 34.6673 4.18313 34.2919 4.18313C33.9164 4.18313 33.552 4.25999 33.1986 4.4137C32.8673 4.56741 32.5581 4.77602 32.271 5.03953C31.9839 5.30303 31.7409 5.62143 31.5421 5.99473C31.3434 6.34607 31.2109 6.73035 31.1446 7.14756Z" fill="white"/>
<path d="M41.9434 20.6851L44.8588 4.38076H40.2207L39.5581 8.03689C39.2489 9.81555 38.9287 11.3856 38.5974 12.747C38.2882 14.0865 37.9679 15.2613 37.6366 16.2714C37.3053 17.2596 36.952 18.105 36.5765 18.8076C36.201 19.4884 35.8035 20.0483 35.3838 20.4875L35.4501 20.6192C35.936 20.1801 36.3777 19.5542 36.7753 18.7418C37.1949 17.9293 37.5814 16.9851 37.9348 15.9091C38.2882 14.8331 38.6084 13.6583 38.8955 12.3847C39.2048 11.1111 39.4808 9.78261 39.7238 8.39921L40.4195 4.57839H43.9974L41.1483 20.6851H41.9434ZM33.9262 25L34.6881 20.6851H42.5066L41.7447 25H42.5398L43.3349 20.4875H34.5225L33.7274 25H33.9262Z" fill="white"/>
<path d="M50.0477 4.18313C50.4231 4.18313 50.7544 4.25999 51.0416 4.4137C51.3287 4.56741 51.5606 4.77602 51.7373 5.03953C51.914 5.30303 52.0354 5.62143 52.1017 5.99473C52.1679 6.34607 52.1679 6.73035 52.1017 7.14756L50.1802 17.9183C50.1139 18.3355 49.9814 18.7308 49.7826 19.1041C49.5839 19.4554 49.3409 19.7628 49.0538 20.0264C48.7888 20.2899 48.4796 20.4985 48.1262 20.6522C47.7949 20.8059 47.4415 20.8827 47.066 20.8827C46.6906 20.8827 46.3593 20.8059 46.0722 20.6522C45.785 20.4985 45.5421 20.2899 45.3433 20.0264C45.1666 19.7628 45.0452 19.4554 44.9789 19.1041C44.9126 18.7308 44.9126 18.3355 44.9789 17.9183L46.9004 7.14756C46.9667 6.73035 47.0992 6.34607 47.298 5.99473C47.4967 5.62143 47.7397 5.30303 48.0268 5.03953C48.3139 4.77602 48.6231 4.56741 48.9544 4.4137C49.3078 4.25999 49.6722 4.18313 50.0477 4.18313ZM50.0145 4.38076C49.3961 4.38076 48.8992 4.58937 48.5237 5.00659C48.1483 5.4238 47.8832 6.07158 47.7286 6.94993L45.7409 18.1159C45.5863 18.9943 45.6194 19.6421 45.8403 20.0593C46.0611 20.4765 46.4808 20.6851 47.0992 20.6851C47.7176 20.6851 48.2035 20.4765 48.5569 20.0593C48.9323 19.6421 49.1974 18.9943 49.352 18.1159L51.3397 6.94993C51.4943 6.07158 51.4612 5.4238 51.2403 5.00659C51.0416 4.58937 50.633 4.38076 50.0145 4.38076Z" fill="white"/>
<path d="M59.0845 7.27931C59.1728 6.81818 59.1838 6.41194 59.1176 6.0606C59.0734 5.68731 58.974 5.37988 58.8194 5.13834C58.6648 4.89679 58.455 4.71014 58.19 4.57839C57.9249 4.44664 57.6157 4.38076 57.2623 4.38076H54.7445L51.8292 20.6851H54.4795C54.8991 20.6851 55.2746 20.6083 55.6059 20.4545C55.9372 20.3008 56.2353 20.0812 56.5004 19.7958C56.7654 19.4884 56.9863 19.1151 57.163 18.6759C57.3396 18.2367 57.4832 17.7207 57.5936 17.1278L57.7924 15.975C57.9028 15.3821 57.947 14.877 57.9249 14.4598C57.9028 14.0206 57.8366 13.6583 57.7262 13.3729C57.6157 13.0654 57.4722 12.8349 57.2955 12.6812C57.1188 12.5274 56.9311 12.4177 56.7323 12.3518L56.5335 12.3188V12.253L56.7323 12.22C56.9311 12.1761 57.1298 12.0883 57.3286 11.9565C57.5274 11.8248 57.7151 11.6491 57.8918 11.4295C58.0685 11.188 58.2231 10.8915 58.3556 10.5402C58.5102 10.1888 58.6317 9.78261 58.72 9.32147L59.0845 7.27931ZM56.7654 17.2925C56.655 17.8634 56.5556 18.3575 56.4672 18.7747C56.3789 19.17 56.2574 19.4993 56.1028 19.7628C55.9482 20.0044 55.7494 20.191 55.5065 20.3228C55.2635 20.4326 54.9433 20.4875 54.5457 20.4875H52.6574L54.1151 12.3847H56.0697C56.3789 12.3847 56.6218 12.4506 56.7985 12.5823C56.9752 12.7141 57.0967 12.9117 57.163 13.1752C57.2292 13.4387 57.2513 13.7901 57.2292 14.2292C57.2071 14.6465 57.1409 15.1405 57.0304 15.7115L56.7654 17.2925ZM54.1482 12.1871L55.5065 4.57839H57.2292C57.5826 4.57839 57.8476 4.63329 58.0243 4.74308C58.2231 4.83092 58.3556 4.98463 58.4219 5.20422C58.4881 5.40184 58.4992 5.66535 58.455 5.99473C58.4329 6.32411 58.3777 6.71937 58.2894 7.1805L57.8918 9.48617C57.7151 10.4304 57.5163 11.1221 57.2955 11.5613C57.0967 11.9785 56.7102 12.1871 56.136 12.1871H54.1482Z" fill="white"/>
<path d="M63.9037 19.7299L63.7381 20.6851H64.5332L67.4486 4.38076H66.6535L66.4547 5.36891L66.289 6.35705H66.2228C66.1565 5.61045 65.9798 5.06148 65.6927 4.71014C65.4277 4.3588 65.0632 4.18313 64.5994 4.18313C64.2902 4.18313 63.981 4.25999 63.6718 4.4137C63.3626 4.56741 63.0755 4.787 62.8105 5.07246C62.5454 5.33597 62.3135 5.64339 62.1147 5.99473C61.9381 6.34607 61.8166 6.73035 61.7503 7.14756L59.8288 17.9183C59.7626 18.3355 59.7626 18.7198 59.8288 19.0711C59.873 19.4225 59.9834 19.7409 60.1601 20.0264C60.3368 20.2899 60.5466 20.4985 60.7896 20.6522C61.0546 20.8059 61.3528 20.8827 61.6841 20.8827C62.1479 20.8827 62.5786 20.7071 62.9761 20.3557C63.3957 20.0044 63.7491 19.4664 64.0362 18.7418H64.1025L63.9037 19.7299ZM65.8915 8.66271L64.5001 16.3702C64.3896 17.0509 64.235 17.6658 64.0362 18.2148C63.8596 18.7418 63.6497 19.1919 63.4068 19.5652C63.1859 19.9166 62.9319 20.191 62.6448 20.3887C62.3798 20.5863 62.0816 20.6851 61.7503 20.6851C61.2423 20.6851 60.889 20.4436 60.6902 19.9605C60.4914 19.4554 60.4804 18.7308 60.6571 17.7866L62.5123 7.27931C62.689 6.31313 62.954 5.58849 63.3074 5.1054C63.6608 4.62231 64.0915 4.38076 64.5994 4.38076C64.9086 4.38076 65.1737 4.47958 65.3945 4.67721C65.6154 4.87483 65.7811 5.1603 65.8915 5.5336C66.0019 5.90689 66.0571 6.35705 66.0571 6.88406C66.0571 7.41107 66.0019 8.00395 65.8915 8.66271Z" fill="white"/>
<path d="M70.1121 4.38076L67.1967 20.6851H67.9918L69.4164 12.6482H72.398L70.9735 20.6851H71.7686L74.6839 4.38076H73.8888L72.4311 12.4506H69.4495L70.9072 4.38076H70.1121Z" fill="white"/>
<path d="M81.2391 4.38076L75.2759 17.9513L74.8783 18.9065H74.812L74.9777 17.9183L77.3961 4.38076H77.1974L74.282 20.6851H74.9114L81.6698 5.30303L82.0674 4.38076H82.1336L81.9348 5.33597L79.2182 20.6851H79.417L82.3324 4.38076H81.2391Z" fill="white"/>
<path d="M88.9067 4.38076L82.9435 17.9513L82.5459 18.9065H82.4797L82.6453 17.9183L85.0637 4.38076H84.865L81.9496 20.6851H82.579L89.3374 5.30303L89.735 4.38076H89.8012L89.6024 5.33597L86.8858 20.6851H87.0846L90 4.38076H88.9067ZM89.6687 0H89.8675C89.757 0.724637 89.492 1.30654 89.0724 1.74572C88.6748 2.18489 88.2221 2.40448 87.7141 2.40448C87.184 2.40448 86.7865 2.18489 86.5214 1.74572C86.2785 1.28458 86.2122 0.713658 86.3226 0.0329376H86.5214C86.4552 0.494071 86.5435 0.889328 86.7865 1.21871C87.0294 1.52613 87.3607 1.67984 87.7803 1.67984C88.2441 1.67984 88.6527 1.51515 89.0061 1.18577C89.3816 0.856389 89.6024 0.461132 89.6687 0Z" fill="white"/>
</svg>
