<svg width="728" height="585" viewBox="0 0 728 585" fill="none" xmlns="http://www.w3.org/2000/svg">
<path d="M310.478 143.455L310.477 143.455C293.656 137.546 278.038 124.864 267.436 110.036C256.827 95.1976 251.301 78.2982 254.507 63.9586C257.222 51.8155 266.156 41.7123 279.112 33.4028C292.065 25.095 308.985 18.6168 327.556 13.7092C364.696 3.8946 408.334 0.389776 439.771 1.03028C566.465 3.61961 663.36 77.02 715.233 125.649C733.252 149.065 761.747 177.634 801.82 185.399C828.797 190.625 848.778 184.05 873.371 173.659C876.837 172.194 880.396 170.654 884.08 169.059C906.524 159.341 933.612 147.613 972.773 138.835C996.188 133.589 1027.94 126.475 1058.09 125.623C1088.28 124.769 1116.71 130.192 1133.65 149.852C1144.09 161.971 1150.02 179.331 1150.84 197.265C1151.65 215.196 1147.34 233.644 1137.38 247.932C1123.07 268.453 1102.36 272.887 1068.99 275.511C1062.82 275.996 1056.22 276.42 1049.15 276.873C1018.05 278.867 977.943 281.44 925.66 292.423C882.707 301.445 857.587 310.671 837.423 318.078C834.766 319.054 832.195 319.998 829.68 320.906C808.116 328.695 790.715 333.819 758.772 333.384C674.027 332.228 610.327 293.612 599.542 286.899C548.705 255.246 522.319 217.112 500.471 185.537C499.877 184.678 499.286 183.825 498.698 182.976C476.516 150.95 458.456 126.043 422.941 122.938C400.928 121.014 384.394 128.533 368.794 135.626C367.489 136.22 366.19 136.81 364.895 137.392C348.118 144.931 331.979 151.015 310.478 143.455Z" stroke="#05A63E"/>
<path d="M131.365 170.506L131.383 170.078L131.365 170.506C156.721 171.542 172.409 180.99 188.69 190.795C189.24 191.126 189.791 191.458 190.343 191.789C207.245 201.951 225.117 212.176 255.205 213.344C282.023 214.387 297.87 207.433 312.939 200.446C313.405 200.23 313.87 200.014 314.335 199.798C328.87 193.046 342.945 186.508 365.913 187.274C404.838 188.57 442.568 209.958 469.02 234.517C482.242 246.794 492.623 259.841 498.915 271.529C502.061 277.373 504.177 282.862 505.121 287.735C506.067 292.61 505.832 296.831 504.326 300.172C501.844 305.678 495.564 309.536 486.651 312.004C477.762 314.465 466.378 315.508 453.89 315.484C428.917 315.437 399.638 311.125 377.315 305.482C350.415 298.678 333.774 289.982 320.497 283.044C319.256 282.395 318.044 281.762 316.856 281.147C302.943 273.946 292.227 269.225 275.787 271.947C251.243 276.014 238.809 292.549 226.53 310.193C225.948 311.03 225.365 311.87 224.782 312.711C213.052 329.626 200.941 347.091 178.109 355.773L178.109 355.773C144.912 368.412 99.926 358.311 63.4773 337.74C45.2657 327.461 29.2249 314.59 17.8897 300.689C6.55011 286.783 -0.0459142 271.892 0.535498 257.559C1.42727 235.625 19.1942 213.256 44.3056 196.643C69.3947 180.045 101.679 169.291 131.365 170.506Z" stroke="#05A63E"/>
<path d="M573.06 339.426L573.129 339.92C545.559 343.769 530.59 350.948 517.673 357.142C516.848 357.537 516.033 357.928 515.223 358.314C508.46 361.537 502.066 364.414 494.475 366.268C486.881 368.124 478.109 368.95 466.58 368.1C437.51 365.953 415.7 354.972 398.765 346.294C398.5 346.159 398.236 346.024 397.974 345.889C389.831 341.715 382.869 338.147 376.756 336.395C370.468 334.593 365.171 334.74 360.462 338.072L573.06 339.426ZM573.06 339.426L573.129 339.92C659.038 327.918 721.4 368.625 755.512 390.903L755.785 390.484M573.06 339.426L755.785 390.484M755.785 390.484L755.512 390.903C765.092 397.156 772.056 402.573 776.445 407.425C780.84 412.283 782.575 416.485 781.906 420.336C781.145 424.718 777.323 428.34 771.733 431.31C766.166 434.269 758.97 436.513 751.705 438.196C737.179 441.562 722.492 442.663 720.276 442.815C694.873 444.561 678.683 440.624 662.998 435.363C659.828 434.3 656.676 433.181 653.47 432.044C640.804 427.549 627.307 422.76 608.61 419.927C574.307 414.731 552.882 420.719 530.024 427.107C529.123 427.359 528.219 427.612 527.312 427.864C503.449 434.509 477.385 441.146 432.967 435.774C384.877 429.955 369.883 416.666 362.356 406.044L362.355 406.044M755.785 390.484L362.355 406.044M362.355 406.044C354.575 395.07 350.341 380.703 349.953 367.738M362.355 406.044L349.953 367.738M349.953 367.738C349.564 354.741 353.039 343.327 360.462 338.072L349.953 367.738Z" stroke="#05A63E"/>
<path d="M375.927 505.981L375.447 505.839L375.927 505.981C378.587 497.023 385.715 489.11 395.852 482.732C405.985 476.357 419.082 471.543 433.591 468.768C462.616 463.216 497.193 465.842 524.828 480.326L525.057 479.89L524.828 480.326C541.186 488.899 557.493 502.879 568.694 518.213C579.909 533.567 585.923 550.161 581.933 564.004L581.933 564.005C581.414 565.809 578.39 576.239 568.993 581.625L568.993 581.625C560.646 586.414 552.15 584.424 541.688 580.228C539.173 579.219 536.547 578.083 533.789 576.891C525.121 573.144 515.153 568.834 503.234 566.125L503.123 566.612L503.234 566.125C479.848 560.809 463.897 565.036 450.125 568.743L449.921 568.798C436.25 572.479 424.807 575.559 410.197 568.412C398.707 562.788 388.558 552.452 382.073 540.86C375.583 529.26 372.807 516.486 375.927 505.981Z" stroke="#05A63E"/>
<path d="M223.895 144.869L223.895 144.869C220.709 147.956 215.302 148.529 208.41 147.207C201.549 145.892 193.376 142.729 184.843 138.577C167.782 130.276 149.388 118.076 137.366 109.025C126.093 100.538 115.549 92.5991 108.221 85.1743C104.558 81.4631 101.723 77.904 100.002 74.4935C98.2844 71.0883 97.6917 67.8617 98.4595 64.7839C99.5406 60.4671 103.312 56.4095 108.991 53.0371C114.656 49.6729 122.145 47.0358 130.516 45.528C147.264 42.5112 167.43 44.0336 183.409 53.1624L183.41 53.1625C205.25 65.6336 213.562 89.0399 219.259 105.113L219.259 105.113C222.136 113.221 225.066 121.49 226.376 128.608C227.693 135.767 227.329 141.542 223.895 144.869Z" stroke="#05A63E"/>
<path d="M236.567 372.411L236.567 372.411C234.55 372.935 223.897 375.791 213.744 380.42C208.665 382.736 203.739 385.483 200.084 388.586C196.418 391.699 194.115 395.097 194.09 398.709L236.567 372.411ZM236.567 372.411C243.912 370.495 254.031 367.86 264.16 367.604C274.289 367.349 284.341 369.475 291.633 376.993C298.096 383.658 301.414 393.544 301.642 403.265C301.87 412.991 299.004 422.45 293.227 428.281C287.396 434.167 278.313 436.644 267.87 436.652M236.567 372.411L267.87 436.652M267.87 436.652C257.438 436.66 245.729 434.203 234.75 430.317M267.87 436.652L234.75 430.317M234.75 430.317C223.771 426.432 213.553 421.129 206.099 415.468M234.75 430.317L206.099 415.468M206.099 415.468C202.372 412.637 199.351 409.728 197.27 406.876M206.099 415.468L197.27 406.876M197.27 406.876C195.187 404.019 194.073 401.257 194.09 398.709L197.27 406.876Z" stroke="#05A63E"/>
<path d="M684.501 494.645C678.042 501.309 674.724 511.195 674.495 520.916C674.266 530.642 677.13 540.101 682.906 545.932L684.501 494.645ZM684.501 494.645C691.792 487.121 701.847 484.993 711.977 485.247M684.501 494.645L711.977 485.247M711.977 485.247C722.107 485.502 732.225 488.137 739.565 490.052M711.977 485.247L739.565 490.052M739.565 490.052C741.584 490.582 752.236 493.44 762.389 498.07C767.468 500.387 772.394 503.134 776.049 506.238C779.715 509.351 782.018 512.748 782.043 516.36C782.061 518.909 780.949 521.671 778.866 524.527C776.786 527.379 773.765 530.287 770.038 533.118C762.585 538.778 752.367 544.08 741.387 547.965C730.408 551.85 718.698 554.306 708.265 554.299C697.821 554.291 688.737 551.816 682.906 545.932L739.565 490.052Z" stroke="#05A63E"/>
</svg>
