<svg width="845" height="429" viewBox="0 0 845 429" fill="none" xmlns="http://www.w3.org/2000/svg">
<path fill-rule="evenodd" clip-rule="evenodd" d="M439.791 210.565C447.724 215.503 494.541 243.891 556.833 244.741C583.07 245.098 595.989 240.352 614.684 233.484C629.479 228.048 647.892 221.284 679.388 214.667C717.729 206.611 747.133 204.725 769.954 203.261C803.152 201.131 822.417 199.895 834.989 181.86C849.722 160.729 847.684 127.361 832.229 109.419C807.14 80.2969 748.178 93.5109 713.82 101.211L713.807 101.214C685.032 107.665 665.122 116.287 648.65 123.421C626.773 132.895 610.961 139.742 588.5 135.39C559.211 129.714 538.364 108.815 525.16 91.6456C487.075 55.9306 415.873 1.95762 322.742 0.0538446C276.548 -0.887503 194.505 10.3525 186.417 46.5311C181.647 67.866 202.876 96.5771 227.728 105.309C244.876 111.339 257.427 105.632 270.791 99.554C282.245 94.3453 294.297 88.8649 310.351 90.2687C336.906 92.5908 350.073 111.624 366.983 136.068C383.018 159.246 402.419 187.29 439.791 210.565ZM524.754 92.0135C486.694 56.329 415.632 2.49861 322.731 0.599532C299.672 0.129648 267.666 2.70124 240.429 9.90017C226.81 13.4999 214.413 18.2492 204.928 24.3332C195.441 30.4193 188.928 37.801 186.949 46.6502C184.612 57.1066 188.638 69.4588 196.408 80.3288C204.171 91.1878 215.604 100.471 227.909 104.794L227.909 104.794C243.619 110.319 255.407 105.88 267.712 100.35C268.663 99.9223 269.617 99.4883 270.576 99.0521C282.021 93.8461 294.196 88.3082 310.399 89.725C336.557 92.0124 349.855 110.374 366.126 133.87C366.557 134.492 366.989 135.117 367.424 135.746C383.458 158.923 402.804 186.887 440.08 210.101C447.986 215.023 494.699 243.347 556.841 244.195C580.255 244.514 593.003 240.759 608.815 235.047C610.66 234.381 612.547 233.688 614.496 232.971C629.296 227.534 647.74 220.758 679.276 214.133C717.658 206.068 747.107 204.179 769.928 202.715C775.113 202.383 779.956 202.072 784.483 201.716C808.97 199.79 824.093 196.537 834.541 181.548C841.826 171.099 844.98 157.599 844.384 144.468C843.789 131.336 839.446 118.634 831.816 109.775C819.438 95.4084 798.644 91.4265 776.507 92.0524C754.394 92.6777 731.112 97.8947 713.926 101.746C685.205 108.186 665.341 116.788 648.87 123.92C646.166 125.091 643.554 126.222 641.009 127.298C622.953 134.929 608.248 139.773 588.396 135.926C558.93 130.215 537.987 109.211 524.754 92.0135Z" fill="#05A63E"/>
<path fill-rule="evenodd" clip-rule="evenodd" d="M370.376 220.117L369.945 219.923C371.031 217.515 371.206 214.458 370.517 210.901C369.828 207.348 368.283 203.336 365.98 199.057C361.374 190.499 353.769 180.937 344.077 171.936C324.683 153.926 297.034 138.255 268.526 137.306C251.713 136.745 241.417 141.529 230.752 146.484C230.412 146.642 230.072 146.8 229.731 146.958C218.663 152.091 207.003 157.209 187.28 156.442C165.153 155.583 152.005 148.058 139.594 140.595C139.191 140.352 138.788 140.11 138.386 139.868C126.438 132.671 114.959 125.756 96.3975 124.998L96.4198 124.453C115.122 125.217 126.705 132.194 138.652 139.391C151.414 147.078 164.59 155.015 187.301 155.896C207.506 156.682 219.175 151.261 230.533 145.984C241.204 141.026 251.6 136.195 268.544 136.76C325.912 138.671 379.621 199.789 370.443 220.147C362.878 236.93 309.622 232.546 276.809 224.25C257.026 219.245 244.781 212.845 235.033 207.75C223.464 201.703 215.413 197.494 202.451 199.641C183.75 202.74 174.712 215.778 165.249 229.428C156.651 241.83 147.703 254.737 130.839 261.152C81.8214 279.817 -1.70027 231.275 0.0263539 188.703C1.34962 156.149 52.667 122.661 96.4198 124.453L96.3975 124.998C74.6562 124.108 50.9999 131.987 32.6131 144.154C14.2018 156.336 1.22253 172.712 0.571594 188.725C0.147336 199.186 4.96078 210.074 13.2672 220.263C21.5689 230.445 33.322 239.88 46.6718 247.416C73.3992 262.503 106.354 269.891 130.645 260.642L130.645 260.642C147.347 254.289 156.206 241.512 164.819 229.089C165.245 228.475 165.671 227.862 166.096 227.25C175.107 214.3 184.269 202.101 202.362 199.103C214.487 197.095 222.396 200.584 232.613 205.873C233.485 206.324 234.374 206.789 235.284 207.265C245.026 212.357 257.223 218.732 276.943 223.72C293.313 227.859 314.785 231.022 333.095 231.057C342.252 231.075 350.588 230.31 357.09 228.509C363.616 226.701 368.157 223.889 369.945 219.923L370.376 220.117Z" fill="#05A63E"/>
<path fill-rule="evenodd" clip-rule="evenodd" d="M420.551 248.809L420.627 249.349C400.421 252.171 389.456 257.43 379.981 261.974C379.376 262.264 378.778 262.552 378.183 262.835C373.219 265.201 368.512 267.32 362.923 268.686C357.329 270.052 350.872 270.66 342.396 270.034L342.436 269.49C360.301 270.808 369.047 266.613 379.746 261.482C389.235 256.93 400.261 251.642 420.551 248.809C483.743 239.978 529.611 269.933 554.647 286.287L554.349 286.744C529.317 270.392 483.601 240.549 420.627 249.349L420.551 248.809ZM528.613 325.065C506.128 326.61 493.431 322.104 479.427 317.134C470.136 313.836 460.268 310.335 446.585 308.261C421.489 304.459 405.83 308.836 389.062 313.523C370.975 318.579 351.598 323.996 317.697 319.894C282.344 315.616 271.227 305.83 265.622 297.92C254.109 281.678 253.119 255.447 264.32 247.516C271.365 242.53 280.095 247.006 292.206 253.215C304.717 259.63 320.837 267.895 342.436 269.49L342.396 270.034C321.023 268.456 304.989 260.38 292.56 254.01C292.369 253.912 292.18 253.815 291.991 253.718C286.005 250.649 280.91 248.037 276.44 246.756C271.855 245.442 268.031 245.559 264.636 247.961C259.263 251.766 256.714 260.064 256.999 269.585C257.283 279.071 260.381 289.582 266.068 297.605L266.068 297.605C271.553 305.346 282.501 315.085 317.763 319.353C350.327 323.292 369.429 318.427 386.93 313.552C387.596 313.366 388.26 313.181 388.922 312.996C405.7 308.306 421.454 303.902 446.667 307.721C460.406 309.803 470.33 313.326 479.627 316.625C481.978 317.46 484.288 318.28 486.61 319.059C498.105 322.915 509.963 325.8 528.576 324.52C530.199 324.408 540.966 323.601 551.612 321.134C556.938 319.9 562.201 318.257 566.267 316.096C570.357 313.922 573.096 311.299 573.64 308.168C574.117 305.422 572.887 302.392 569.676 298.841C566.471 295.298 561.376 291.331 554.349 286.744L554.647 286.287C568.722 295.476 575.218 302.276 574.178 308.261C571.821 321.826 531.876 324.84 528.613 325.065Z" fill="#05A63E"/>
<path fill-rule="evenodd" clip-rule="evenodd" d="M747.771 296.378L747.771 296.378C755.164 290.678 760.902 281.792 763.828 272.535C766.757 263.269 766.84 253.73 763.064 246.692C759.846 240.694 753.587 236.074 745.374 232.984C737.167 229.897 727.058 228.359 716.232 228.492C694.573 228.757 670.152 235.708 652.481 250.144C642.02 258.693 632.395 271.115 626.637 283.757C620.869 296.423 619.044 309.168 623.938 318.46C624.58 319.678 628.28 326.671 635.762 329.148C642.389 331.337 648.132 328.706 655.024 324.157C656.674 323.067 658.388 321.869 660.189 320.61C665.864 316.642 672.407 312.066 680.591 308.361L680.808 308.84L680.591 308.361C696.653 301.089 708.784 301.791 719.241 302.437L719.379 302.445C729.763 303.087 738.385 303.619 747.771 296.378ZM635.591 329.666C627.885 327.116 624.099 319.936 623.455 318.714C613.428 299.676 631.084 266.926 652.136 249.722C687.708 220.659 750.334 221.811 763.545 246.434C771.286 260.863 763.092 285.254 748.104 296.81C738.556 304.177 729.75 303.633 719.395 302.993C708.915 302.346 696.847 301.6 680.816 308.858C672.683 312.541 666.198 317.075 660.529 321.038C651.242 327.532 644.146 332.493 635.591 329.666Z" fill="#05A63E"/>
<path fill-rule="evenodd" clip-rule="evenodd" d="M276.051 371.114L276.051 371.114C273.78 378.762 275.798 388.087 280.547 396.578C285.291 405.06 292.714 412.618 301.108 416.728C311.77 421.945 320.11 419.699 330.151 416.995L330.285 416.959C340.398 414.236 352.14 411.123 369.347 415.035C378.111 417.029 385.448 420.201 391.811 422.953C393.832 423.827 395.754 424.658 397.593 425.396C405.268 428.474 411.429 429.902 417.476 426.433L417.477 426.432C424.305 422.518 426.509 414.927 426.89 413.604L426.89 413.604C429.794 403.524 425.421 391.403 417.201 380.147C408.998 368.914 397.051 358.671 385.071 352.391L385.318 351.919L385.071 352.391C364.834 341.782 339.502 339.855 318.232 343.924C307.601 345.958 298.011 349.484 290.598 354.149C283.18 358.818 277.987 364.595 276.051 371.114ZM427.414 413.755C433.365 393.102 409.433 364.545 385.324 351.907C344.586 330.551 283.475 344.194 275.528 370.959C270.872 386.639 283.85 408.887 300.869 417.218C311.715 422.525 320.231 420.232 330.246 417.535C340.381 414.806 352.052 411.663 369.226 415.568C377.936 417.548 385.207 420.693 391.564 423.441C401.98 427.945 409.939 431.386 417.748 426.906C424.782 422.874 427.032 415.083 427.414 413.755Z" fill="#05A63E"/>
<path fill-rule="evenodd" clip-rule="evenodd" d="M164.184 105.873L164.185 105.872C166.632 103.5 166.92 99.3492 165.954 94.0976C164.996 88.8893 162.851 82.8342 160.738 76.8789L160.738 76.8787C156.554 65.0729 150.472 47.9586 134.509 38.842L134.509 38.8419C122.828 32.1674 108.075 31.0497 95.8129 33.2588C89.6858 34.3627 84.2108 36.2923 80.0761 38.7484C75.926 41.2135 73.2058 44.1594 72.4294 47.2606C71.8794 49.4661 72.3001 51.7897 73.5479 54.2635C74.7987 56.7432 76.8649 59.3404 79.5469 62.0583C84.9135 67.4968 92.6391 73.3153 100.916 79.548C109.732 86.1871 123.221 95.135 135.728 101.221C141.985 104.266 147.966 106.58 152.979 107.542C158.025 108.509 161.913 108.074 164.184 105.873ZM71.9 47.1282C75.2117 33.9001 111.138 24.859 134.78 38.368C150.94 47.5977 157.076 64.9111 161.251 76.6919L161.253 76.6963C165.47 88.5826 169.9 101.094 164.564 106.264C154.664 115.861 118.257 93.2893 100.587 79.984L100.57 79.9708C84.0468 67.528 69.5373 56.6015 71.9 47.1282Z" fill="#05A63E"/>
<path d="M569.078 371.769C571.715 374.008 573.222 376.331 573.238 378.686C573.25 380.358 572.518 382.244 571.037 384.276C569.561 386.299 567.398 388.389 564.696 390.441C559.294 394.545 551.861 398.406 543.854 401.24C535.847 404.074 527.332 405.856 519.774 405.85C512.192 405.845 505.742 404.044 501.645 399.91C497.576 395.801 495.504 389.062 495.669 382.041C495.835 375.032 498.228 367.955 502.821 363.214C507.984 357.885 515.138 356.338 522.48 356.523C529.825 356.707 537.177 358.619 542.572 360.028C544.048 360.415 551.817 362.501 559.212 365.874C562.914 367.563 566.465 369.549 569.078 371.769Z" stroke="#05A63E"/>
<path d="M152.479 303.009C149.545 305.513 147.854 308.122 147.836 310.779C147.823 312.663 148.644 314.782 150.294 317.056C151.937 319.322 154.345 321.659 157.35 323.953C163.358 328.54 171.623 332.855 180.523 336.02C189.424 339.186 198.891 341.178 207.298 341.172C215.728 341.166 222.912 339.154 227.479 334.522C232.015 329.919 234.32 322.375 234.136 314.524C233.952 306.686 231.289 298.766 226.173 293.46C220.421 287.493 212.454 285.764 204.289 285.97C196.122 286.177 187.947 288.314 181.952 289.886C180.314 290.318 171.676 292.649 163.455 296.418C159.338 298.305 155.388 300.526 152.479 303.009Z" stroke="#05A63E"/>
</svg>
