<svg width="571" height="425" viewBox="0 0 571 425" fill="none" xmlns="http://www.w3.org/2000/svg">
<path d="M-40.3447 103.814L-40.3448 103.814C-52.5375 99.5303 -63.8652 90.3347 -71.5554 79.5789C-79.2528 68.813 -83.2461 56.5729 -80.9281 46.2058C-78.9659 37.4309 -72.5069 30.1155 -63.1081 24.0875C-53.7121 18.0613 -41.4325 13.3583 -27.9449 9.79412C-0.971649 2.66623 30.7246 0.120197 53.5592 0.585427C145.565 2.4658 215.939 55.7669 253.626 91.0957C266.727 108.118 287.457 128.905 316.62 134.555C336.265 138.361 350.816 133.57 368.693 126.016C371.213 124.952 373.799 123.832 376.476 122.673C392.785 115.612 412.457 107.094 440.901 100.719C457.917 96.9059 480.974 91.7403 502.874 91.1212C524.796 90.5014 545.403 94.443 557.671 108.68C565.234 117.458 569.536 130.042 570.126 143.05C570.715 156.056 567.592 169.43 560.372 179.783C550.015 194.638 535.022 197.859 510.776 199.765C506.292 200.118 501.497 200.426 496.363 200.755C473.766 202.204 444.61 204.074 406.608 212.057C375.385 218.615 357.124 225.322 342.47 230.705C340.54 231.414 338.672 232.1 336.845 232.76C321.185 238.416 308.558 242.134 285.367 241.819C223.825 240.979 177.563 212.935 169.733 208.061C132.816 185.075 113.656 157.385 97.78 134.441C97.349 133.818 96.9204 133.199 96.494 132.583C80.3814 109.32 67.224 91.1602 41.3441 88.8975C25.3114 87.4959 13.2654 92.974 1.93214 98.128C0.982742 98.5598 0.0383453 98.9892 -0.902969 99.4122C-13.0891 104.888 -24.7732 109.288 -40.3447 103.814Z" stroke="#05A63E"/>
<path d="M100.347 217.766L100.714 217.931L100.347 217.766C98.5686 221.709 94.0567 224.498 87.5915 226.288C81.1489 228.072 72.8906 228.83 63.8216 228.812C45.688 228.778 24.4233 225.646 8.21136 221.548C-11.3197 216.608 -23.3999 210.295 -33.0463 205.254C-33.948 204.783 -34.8285 204.323 -35.6918 203.876C-45.807 198.641 -53.6281 195.192 -65.62 197.178C-83.5175 200.143 -92.5807 212.206 -101.503 225.026C-101.925 225.632 -102.346 226.24 -102.769 226.849C-111.296 239.145 -120.075 251.804 -136.625 258.097L-136.625 258.098C-160.693 267.26 -193.337 259.941 -219.807 245.002C-233.029 237.54 -244.671 228.197 -252.894 218.112C-261.123 208.021 -265.895 197.232 -265.474 186.863C-264.829 170.991 -251.964 154.769 -233.73 142.706C-215.518 130.658 -192.086 122.855 -170.548 123.736L-170.528 123.237L-170.548 123.736C-152.159 124.487 -140.785 131.337 -128.954 138.462C-128.555 138.702 -128.157 138.942 -127.757 139.182C-115.469 146.57 -102.458 154.015 -80.5592 154.865C-61.0394 155.624 -49.5005 150.56 -38.5437 145.48C-38.2059 145.323 -37.8686 145.166 -37.5317 145.01C-26.9716 140.105 -16.769 135.365 -0.111725 135.921C28.129 136.861 55.5158 152.381 74.7228 170.214C84.3227 179.127 91.8553 188.596 96.4189 197.073C98.7007 201.312 100.232 205.287 100.915 208.81C101.599 212.336 101.426 215.372 100.347 217.766Z" stroke="#05A63E"/>
<path d="M-3.98979 245.474C-0.614486 243.086 3.18623 242.972 7.73328 244.275C12.1627 245.544 17.2112 248.132 23.1356 251.169C23.3234 251.265 23.5121 251.362 23.7017 251.459C36.0087 257.765 51.8784 265.756 73.0322 267.318L73.0666 266.853L73.0322 267.318C81.4221 267.937 87.8106 267.336 93.3451 265.984C98.8752 264.633 103.533 262.537 108.448 260.195C109.036 259.914 109.629 259.63 110.228 259.343C119.611 254.844 130.473 249.635 150.486 246.841L150.426 246.415L150.486 246.841C212.857 238.127 258.135 267.679 282.922 283.867L283.195 283.448L282.922 283.867C289.88 288.409 294.929 292.338 298.106 295.85C301.289 299.368 302.517 302.38 302.041 305.116C301.499 308.235 298.772 310.84 294.72 312.994C290.689 315.136 285.474 316.763 280.199 317.985C269.655 320.428 258.991 321.228 257.383 321.338C238.946 322.605 227.2 319.749 215.814 315.93C213.514 315.158 211.225 314.346 208.897 313.52C199.692 310.254 189.87 306.768 176.27 304.708C151.314 300.928 135.721 305.285 119.109 309.928C118.454 310.111 117.797 310.295 117.137 310.479C99.805 315.305 80.8849 320.123 48.6335 316.222C13.7116 311.997 2.85863 302.352 -2.58143 294.676L-2.5815 294.676C-8.21772 286.726 -11.2874 276.313 -11.5686 266.915C-11.8508 257.485 -9.32654 249.252 -3.98979 245.474ZM-3.98979 245.474L-4.2786 245.066L-3.98979 245.474Z" stroke="#05A63E"/>
<path d="M474.448 293.47L474.448 293.47C465.142 300.648 456.591 300.12 446.312 299.485L446.171 299.477C435.819 298.837 423.815 298.143 407.92 305.338L408.126 305.793L407.92 305.338C399.821 309.004 393.346 313.531 387.727 317.459C385.943 318.706 384.245 319.892 382.61 320.972C375.785 325.476 370.083 328.091 363.503 325.918C356.077 323.461 352.407 316.523 351.772 315.317C346.917 306.102 348.73 293.47 354.443 280.927C360.147 268.406 369.681 256.104 380.044 247.637C397.55 233.338 421.741 226.456 443.194 226.192C453.917 226.061 463.932 227.584 472.064 230.642C480.202 233.703 486.409 238.282 489.602 244.231C493.348 251.212 493.263 260.668 490.361 269.846C487.461 279.017 481.775 287.822 474.448 293.47Z" stroke="#05A63E"/>
<path d="M7.30094 367.413L7.30095 367.413C9.22133 360.947 14.3718 355.22 21.722 350.596C29.0673 345.974 38.5674 342.481 49.0981 340.467C70.1657 336.438 95.2582 338.345 115.307 348.853L115.533 348.421L115.307 348.853C127.175 355.073 139.008 365.218 147.135 376.343C155.276 387.489 159.616 399.502 156.734 409.499L156.734 409.5C156.357 410.81 154.172 418.339 147.395 422.223L147.395 422.223C141.389 425.668 135.272 424.247 127.672 421.199C125.85 420.468 123.945 419.645 121.944 418.779C115.643 416.056 108.384 412.917 99.7091 410.945L99.5983 411.432L99.7091 410.945C82.6813 407.074 71.0632 410.154 61.051 412.849L60.9145 412.886C50.974 415.562 42.7033 417.788 32.1326 412.617C23.8119 408.545 16.4564 401.055 11.7554 392.653C7.05002 384.242 5.04811 374.998 7.30094 367.413Z" stroke="#05A63E"/>
<path d="M231.495 359.232C236.756 353.804 244.017 352.26 251.359 352.445C258.702 352.629 266.041 354.539 271.376 355.932C272.842 356.317 280.573 358.391 287.938 361.75C291.624 363.431 295.19 365.421 297.833 367.665C300.486 369.918 302.122 372.352 302.14 374.917C302.153 376.729 301.362 378.708 299.858 380.77C298.356 382.828 296.172 384.933 293.471 386.984C288.068 391.087 280.657 394.934 272.689 397.753C264.72 400.573 256.227 402.354 248.665 402.348C241.093 402.343 234.536 400.547 230.335 396.309C226.172 392.106 224.097 385.274 224.263 378.23C224.429 371.192 226.832 364.044 231.495 359.232Z" stroke="#05A63E"/>
</svg>
