<svg width="1227" height="623" viewBox="0 0 1227 623" fill="none" xmlns="http://www.w3.org/2000/svg">
<path fill-rule="evenodd" clip-rule="evenodd" d="M638.606 305.785C650.125 312.957 718.106 354.182 808.56 355.417C846.658 355.935 865.416 349.043 892.563 339.068C914.046 331.175 940.784 321.351 986.518 311.743C1042.19 300.044 1084.89 297.304 1118.03 295.178C1166.23 292.085 1194.21 290.291 1212.46 264.1C1233.85 233.413 1230.9 184.955 1208.45 158.9C1172.02 116.608 1086.4 135.798 1036.52 146.98L1036.5 146.984C994.713 156.353 965.802 168.874 941.884 179.233C910.117 192.991 887.156 202.936 854.542 196.616C812.012 188.372 781.741 158.022 762.567 133.089C707.266 81.2232 603.876 2.84288 468.642 0.078194C401.565 -1.28885 282.433 15.034 270.689 67.5732C263.763 98.556 294.589 140.251 330.676 152.932C355.575 161.688 373.8 153.4 393.206 144.574C409.838 137.01 427.338 129.051 450.65 131.089C489.209 134.462 508.329 162.102 532.884 197.599C556.167 231.26 584.338 271.986 638.606 305.785ZM761.979 133.623C706.713 81.8018 603.526 3.62851 468.626 0.870649C435.144 0.188277 388.667 3.92279 349.118 14.3772C329.342 19.6048 311.341 26.5017 297.569 35.3371C283.792 44.1753 274.335 54.8952 271.462 67.7462C268.068 82.931 273.914 100.869 285.197 116.655C296.469 132.424 313.071 145.905 330.938 152.184L330.939 152.184C353.751 160.207 370.867 153.76 388.735 145.729C390.116 145.109 391.501 144.478 392.894 143.845C409.513 136.285 427.192 128.242 450.719 130.3C488.703 133.622 508.013 160.287 531.639 194.408C532.264 195.311 532.892 196.219 533.524 197.133C556.806 230.79 584.898 271.4 639.025 305.112C650.505 312.26 718.336 353.393 808.57 354.624C842.57 355.086 861.08 349.634 884.041 341.339C886.72 340.371 889.459 339.364 892.29 338.324C913.78 330.428 940.563 320.588 986.355 310.967C1042.09 299.255 1084.85 296.512 1117.99 294.386C1125.52 293.903 1132.55 293.452 1139.12 292.935C1174.68 290.138 1196.64 285.413 1211.81 263.647C1222.39 248.473 1226.97 228.867 1226.1 209.799C1225.24 190.727 1218.93 172.282 1207.85 159.417C1189.88 138.553 1159.69 132.771 1127.54 133.68C1095.43 134.588 1061.63 142.164 1036.67 147.757C994.964 157.109 966.12 169.601 942.204 179.958C938.278 181.659 934.484 183.302 930.788 184.864C904.57 195.945 883.217 202.98 854.391 197.394C811.604 189.101 781.193 158.597 761.979 133.623Z" fill="#05A63E"/>
<path fill-rule="evenodd" clip-rule="evenodd" d="M537.812 319.657L537.187 319.375C538.763 315.879 539.018 311.439 538.017 306.273C537.016 301.113 534.773 295.287 531.429 289.073C524.74 276.645 513.698 262.759 499.624 249.687C471.463 223.534 431.314 200.776 389.919 199.397C365.505 198.583 350.554 205.53 335.069 212.726C334.575 212.955 334.081 213.185 333.586 213.414C317.515 220.869 300.583 228.301 271.943 227.187C239.814 225.939 220.722 215.012 202.701 204.174C202.115 203.822 201.531 203.469 200.947 203.118C183.597 192.666 166.928 182.625 139.976 181.524L140.008 180.732C167.165 181.842 183.985 191.974 201.333 202.425C219.863 213.588 238.996 225.115 271.974 226.395C301.314 227.536 318.257 219.663 334.75 212C350.245 204.8 365.341 197.785 389.945 198.605C473.247 201.38 551.236 290.136 537.909 319.7C526.925 344.072 449.593 337.707 401.946 325.658C373.219 318.39 355.439 309.096 341.285 301.697C324.486 292.915 312.795 286.804 293.974 289.921C266.819 294.422 253.694 313.356 239.954 333.178C227.469 351.189 214.475 369.933 189.988 379.248C118.81 406.354 -2.46891 335.86 0.0382678 274.037C1.95975 226.762 76.4762 178.13 140.008 180.732L139.976 181.524C108.406 180.231 74.0555 191.674 47.3565 209.342C20.6221 227.033 1.7752 250.814 0.829995 274.069C0.213942 289.26 7.20341 305.073 19.2649 319.869C31.3195 334.656 48.3859 348.357 67.7708 359.301C106.581 381.211 154.434 391.94 189.706 378.507L189.706 378.507C213.958 369.282 226.822 350.727 239.33 332.687C239.948 331.795 240.566 330.904 241.184 330.016C254.267 311.21 267.571 293.494 293.844 289.139C311.45 286.224 322.934 291.29 337.77 298.972C339.036 299.627 340.327 300.302 341.65 300.993C355.796 308.388 373.506 317.645 402.141 324.89C425.911 330.901 457.091 335.493 483.678 335.544C496.975 335.57 509.079 334.459 518.52 331.844C527.997 329.219 534.591 325.135 537.187 319.375L537.812 319.657Z" fill="#05A63E"/>
<path fill-rule="evenodd" clip-rule="evenodd" d="M610.669 361.324L610.778 362.109C581.438 366.206 565.516 373.844 551.758 380.443C550.88 380.864 550.01 381.281 549.147 381.693C541.939 385.129 535.104 388.206 526.988 390.189C518.865 392.174 509.49 393.056 497.181 392.148L497.239 391.358C523.182 393.271 535.881 387.18 551.416 379.728C565.196 373.118 581.207 365.438 610.669 361.324C702.427 348.5 769.032 392 805.386 415.75L804.952 416.414C768.604 392.668 702.221 349.329 610.778 362.109L610.669 361.324ZM767.583 472.064C734.932 474.308 716.495 467.764 696.161 460.547C682.669 455.758 668.341 450.672 648.471 447.661C612.031 442.14 589.292 448.497 564.944 455.303C538.68 462.646 510.544 470.511 461.317 464.555C409.982 458.342 393.839 444.131 385.701 432.644C368.983 409.058 367.545 370.964 383.811 359.446C394.04 352.205 406.716 358.705 424.302 367.723C442.469 377.038 465.876 389.04 497.239 391.358L497.181 392.148C466.147 389.855 442.865 378.128 424.816 368.877C424.539 368.735 424.264 368.594 423.99 368.453C415.298 363.997 407.899 360.203 401.409 358.343C394.751 356.434 389.198 356.604 384.268 360.093C376.467 365.618 372.765 377.669 373.179 391.496C373.591 405.271 378.09 420.535 386.348 432.186L386.348 432.186C394.312 443.429 410.21 457.572 461.412 463.768C508.698 469.489 536.435 462.424 561.849 455.345C562.816 455.075 563.78 454.806 564.742 454.537C589.104 447.726 611.98 441.331 648.59 446.878C668.541 449.901 682.951 455.016 696.451 459.808C699.864 461.02 703.219 462.211 706.591 463.342C723.283 468.943 740.501 473.131 767.528 471.273C769.885 471.111 785.52 469.938 800.979 466.355C808.712 464.563 816.354 462.177 822.258 459.039C828.197 455.882 832.175 452.073 832.965 447.525C833.658 443.539 831.872 439.138 827.208 433.982C822.554 428.836 815.156 423.076 804.952 416.414L805.386 415.75C825.823 429.094 835.256 438.969 833.745 447.661C830.324 467.361 772.32 471.737 767.583 472.064Z" fill="#05A63E"/>
<path fill-rule="evenodd" clip-rule="evenodd" d="M1085.82 430.404L1085.82 430.404C1096.55 422.127 1104.88 409.222 1109.13 395.779C1113.39 382.323 1113.51 368.47 1108.02 358.25C1103.35 349.539 1094.26 342.829 1082.34 338.343C1070.42 333.859 1055.74 331.626 1040.02 331.819C1008.57 332.205 973.109 342.298 947.449 363.263C932.259 375.678 918.283 393.717 909.923 412.075C901.546 430.47 898.897 448.978 906.003 462.472C906.935 464.241 912.308 474.397 923.173 477.993C932.795 481.173 941.135 477.352 951.142 470.745C953.539 469.163 956.027 467.423 958.642 465.594C966.882 459.832 976.384 453.187 988.267 447.806L988.582 448.501L988.267 447.806C1011.59 437.246 1029.21 438.265 1044.39 439.203L1044.59 439.216C1059.67 440.147 1072.19 440.921 1085.82 430.404ZM922.924 478.746C911.735 475.042 906.237 464.616 905.302 462.841C890.742 435.194 916.379 387.634 946.948 362.649C998.602 320.445 1089.54 322.118 1108.72 357.875C1119.96 378.829 1108.06 414.25 1086.3 431.032C1072.44 441.73 1059.65 440.94 1044.61 440.011C1029.4 439.071 1011.87 437.988 988.594 448.528C976.785 453.876 967.368 460.461 959.136 466.217C945.651 475.646 935.347 482.851 922.924 478.746Z" fill="#05A63E"/>
<path fill-rule="evenodd" clip-rule="evenodd" d="M400.847 538.938L400.847 538.938C397.549 550.043 400.478 563.586 407.374 575.916C414.263 588.234 425.042 599.211 437.232 605.179C452.713 612.755 464.823 609.493 479.404 605.567L479.599 605.514C494.283 601.56 511.333 597.039 536.318 602.72C549.045 605.615 559.698 610.222 568.938 614.218C571.873 615.487 574.664 616.694 577.335 617.766C588.478 622.236 597.425 624.31 606.206 619.271L606.206 619.271C616.122 613.586 619.322 602.563 619.875 600.642L619.875 600.642C624.093 586.003 617.742 568.401 605.806 552.055C593.894 535.742 576.548 520.867 559.151 511.747L559.51 511.062L559.151 511.747C529.765 496.34 492.981 493.542 462.096 499.451C446.659 502.404 432.734 507.526 421.97 514.301C411.198 521.08 403.658 529.47 400.847 538.938ZM620.637 600.861C629.278 570.868 594.527 529.398 559.519 511.045C500.364 480.031 411.627 499.843 400.087 538.712C393.326 561.482 412.171 593.791 436.883 605.891C452.633 613.598 464.999 610.267 479.541 606.351C494.258 602.387 511.205 597.823 536.143 603.493C548.791 606.37 559.349 610.936 568.579 614.927C583.704 621.468 595.261 626.466 606.6 619.959C616.814 614.103 620.082 602.789 620.637 600.861Z" fill="#05A63E"/>
<path fill-rule="evenodd" clip-rule="evenodd" d="M238.409 153.75L238.409 153.75C241.964 150.305 242.381 144.277 240.978 136.65C239.587 129.086 236.473 120.293 233.405 111.645L233.405 111.644C227.329 94.5 218.497 69.6463 195.319 56.407L195.318 56.407C178.357 46.7142 156.933 45.091 139.128 48.2991C130.231 49.9022 122.281 52.7044 116.278 56.2711C110.251 59.8511 106.301 64.1291 105.174 68.6327C104.375 71.8355 104.986 75.21 106.798 78.8024C108.614 82.4035 111.615 86.1751 115.509 90.1222C123.302 98.02 134.52 106.47 146.538 115.521C159.34 125.162 178.927 138.157 197.088 146.995C206.174 151.417 214.859 154.778 222.138 156.174C229.465 157.579 235.111 156.947 238.409 153.75ZM104.405 68.4403C109.214 49.2304 161.382 36.1007 195.712 55.7187C219.177 69.1222 228.087 94.265 234.149 111.373L234.151 111.38C240.276 128.641 246.708 146.81 238.96 154.319C224.585 168.255 171.719 135.476 146.061 116.154L146.036 116.135C122.043 98.0653 100.974 82.1977 104.405 68.4403Z" fill="#05A63E"/>
<path d="M826.489 539.716C830.335 542.983 832.584 546.414 832.608 549.932C832.626 552.426 831.535 555.212 829.368 558.184C827.209 561.146 824.05 564.196 820.116 567.185C812.249 573.161 801.434 578.779 789.791 582.9C778.147 587.021 765.756 589.616 754.748 589.608C743.711 589.6 734.274 586.98 728.264 580.914C722.299 574.891 719.28 565.036 719.521 554.801C719.762 544.58 723.251 534.242 729.97 527.308C737.53 519.505 747.992 517.253 758.684 517.522C769.379 517.79 780.079 520.574 787.911 522.619C790.055 523.182 801.353 526.215 812.109 531.122C817.494 533.578 822.671 536.473 826.489 539.716Z" stroke="#05A63E"/>
<path d="M221.264 439.862C216.986 443.513 214.471 447.36 214.444 451.316C214.424 454.118 215.644 457.242 218.055 460.567C220.459 463.88 223.974 467.289 228.348 470.629C237.095 477.307 249.117 483.583 262.058 488.187C274.999 492.79 288.773 495.69 301.013 495.681C313.282 495.672 323.786 492.745 330.478 485.956C337.121 479.215 340.478 468.192 340.21 456.751C339.942 445.326 336.061 433.766 328.584 426.009C320.168 417.279 308.525 414.764 296.638 415.064C284.748 415.364 272.852 418.475 264.151 420.758C261.769 421.387 249.211 424.775 237.255 430.257C231.27 433.001 225.512 436.236 221.264 439.862Z" stroke="#05A63E"/>
</svg>
