<svg width="1152" height="585" viewBox="0 0 1152 585" fill="none" xmlns="http://www.w3.org/2000/svg">
<path fill-rule="evenodd" clip-rule="evenodd" d="M972.683 137.886C1019.5 127.396 1099.84 109.394 1134.03 149.069C1155.09 173.512 1157.87 218.972 1137.79 247.761C1120.66 272.331 1094.41 274.014 1049.17 276.916C1018.08 278.91 978.008 281.48 925.764 292.455C882.846 301.47 857.756 310.685 837.595 318.091C812.12 327.448 794.517 333.913 758.765 333.427C673.883 332.269 610.088 293.594 599.279 286.866C548.353 255.158 521.917 216.952 500.067 185.374C477.025 152.073 459.083 126.143 422.898 122.979C401.022 121.067 384.6 128.533 368.992 135.629C350.781 143.909 333.678 151.685 310.312 143.47C276.448 131.574 247.521 92.4585 254.02 63.3926C265.041 14.104 376.836 -1.20902 439.782 0.0734443C566.687 2.66708 663.71 76.198 715.606 124.855C733.599 148.246 762.005 176.718 801.916 184.451C832.522 190.38 854.068 181.051 883.878 168.144C906.324 158.426 933.455 146.679 972.665 137.89L972.683 137.886ZM320.267 283.031C304.503 274.792 293.532 269.059 275.87 271.984C250.387 276.206 238.071 293.968 225.176 312.564C213.46 329.461 201.268 347.045 178.288 355.784C111.494 381.213 -2.31614 315.08 0.0366293 257.082C1.83977 212.732 71.7671 167.109 131.387 169.549C156.871 170.591 172.655 180.096 188.934 189.901C206.324 200.373 224.278 211.186 255.225 212.387C282.758 213.458 298.658 206.072 314.135 198.883C328.675 192.128 342.842 185.548 365.931 186.317C444.102 188.92 517.289 272.185 504.782 299.92C494.475 322.784 421.905 316.812 377.193 305.509C350.235 298.691 333.55 289.972 320.267 283.031ZM720.311 442.858C724.757 442.551 779.189 438.445 782.399 419.965C783.817 411.811 774.965 402.546 755.786 390.028C721.671 367.747 659.168 326.938 573.061 338.969C545.413 342.828 530.389 350.033 517.458 356.234C502.879 363.225 490.962 368.94 466.617 367.145C437.186 364.971 415.22 353.711 398.172 344.972C381.669 336.512 369.774 330.415 360.174 337.208C344.91 348.013 346.26 383.749 361.948 405.877C369.585 416.653 384.733 429.985 432.907 435.814C479.103 441.401 505.506 434.022 530.153 427.134C553.001 420.748 574.339 414.785 608.536 419.965C627.182 422.79 640.627 427.56 653.288 432.053C672.37 438.824 689.672 444.963 720.311 442.858ZM849.549 434.206C835.885 408.269 859.943 363.651 888.63 340.213C937.102 300.619 1022.44 302.189 1040.44 335.734C1050.99 355.392 1039.82 388.621 1019.4 404.364C1006.39 414.401 994.391 413.66 980.28 412.788C966 411.906 949.556 410.89 927.711 420.778C916.629 425.795 907.792 431.973 900.067 437.372C887.412 446.218 877.743 452.977 866.085 449.126C855.585 445.652 850.426 435.871 849.549 434.206ZM525.061 479.427C469.549 450.332 386.277 468.918 375.448 505.382C369.103 526.744 386.788 557.054 409.978 568.405C424.757 575.635 436.362 572.51 450.008 568.836C463.819 565.118 479.722 560.836 503.124 566.156C514.993 568.854 524.902 573.138 533.563 576.882C547.756 583.018 558.602 587.707 569.243 581.603C578.827 576.109 581.894 565.495 582.414 563.686C590.524 535.549 557.913 496.644 525.061 479.427ZM224.243 144.771C210.754 157.845 161.143 127.095 137.066 108.968L137.042 108.95C114.527 91.9982 94.7556 77.1123 97.975 64.2061C102.488 46.1847 151.443 33.8673 183.658 52.2716C205.679 64.8457 214.039 88.4327 219.729 104.482L219.729 104.483L219.729 104.483L219.731 104.489C225.478 120.682 231.514 137.728 224.243 144.771ZM236.442 371.47C232.392 372.523 193.697 382.926 193.591 398.249C193.446 419.811 269.718 452.265 293.583 428.176C305.386 416.261 305.135 389.74 291.992 376.189C277.133 360.866 251.118 367.642 236.442 371.47ZM684.142 493.84C699.001 478.508 725.026 485.284 739.693 489.112C743.743 490.174 782.438 500.577 782.544 515.9C782.698 537.463 706.417 569.907 682.551 545.827C670.749 533.912 671.009 507.392 684.142 493.84Z" fill="#2E2EED"/>
</svg>
