<svg width="677" height="1252" viewBox="0 0 677 1252" fill="none" xmlns="http://www.w3.org/2000/svg">
<path d="M1206.64 692.573C1197.94 537.651 1328.16 471.495 1297.24 379.365C1285.48 344.322 1248.75 300.596 1132.8 271.073C1089.2 261.074 1033.36 240.419 1008.63 192.764C980.269 138.106 1017.76 95.9389 991.848 52.8243C946.962 -21.8926 774.101 4.35844 740.164 9.5108C608.94 29.4322 590.908 73.3725 471.695 109.47C245.849 177.872 140.094 71.2474 54.8335 151.988C-25.0065 227.576 -5.08129 389.99 35.4315 485.989C81.5955 595.32 140.787 581.423 173.015 675.908C228.664 838.979 87.37 937.348 149.517 1072.41C185.826 1151.3 278.693 1214.8 354.222 1205.68C423.206 1197.37 431.891 1134.01 542.142 1092.39C583.533 1076.77 646.958 1052.83 706.58 1075.73C788.422 1107.18 772.731 1192.21 844.163 1232.33C947.378 1290.31 1149.85 1208.11 1220.02 1069.06C1255.53 998.718 1252.11 923.818 1250.22 882.476C1245.6 779.934 1211.03 770.684 1206.64 692.573ZM1085.04 297.248C1111.88 272.77 1232.17 322.857 1234.46 385.404C1235.16 404.469 1224.81 422.54 1211.72 432.708C1181.71 456.023 1130.28 443.211 1105.61 415.508C1093.2 401.579 1089.69 386.26 1085.04 366.048C1079.17 340.531 1071.97 309.173 1085.04 297.248ZM1005.26 231.246C1034.69 262.863 1062.03 261.395 1063.11 278.152C1064.37 297.645 1028.45 316.741 1002.37 323.147C989.2 326.373 951.582 335.608 927.16 312.613C897.472 284.665 914.718 234.976 917.521 227.408C925.59 205.545 945.838 175.151 964.763 177.628C980.654 179.707 978.698 202.717 1005.26 231.246ZM228.433 810.68C212.265 800.283 223.49 754.264 227.756 736.758C232.19 718.533 234.716 708.213 243.462 697.419C269.516 665.282 317.358 670.251 323.379 670.97C327.29 671.428 375.579 677.62 380.06 700.126C383.247 716.087 358.548 734.036 309.028 769.293C263.172 801.965 240.013 818.125 228.433 810.68ZM286.469 959.487C275.583 978.796 218.748 980.035 198.715 952.958C192.586 944.687 191.955 933.924 190.923 912.733C188.86 870.199 187.69 846.119 203.38 836.166C218.871 826.336 245.972 833.323 258.691 848.535C268.269 860.002 263.618 868.869 269.593 898.041C278.093 939.428 292.906 948.051 286.469 959.487ZM702.484 311.115C708.905 305.443 723.564 312.674 725.997 313.974C743.166 323.086 751.636 343.497 752.39 360.666C753.345 382.346 743.32 410.768 725.043 414.514C715.896 416.394 704.178 412.205 700.575 404.515C696.787 396.458 704.424 389.96 708.258 376.398C717.159 344.796 692.737 319.738 702.484 311.115ZM818.91 446.299C804.205 458.408 771.823 485.087 756.948 475.715C748.325 470.288 748.479 454.54 755.608 412.863C772.146 316.16 780.43 267.801 812.181 253.72C832.969 244.501 860.716 247.314 876.838 261.747C902.477 284.711 891.144 330.333 886.262 350.01C873.528 401.319 838.312 430.322 818.91 446.299ZM871.434 544.301C875.406 552.817 890.635 585.459 878.763 596.819C864.073 610.869 830.921 575.536 775.426 578.243C729.37 580.475 711.846 617.749 683.975 606.451C669.47 600.564 657.614 584.572 660.016 572.341C662.988 557.19 686.162 556.685 720.916 539.47C775.533 512.409 777.443 481.938 805.529 485.347C846.227 490.27 865.675 531.948 871.434 544.301ZM734.528 474.981C734.251 511.552 689.211 542.696 671.118 534.287C654.195 526.413 657.09 482.121 670.194 453.088C674.829 442.829 682.759 425.247 695.924 423.886C713.463 422.082 734.728 449.663 734.528 474.981ZM688.395 355.178C686.1 370.145 680.988 403.414 658.861 410.584C638.874 417.052 617.655 398.124 604.474 386.382C596.098 378.921 578.59 363.311 576.342 339.369C575.849 334.094 574.833 323.346 581.038 313.301C583.564 309.204 589.707 301.284 613.852 294.221C642.554 285.812 661.525 280.262 675.737 290.49C696.079 305.122 690.643 340.561 688.395 355.178ZM630.698 421.149C646.727 435.612 645.311 459.906 642.647 506.003C641.076 533.186 638.273 581.438 622.429 584.465C609.817 586.881 602.811 558 563.623 511.476C528.869 470.242 510.837 464.982 513.085 450.351C517.597 420.797 598.715 392.284 630.698 421.149ZM539.755 398.109C527.76 414.743 503.754 427.8 487.663 421.088C474.143 415.446 477.916 400.738 460.654 378.952C441.776 355.132 428.98 362.302 416.292 343.512C398.107 316.604 409.209 279.452 417.262 252.528C423.729 230.894 427.733 216.354 439.451 212.303C457.605 206.019 480.411 229.442 496.363 245.816C507.219 256.962 530.917 281.928 541.696 323.392C548.24 348.573 555.631 376.093 539.755 398.109ZM440.775 417.633C435.663 443.425 361.736 466.358 331.432 436.851C320.9 426.592 314.325 408.704 319.822 394.577C329.292 370.206 372.238 363.281 402.064 375.359C420.327 382.759 443.994 401.442 440.775 417.633ZM331.463 479.828C362.136 441.804 474.313 488.695 485.292 493.343C493.591 496.86 556.001 523.279 552.166 542.864C550.565 551.089 537.784 555.447 515.426 560.492C426.486 580.551 379.967 590.734 349.402 561.822C326.535 540.188 316.157 498.817 331.463 479.828ZM309.736 818.324C332.264 766.785 386.82 721.652 445.195 724.466C466.352 725.49 505.849 733.501 511.792 756.022C518.891 782.976 474.821 796.171 437.634 858.198C399.831 921.264 410.656 965.526 380.122 975.402C356.177 983.154 328.106 961.077 315.049 945.344C275.983 898.362 305.655 827.65 309.736 818.324ZM477.731 703.673C446.704 707.495 414.059 690.998 398.969 665.435C396.028 660.451 383.032 638.465 391.963 621.113C398.476 608.453 413.921 603.637 444.471 599.387C498.734 591.85 565.84 582.523 574.863 605.472C580.037 618.59 563.823 636.218 543.359 658.479C521.216 682.559 504.894 700.324 477.731 703.673ZM580.484 643.434C615.638 620.256 667.576 614.034 678.324 631.417C685.546 643.083 667.391 654.397 652.101 702.526C639.213 743.103 644.155 760.135 628.896 769.629C608.231 782.502 577.25 764.859 573.416 762.611C570.829 761.098 537.122 740.626 537.107 705.523C537.076 672.055 567.703 651.874 580.484 643.434ZM673.828 741.834C686.763 731.498 703.716 748.225 767.234 766.158C839.482 786.554 863.411 777.854 883.599 802.638C899.52 822.192 906.296 854.253 892.791 874.083C881.227 891.069 858.607 893.454 837.665 895.365C815.307 897.414 743.028 904.018 698.327 852.801C666.652 816.52 654.303 757.428 673.828 741.834ZM883.583 770.714C868.2 773.696 857.006 761.495 839.174 749.432C769.328 702.159 707.827 732.981 691.875 701.502C678.201 674.501 707.304 619.966 750.373 604.998C783.34 593.547 813.044 609.31 845.303 626.28C874.298 641.539 915.704 663.31 920.323 702.297C923.757 731.04 906.85 766.204 883.583 770.714ZM881.489 512.561C865.321 507.761 858.807 486.983 857.637 483.268C846.227 446.896 876.546 408.903 895.332 385.373C909.113 368.112 915.997 359.474 927.561 353.373C976.065 327.81 1054.57 363.143 1056.15 392.513C1057.21 412.312 1021.49 411.532 953.291 468.101C920.031 495.698 901.322 518.448 881.489 512.561ZM916.612 74.8708C926.59 58.1601 946.47 37.7647 962.037 42.1679C974.125 45.5926 978.883 62.6703 981.347 71.4767C991.032 106.198 972.647 137.02 971.692 138.564C955.724 164.449 940.741 156.972 922.864 184.783C908.544 207.074 909.883 224.763 896.179 228.754C887.433 231.307 875.36 227.469 871.203 219.733C863.889 206.111 887.54 192.213 900.721 156.04C914.549 118.077 899.12 104.18 916.612 74.8708ZM757.01 160.687C759.535 138.671 767.018 138.029 773.254 110.188C783.494 64.5355 767.48 47.9318 779.614 32.3371C800.894 5.00057 882.721 14.1281 898.289 49.8735C904.54 64.2298 896.579 84.7016 880.626 125.63C874.898 140.338 868.57 152.737 855.897 177.536C841.546 205.637 835.925 213.572 828.349 221.017C818.341 230.879 803.373 245.602 788.791 242.758C766.787 238.477 753.006 195.638 757.01 160.687ZM763.369 246.305C772.577 266.716 766.525 296.835 749.141 304.357C736.129 309.984 721.332 300.978 708.844 293.38C702.761 289.68 668.192 267.725 666.96 232.973C666.729 226.246 666.344 215.544 673.274 209.444C685.561 198.619 711.384 210.438 724.627 216.507C742.72 224.763 756.501 231.062 763.369 246.305ZM656.705 71.3544C664.173 44.8129 711.585 23.0873 735.714 37.6271C763.446 54.3226 748.956 112.053 742.827 136.47C738.762 152.645 728.523 193.436 708.058 195.317C691.013 196.876 675.968 170.595 674.875 168.638C666.76 154.129 670.456 147.31 664.605 114.5C658.923 82.6835 653.995 80.9558 656.705 71.3544ZM585.38 87.9734C594.912 79.4728 610.218 73.9841 621.767 78.5096C643.17 86.8879 644.294 126.731 645.156 157.645C646.234 195.837 647.297 233.401 620.904 262.588C614.93 269.208 592.402 294.114 565.455 289.252C535.274 283.809 515.441 243.859 523.002 217.853C528.622 198.512 544.929 202.258 560.251 179.141C584.087 143.228 560.835 109.867 585.38 87.9734ZM405.175 144.756C424.792 132.189 442.022 130.263 464.951 126.685C533.627 115.983 547.593 106.947 554.183 115.509C562.606 126.425 549.903 154.128 532.518 170.564C484.476 215.987 384.156 190.944 380.907 169.708C379.598 161.131 393.888 151.988 405.175 144.756ZM224.445 164.066C253.271 138.121 315.326 154.541 350.603 187.107C384.772 218.632 404.866 275.431 382.508 318.133C370.836 340.424 344.321 365.146 323.056 359.886C298.326 353.786 308.735 314.096 270.855 270.615C241.429 236.857 212.558 234.854 208.492 207.257C206.121 191.036 213.482 173.943 224.445 164.066ZM65.2732 195.194C93.2672 158.241 148.516 140.995 170.089 158.623C192.417 176.863 160.681 217.807 187.459 259.5C203.38 284.283 220.442 278.901 252.578 312.093C272.365 332.519 301.051 370.833 291.658 383.661C284.945 392.834 262.741 383.508 162.267 349.169C80.6872 321.297 65.8276 317.368 54.5869 298.303C36.6325 267.817 43.1613 224.412 65.2732 195.194ZM124.634 524.12C74.1272 512.409 51.569 442.049 45.9332 424.482C40.4515 407.404 22.0198 349.888 42.8844 335.287C65.1041 319.753 101.059 374.35 207.322 416.914C263.48 439.404 300.897 443.18 306.287 468.315C310.336 487.212 294.738 510.88 275.829 519.717C255.226 529.349 242.399 515.894 203.611 514.182C157.016 512.133 152.273 530.526 124.634 524.12ZM134.242 557.511C139.015 541.626 186.812 539.776 222.551 545.417C284.36 555.172 355.284 594.495 350.449 622.519C345.999 648.357 276.399 669.059 230.173 648.22C222.028 644.55 212.05 636.203 192.109 619.492C151.365 585.382 130.993 568.335 134.242 557.511ZM381.646 1148.23C365.17 1159.66 344.582 1155.02 322.624 1149.73C248.189 1131.79 206.999 1078.82 201.548 1071.58C196.851 1065.36 155.538 1009.76 171.275 990.447C178.851 981.151 194.157 987.007 231.806 990.447C311.984 997.77 323.256 978.613 352.882 994.957C387.821 1014.22 402.68 1057.72 402.819 1089.63C402.88 1101.57 403.034 1133.37 381.646 1148.23ZM525.327 1051.39C500.243 1080.85 451.2 1095.74 430.736 1078.82C411.118 1062.59 423.021 1021.42 441.361 960.633C445.949 945.421 497.302 775.133 543.389 781.249C557.094 783.068 565.162 799.794 569.951 809.732C588.799 848.78 565.024 875.872 547.639 965.908C537.23 1019.82 541.434 1032.48 525.327 1051.39ZM754.884 1033.45C746.415 1043.38 734.697 1041.31 648.606 1034.51C587.551 1029.68 579.452 1029.62 572.8 1021.15C557.602 1001.79 580.129 976.977 596.529 899.447C608.632 842.221 604.72 816.245 618.841 811.857C631.175 808.035 648.575 827.788 683.667 866.729C712.016 898.178 727.029 915.103 739.994 942.699C751.404 966.963 772.762 1012.48 754.884 1033.45ZM1153.07 1023.07C1118.11 1079.73 1023.77 1191.36 931.056 1165.98C892.699 1155.48 868.139 1125.22 834.601 1083.89C802.403 1044.22 783.602 1021.05 788.668 995.721C800.987 934.092 942.743 918.268 957.094 916.662C972.724 914.919 1001.7 916.005 1059.68 918.176C1152.7 921.662 1168.7 927.563 1176.04 939.458C1190.35 962.651 1166.9 1000.66 1153.07 1023.07ZM1185.22 874.098C1171.72 891.726 1144.74 881.681 1041.29 872.584C969.998 866.316 951.797 868.349 937.169 851.302C914.703 825.112 925.574 782.9 931.04 761.602C947.024 699.499 1002.06 620.685 1065.78 626.296C1097.85 629.124 1120.01 652.271 1130.08 662.775C1142.54 675.786 1152.42 691.549 1177.54 801.124C1190.81 858.886 1190.87 866.729 1185.22 874.098ZM1162.49 602.491C1120.33 626.005 1083.28 574.803 1025.23 596.65C984.211 612.092 973.802 648.541 942.882 643.373C926.868 640.698 911.315 627.87 905.618 612.214C904.386 608.851 899.72 594.617 909.544 571.332C926.621 530.832 988.23 461.282 1080.14 458.408C1101.24 457.751 1174.73 455.457 1195.83 501.248C1211.32 534.899 1194.07 584.863 1162.49 602.491Z" fill="#F46C9E"/>
</svg>
